<svg width="249" height="50" viewBox="0 0 249 50" fill="none" xmlns="http://www.w3.org/2000/svg">
<path d="M69.3906 19.2725C67.6035 19.2725 66.0918 18.6133 64.8555 17.2949C63.6191 15.9707 63.001 14.2891 63.001 12.25C63.001 10.1523 63.6865 8.39746 65.0576 6.98535C66.4346 5.57324 68.1191 4.86719 70.1113 4.86719C70.75 4.86719 71.3828 4.9375 72.0098 5.07812C72.6367 5.21289 73.1055 5.34766 73.416 5.48242L73.8906 5.67578V9.10352H73.4336C73.0762 6.82422 71.8779 5.68164 69.8389 5.67578C68.3857 5.67578 67.1963 6.22363 66.2705 7.31934C65.3506 8.40918 64.8906 9.93262 64.8906 11.8896C64.8906 13.999 65.3389 15.6221 66.2354 16.7588C67.1377 17.8955 68.2773 18.4639 69.6543 18.4639C70.832 18.4639 71.7461 18.1943 72.3965 17.6553C73.0527 17.1104 73.5186 16.2988 73.7939 15.2207H74.3389L73.8906 18.1914C73.7559 18.2734 73.5684 18.376 73.3281 18.499C73.0879 18.6162 72.5781 18.7744 71.7988 18.9736C71.0195 19.1729 70.2168 19.2725 69.3906 19.2725ZM81.9854 14.2275V11.8018C81.9854 11.2627 81.8975 10.9023 81.7217 10.7207C81.5459 10.5391 81.2119 10.4482 80.7197 10.4482V10H84.7715V10.4482L83.5146 10.7207V17.1982C83.5146 17.7373 83.5996 18.0977 83.7695 18.2793C83.9453 18.4609 84.2793 18.5518 84.7715 18.5518V19H80.4561V18.5518L81.9854 18.2793V15.1328H81.8887C81.8066 15.2031 81.6895 15.2939 81.5371 15.4053C81.3906 15.5107 81.083 15.6572 80.6143 15.8447C80.1455 16.0264 79.6709 16.1172 79.1904 16.1172C78.3994 16.1172 77.7666 15.9004 77.292 15.4668C76.8174 15.0273 76.5801 14.4648 76.5801 13.7793V11.8018C76.5801 11.2627 76.4922 10.9023 76.3164 10.7207C76.1465 10.5391 75.8154 10.4482 75.3232 10.4482V10H79.375V10.4482L78.1094 10.7207V13.4189C78.1094 13.9111 78.2559 14.3037 78.5488 14.5967C78.8477 14.8896 79.2432 15.0361 79.7354 15.0361C80.1689 15.0361 80.5703 14.9717 80.9395 14.8428C81.3086 14.708 81.5723 14.5703 81.7305 14.4297L81.9854 14.2275ZM86.125 14.6758C86.125 13.2578 86.5498 12.0947 87.3994 11.1865C88.2549 10.2783 89.3008 9.82422 90.5371 9.82422C91.4629 9.82422 92.1924 10.1377 92.7256 10.7646C93.2588 11.3857 93.5488 12.332 93.5957 13.6035L92.7871 14.1396H87.7422V14.5C87.7422 15.5547 88.0322 16.4043 88.6123 17.0488C89.1982 17.6875 89.9307 18.0068 90.8096 18.0068C91.3135 18.0068 91.7881 17.9395 92.2334 17.8047C92.6846 17.6641 93.0068 17.5293 93.2002 17.4004L93.5078 17.1982L93.7803 17.4707C93.7451 17.5176 93.6924 17.582 93.6221 17.6641C93.5576 17.7402 93.4141 17.875 93.1914 18.0684C92.9688 18.2559 92.7314 18.4258 92.4795 18.5781C92.2275 18.7246 91.8994 18.8623 91.4951 18.9912C91.0967 19.1143 90.6865 19.1758 90.2646 19.1758C89.0752 19.1758 88.0879 18.7598 87.3027 17.9277C86.5176 17.0898 86.125 16.0059 86.125 14.6758ZM90.2646 10.5361C89.7021 10.5361 89.1895 10.7998 88.7266 11.3271C88.2637 11.8486 87.9678 12.5459 87.8389 13.4189L91.9785 13.2432C91.9785 11.4385 91.4072 10.5361 90.2646 10.5361ZM94.7646 13.1465V10H102.956V13.1465H102.42C102.42 12.2559 102.247 11.6289 101.901 11.2656C101.562 10.9023 100.984 10.7207 100.17 10.7207H99.625V17.1982C99.625 17.7373 99.7129 18.0977 99.8887 18.2793C100.064 18.4609 100.398 18.5518 100.891 18.5518V19H96.8389V18.5518L98.0957 18.2793V10.7207H97.5596C96.7451 10.7207 96.165 10.9053 95.8193 11.2744C95.4795 11.6377 95.3096 12.2617 95.3096 13.1465H94.7646ZM114.109 10.4482L112.853 10.7207V17.1982C112.853 17.7373 112.938 18.0977 113.107 18.2793C113.283 18.4609 113.617 18.5518 114.109 18.5518V19H110.066V18.5518L111.323 18.2793V14.6758H106.823V17.1982C106.823 17.7373 106.908 18.0977 107.078 18.2793C107.254 18.4609 107.588 18.5518 108.08 18.5518V19H104.028V18.5518L105.294 18.2793V11.8018C105.294 11.2627 105.206 10.9023 105.03 10.7207C104.854 10.5391 104.521 10.4482 104.028 10.4482V10H108.08V10.4482L106.823 10.7207V13.9639H111.323V11.8018C111.323 11.2627 111.235 10.9023 111.06 10.7207C110.884 10.5391 110.553 10.4482 110.066 10.4482V10H114.109V10.4482ZM120.771 17.5586C120.748 17.6055 120.71 17.667 120.657 17.7432C120.604 17.8135 120.487 17.9424 120.306 18.1299C120.124 18.3115 119.931 18.4756 119.726 18.6221C119.526 18.7686 119.257 18.8975 118.917 19.0088C118.583 19.1201 118.243 19.1758 117.897 19.1758C117.153 19.1758 116.576 18.9971 116.166 18.6396C115.756 18.2822 115.551 17.8018 115.551 17.1982C115.551 16.6943 115.732 16.2344 116.096 15.8184C116.465 15.3965 116.91 15.0654 117.432 14.8252C117.959 14.585 118.48 14.3828 118.996 14.2188C119.512 14.0488 119.948 13.9316 120.306 13.8672L120.868 13.7793V12.8828C120.868 11.3242 120.238 10.542 118.979 10.5361C118.762 10.5361 118.533 10.5742 118.293 10.6504C118.053 10.7207 117.865 10.791 117.73 10.8613L117.537 10.9932L116.904 12.8828H116.096V10.8086C116.23 10.7383 116.412 10.6504 116.641 10.5449C116.875 10.4336 117.3 10.2871 117.915 10.1055C118.536 9.91797 119.099 9.82422 119.603 9.82422C120.464 9.82422 121.144 10.0908 121.642 10.624C122.146 11.1572 122.397 11.9102 122.397 12.8828V16.5742C122.397 17.1484 122.491 17.5469 122.679 17.7695C122.872 17.9922 123.197 18.1035 123.654 18.1035V18.5518C123.256 18.5986 122.837 18.6777 122.397 18.7891C121.964 18.8945 121.627 18.9883 121.387 19.0703L121.044 19.1758L120.868 17.5586H120.771ZM118.521 17.9189C118.891 17.9189 119.271 17.8311 119.664 17.6553C120.057 17.4736 120.355 17.292 120.561 17.1104L120.868 16.8379V14.5C120.774 14.5117 120.643 14.5322 120.473 14.5615C120.303 14.5908 120.004 14.6641 119.576 14.7812C119.148 14.8926 118.773 15.0244 118.451 15.1768C118.129 15.3232 117.836 15.54 117.572 15.8271C117.309 16.1084 117.177 16.416 117.177 16.75C117.171 17.5293 117.619 17.9189 118.521 17.9189ZM129.227 10H133.006V10.4482L131.749 10.7207V17.1982C131.749 17.7373 131.834 18.0977 132.004 18.2793C132.18 18.4609 132.514 18.5518 133.006 18.5518V19H128.954V18.5518L130.22 18.2793V15.2207H129.227C128.348 15.2207 127.718 15.8213 127.337 17.0225L126.704 19H124.006V18.5518L125.289 18.2793L125.808 16.6621C125.978 16.1113 126.206 15.71 126.493 15.458C126.78 15.2061 127.211 15.0361 127.785 14.9482V14.8604C127.727 14.8604 127.639 14.8545 127.521 14.8428C127.41 14.8311 127.217 14.7783 126.941 14.6846C126.666 14.585 126.42 14.4648 126.203 14.3242C125.986 14.1777 125.79 13.9463 125.614 13.6299C125.444 13.3076 125.359 12.9385 125.359 12.5225C125.359 11.7549 125.67 11.1426 126.291 10.6855C126.918 10.2285 127.896 10 129.227 10ZM130.22 10.7207H129.227C128.482 10.7207 127.92 10.8789 127.539 11.1953C127.164 11.5117 126.977 11.9541 126.977 12.5225C126.977 13.1201 127.164 13.5859 127.539 13.9199C127.92 14.248 128.482 14.4121 129.227 14.4121H130.22V10.7207ZM138.938 10H148.932V10.4482L147.675 10.7207V17.1982C147.675 17.7373 147.76 18.0977 147.93 18.2793C148.105 18.4609 148.439 18.5518 148.932 18.5518V19H144.88V18.5518L146.146 18.2793V10.7207H141.733V17.1982C141.733 17.7373 141.818 18.0977 141.988 18.2793C142.164 18.4609 142.498 18.5518 142.99 18.5518V19H138.938V18.5518L140.204 18.2793V11.8018C140.204 11.2627 140.116 10.9023 139.94 10.7207C139.765 10.5391 139.431 10.4482 138.938 10.4482V10ZM155.594 17.5586C155.57 17.6055 155.532 17.667 155.479 17.7432C155.427 17.8135 155.31 17.9424 155.128 18.1299C154.946 18.3115 154.753 18.4756 154.548 18.6221C154.349 18.7686 154.079 18.8975 153.739 19.0088C153.405 19.1201 153.065 19.1758 152.72 19.1758C151.976 19.1758 151.398 18.9971 150.988 18.6396C150.578 18.2822 150.373 17.8018 150.373 17.1982C150.373 16.6943 150.555 16.2344 150.918 15.8184C151.287 15.3965 151.732 15.0654 152.254 14.8252C152.781 14.585 153.303 14.3828 153.818 14.2188C154.334 14.0488 154.771 13.9316 155.128 13.8672L155.69 13.7793V12.8828C155.69 11.3242 155.061 10.542 153.801 10.5361C153.584 10.5361 153.355 10.5742 153.115 10.6504C152.875 10.7207 152.688 10.791 152.553 10.8613L152.359 10.9932L151.727 12.8828H150.918V10.8086C151.053 10.7383 151.234 10.6504 151.463 10.5449C151.697 10.4336 152.122 10.2871 152.737 10.1055C153.358 9.91797 153.921 9.82422 154.425 9.82422C155.286 9.82422 155.966 10.0908 156.464 10.624C156.968 11.1572 157.22 11.9102 157.22 12.8828V16.5742C157.22 17.1484 157.313 17.5469 157.501 17.7695C157.694 17.9922 158.02 18.1035 158.477 18.1035V18.5518C158.078 18.5986 157.659 18.6777 157.22 18.7891C156.786 18.8945 156.449 18.9883 156.209 19.0703L155.866 19.1758L155.69 17.5586H155.594ZM153.344 17.9189C153.713 17.9189 154.094 17.8311 154.486 17.6553C154.879 17.4736 155.178 17.292 155.383 17.1104L155.69 16.8379V14.5C155.597 14.5117 155.465 14.5322 155.295 14.5615C155.125 14.5908 154.826 14.6641 154.398 14.7812C153.971 14.8926 153.596 15.0244 153.273 15.1768C152.951 15.3232 152.658 15.54 152.395 15.8271C152.131 16.1084 151.999 16.416 151.999 16.75C151.993 17.5293 152.441 17.9189 153.344 17.9189ZM161.078 10H168.276V10.4482L167.02 10.7207V17.1982C167.02 17.7373 167.104 18.0977 167.274 18.2793C167.45 18.4609 167.784 18.5518 168.276 18.5518V19H164.233V18.5518L165.49 18.2793V10.7207H163.328L163.152 12.1621C162.971 13.5566 162.76 14.7285 162.52 15.6777C162.279 16.6211 162.007 17.3418 161.702 17.8398C161.397 18.3379 161.087 18.6865 160.771 18.8857C160.46 19.0791 160.114 19.1758 159.733 19.1758C159.54 19.1758 159.361 19.1611 159.197 19.1318C159.039 19.1025 158.922 19.0703 158.846 19.0352L158.74 19V16.75H159.549L160.27 18.2793C160.738 18.1328 161.169 17.4502 161.562 16.2314C161.96 15.0068 162.25 13.4102 162.432 11.4414V11.3535C162.432 11.0312 162.338 10.7998 162.15 10.6592C161.963 10.5186 161.605 10.4482 161.078 10.4482V10ZM174.93 17.5586C174.906 17.6055 174.868 17.667 174.815 17.7432C174.763 17.8135 174.646 17.9424 174.464 18.1299C174.282 18.3115 174.089 18.4756 173.884 18.6221C173.685 18.7686 173.415 18.8975 173.075 19.0088C172.741 19.1201 172.401 19.1758 172.056 19.1758C171.312 19.1758 170.734 18.9971 170.324 18.6396C169.914 18.2822 169.709 17.8018 169.709 17.1982C169.709 16.6943 169.891 16.2344 170.254 15.8184C170.623 15.3965 171.068 15.0654 171.59 14.8252C172.117 14.585 172.639 14.3828 173.154 14.2188C173.67 14.0488 174.106 13.9316 174.464 13.8672L175.026 13.7793V12.8828C175.026 11.3242 174.396 10.542 173.137 10.5361C172.92 10.5361 172.691 10.5742 172.451 10.6504C172.211 10.7207 172.023 10.791 171.889 10.8613L171.695 10.9932L171.062 12.8828H170.254V10.8086C170.389 10.7383 170.57 10.6504 170.799 10.5449C171.033 10.4336 171.458 10.2871 172.073 10.1055C172.694 9.91797 173.257 9.82422 173.761 9.82422C174.622 9.82422 175.302 10.0908 175.8 10.624C176.304 11.1572 176.556 11.9102 176.556 12.8828V16.5742C176.556 17.1484 176.649 17.5469 176.837 17.7695C177.03 17.9922 177.355 18.1035 177.812 18.1035V18.5518C177.414 18.5986 176.995 18.6777 176.556 18.7891C176.122 18.8945 175.785 18.9883 175.545 19.0703L175.202 19.1758L175.026 17.5586H174.93ZM172.68 17.9189C173.049 17.9189 173.43 17.8311 173.822 17.6553C174.215 17.4736 174.514 17.292 174.719 17.1104L175.026 16.8379V14.5C174.933 14.5117 174.801 14.5322 174.631 14.5615C174.461 14.5908 174.162 14.6641 173.734 14.7812C173.307 14.8926 172.932 15.0244 172.609 15.1768C172.287 15.3232 171.994 15.54 171.73 15.8271C171.467 16.1084 171.335 16.416 171.335 16.75C171.329 17.5293 171.777 17.9189 172.68 17.9189ZM178.243 13.1465V10H186.435V13.1465H185.898C185.898 12.2559 185.726 11.6289 185.38 11.2656C185.04 10.9023 184.463 10.7207 183.648 10.7207H183.104V17.1982C183.104 17.7373 183.191 18.0977 183.367 18.2793C183.543 18.4609 183.877 18.5518 184.369 18.5518V19H180.317V18.5518L181.574 18.2793V10.7207H181.038C180.224 10.7207 179.644 10.9053 179.298 11.2744C178.958 11.6377 178.788 12.2617 178.788 13.1465H178.243ZM193.088 17.5586C193.064 17.6055 193.026 17.667 192.974 17.7432C192.921 17.8135 192.804 17.9424 192.622 18.1299C192.44 18.3115 192.247 18.4756 192.042 18.6221C191.843 18.7686 191.573 18.8975 191.233 19.0088C190.899 19.1201 190.56 19.1758 190.214 19.1758C189.47 19.1758 188.893 18.9971 188.482 18.6396C188.072 18.2822 187.867 17.8018 187.867 17.1982C187.867 16.6943 188.049 16.2344 188.412 15.8184C188.781 15.3965 189.227 15.0654 189.748 14.8252C190.275 14.585 190.797 14.3828 191.312 14.2188C191.828 14.0488 192.265 13.9316 192.622 13.8672L193.185 13.7793V12.8828C193.185 11.3242 192.555 10.542 191.295 10.5361C191.078 10.5361 190.85 10.5742 190.609 10.6504C190.369 10.7207 190.182 10.791 190.047 10.8613L189.854 10.9932L189.221 12.8828H188.412V10.8086C188.547 10.7383 188.729 10.6504 188.957 10.5449C189.191 10.4336 189.616 10.2871 190.231 10.1055C190.853 9.91797 191.415 9.82422 191.919 9.82422C192.78 9.82422 193.46 10.0908 193.958 10.624C194.462 11.1572 194.714 11.9102 194.714 12.8828V16.5742C194.714 17.1484 194.808 17.5469 194.995 17.7695C195.188 17.9922 195.514 18.1035 195.971 18.1035V18.5518C195.572 18.5986 195.153 18.6777 194.714 18.7891C194.28 18.8945 193.943 18.9883 193.703 19.0703L193.36 19.1758L193.185 17.5586H193.088ZM190.838 17.9189C191.207 17.9189 191.588 17.8311 191.98 17.6553C192.373 17.4736 192.672 17.292 192.877 17.1104L193.185 16.8379V14.5C193.091 14.5117 192.959 14.5322 192.789 14.5615C192.619 14.5908 192.32 14.6641 191.893 14.7812C191.465 14.8926 191.09 15.0244 190.768 15.1768C190.445 15.3232 190.152 15.54 189.889 15.8271C189.625 16.1084 189.493 16.416 189.493 16.75C189.487 17.5293 189.936 17.9189 190.838 17.9189ZM64.3105 31.1396H68.6875C70.0293 31.1396 71.043 31.4355 71.7285 32.0273C72.4141 32.6133 72.7568 33.3926 72.7568 34.3652C72.7568 35.7305 72.2881 36.8555 71.3506 37.7402C70.4131 38.6191 69.1035 39.0586 67.4219 39.0586H65.8926L65.3213 42.6621C65.2627 43.0488 65.2334 43.3359 65.2334 43.5234C65.2334 43.8926 65.3301 44.1416 65.5234 44.2705C65.7227 44.3994 66.0977 44.4639 66.6484 44.4639L66.5605 45H62.1133L62.1836 44.5518L63.6074 44.1914L65.3037 33.4775C65.3623 33.0557 65.3916 32.751 65.3916 32.5635C65.3916 32.2178 65.3066 31.9834 65.1367 31.8604C64.9727 31.7373 64.668 31.6758 64.2227 31.6758L64.3105 31.1396ZM67.0088 31.9482L66.0068 38.25H67.2988C68.5117 38.25 69.4375 37.916 70.0762 37.248C70.7207 36.5742 71.043 35.6543 71.043 34.4883C71.043 33.6855 70.8115 33.0615 70.3486 32.6162C69.8857 32.1709 69.2061 31.9482 68.3096 31.9482H67.0088ZM80.9395 39.5244C80.9395 41.1182 80.4443 42.46 79.4541 43.5498C78.4639 44.6338 77.2715 45.1758 75.877 45.1758C74.916 45.1758 74.1455 44.8389 73.5654 44.165C72.9854 43.4854 72.6953 42.5889 72.6953 41.4756C72.6953 39.8818 73.1904 38.543 74.1807 37.459C75.1709 36.3691 76.3604 35.8242 77.749 35.8242C78.71 35.8242 79.4805 36.1641 80.0605 36.8438C80.6465 37.5176 80.9395 38.4111 80.9395 39.5244ZM74.1543 41.4756C74.1543 42.4248 74.3418 43.1602 74.7168 43.6816C75.0977 44.2031 75.5986 44.4639 76.2197 44.4639C77.1104 44.4639 77.875 44.0156 78.5137 43.1191C79.1582 42.2227 79.4805 41.0244 79.4805 39.5244C79.4805 38.5752 79.29 37.8398 78.9092 37.3184C78.5342 36.7969 78.0332 36.5361 77.4062 36.5361C76.5156 36.5361 75.751 36.9844 75.1123 37.8809C74.4736 38.7773 74.1543 39.9756 74.1543 41.4756ZM82.2754 41.4756C82.2754 39.8818 82.7705 38.543 83.7607 37.459C84.751 36.3691 85.9404 35.8242 87.3291 35.8242C87.7861 35.8242 88.1934 35.8916 88.5508 36.0264C88.9141 36.1553 89.1631 36.29 89.2979 36.4307L89.4736 36.6328L88.8057 38.3379H88.4805L88.1377 36.8086C87.9443 36.627 87.5811 36.5361 87.0479 36.5361C86.1865 36.5361 85.4248 36.9668 84.7627 37.8281C84.1006 38.6836 83.7695 39.7969 83.7695 41.168C83.7695 42.0293 83.9775 42.7178 84.3936 43.2334C84.8154 43.749 85.3633 44.0068 86.0371 44.0068C86.4707 44.0068 86.8809 43.9395 87.2676 43.8047C87.6602 43.6641 87.9385 43.5293 88.1025 43.4004L88.3574 43.1982L88.542 43.4707C88.5068 43.5176 88.457 43.582 88.3926 43.6641C88.334 43.7402 88.1963 43.875 87.9795 44.0684C87.7627 44.2559 87.54 44.4258 87.3115 44.5781C87.083 44.7246 86.7871 44.8623 86.4238 44.9912C86.0664 45.1143 85.709 45.1758 85.3516 45.1758C84.4258 45.1758 83.6816 44.8389 83.1191 44.165C82.5566 43.4854 82.2754 42.5889 82.2754 41.4756ZM90.0801 41.4756C90.0801 39.8818 90.5752 38.543 91.5654 37.459C92.5557 36.3691 93.7451 35.8242 95.1338 35.8242C95.5908 35.8242 95.998 35.8916 96.3555 36.0264C96.7188 36.1553 96.9678 36.29 97.1025 36.4307L97.2783 36.6328L96.6104 38.3379H96.2852L95.9424 36.8086C95.749 36.627 95.3857 36.5361 94.8525 36.5361C93.9912 36.5361 93.2295 36.9668 92.5674 37.8281C91.9053 38.6836 91.5742 39.7969 91.5742 41.168C91.5742 42.0293 91.7822 42.7178 92.1982 43.2334C92.6201 43.749 93.168 44.0068 93.8418 44.0068C94.2754 44.0068 94.6855 43.9395 95.0723 43.8047C95.4648 43.6641 95.7432 43.5293 95.9072 43.4004L96.1621 43.1982L96.3467 43.4707C96.3115 43.5176 96.2617 43.582 96.1973 43.6641C96.1387 43.7402 96.001 43.875 95.7842 44.0684C95.5674 44.2559 95.3447 44.4258 95.1162 44.5781C94.8877 44.7246 94.5918 44.8623 94.2285 44.9912C93.8711 45.1143 93.5137 45.1758 93.1562 45.1758C92.2305 45.1758 91.4863 44.8389 90.9238 44.165C90.3613 43.4854 90.0801 42.5889 90.0801 41.4756ZM100.864 37.4414L100.161 41.9414C100.103 42.2988 100.073 42.5801 100.073 42.7852C100.073 43.541 100.404 43.9189 101.066 43.9189C101.5 43.9189 101.98 43.7402 102.508 43.3828C103.035 43.0195 103.454 42.6592 103.765 42.3018L104.23 41.7568L105.153 36L106.551 35.8242L105.329 43.5586C105.317 43.6289 105.312 43.6787 105.312 43.708C105.312 43.9717 105.402 44.1035 105.584 44.1035C105.754 44.1035 105.941 43.9834 106.146 43.7432C106.357 43.5029 106.53 43.2627 106.665 43.0225L106.841 42.6621L107.148 42.8379C107.125 42.8965 107.093 42.9814 107.052 43.0928C107.011 43.1982 106.911 43.3887 106.753 43.6641C106.595 43.9336 106.431 44.1709 106.261 44.376C106.097 44.5752 105.886 44.7598 105.628 44.9297C105.37 45.0938 105.104 45.1758 104.828 45.1758C104.219 45.1758 103.911 44.7861 103.905 44.0068C103.905 43.9248 103.92 43.7754 103.949 43.5586L104.055 42.8379H103.984C103.938 42.8965 103.873 42.9814 103.791 43.0928C103.715 43.1982 103.548 43.3887 103.29 43.6641C103.032 43.9336 102.774 44.1709 102.517 44.376C102.259 44.5752 101.948 44.7598 101.585 44.9297C101.228 45.0938 100.879 45.1758 100.539 45.1758C99.3145 45.1758 98.7051 44.4756 98.7109 43.0752C98.7109 42.6768 98.7402 42.2988 98.7988 41.9414L99.502 37.4414C99.502 37.418 99.5049 37.3887 99.5107 37.3535C99.5166 37.3125 99.5195 37.2861 99.5195 37.2744C99.5195 37.0225 99.4346 36.8965 99.2646 36.8965C99.0947 36.8965 98.9014 37.0166 98.6846 37.2568C98.4736 37.4971 98.3008 37.7373 98.166 37.9775L97.9727 38.3379L97.6826 38.1621C97.7061 38.1035 97.7383 38.0215 97.7793 37.916C97.8203 37.8047 97.917 37.6143 98.0693 37.3447C98.2275 37.0693 98.3916 36.832 98.5615 36.6328C98.7314 36.4277 98.9453 36.2432 99.2031 36.0791C99.4609 35.9092 99.7275 35.8242 100.003 35.8242C100.601 35.8242 100.899 36.2021 100.899 36.958C100.899 37.1631 100.888 37.3242 100.864 37.4414ZM110.937 37.4414L110.233 41.9414C110.175 42.2988 110.146 42.5801 110.146 42.7852C110.146 43.541 110.477 43.9189 111.139 43.9189C111.572 43.9189 112.053 43.7402 112.58 43.3828C113.107 43.0195 113.526 42.6592 113.837 42.3018L114.303 41.7568L115.226 36L116.623 35.8242L115.401 43.5586C115.39 43.6289 115.384 43.6787 115.384 43.708C115.384 43.9717 115.475 44.1035 115.656 44.1035C115.826 44.1035 116.014 43.9834 116.219 43.7432C116.43 43.5029 116.603 43.2627 116.737 43.0225L116.913 42.6621L117.221 42.8379C117.197 42.8965 117.165 42.9814 117.124 43.0928C117.083 43.1982 116.983 43.3887 116.825 43.6641C116.667 43.9336 116.503 44.1709 116.333 44.376C116.169 44.5752 115.958 44.7598 115.7 44.9297C115.442 45.0938 115.176 45.1758 114.9 45.1758C114.291 45.1758 113.983 44.7861 113.978 44.0068C113.978 43.9248 113.992 43.7754 114.021 43.5586L114.127 42.8379H114.057C114.01 42.8965 113.945 42.9814 113.863 43.0928C113.787 43.1982 113.62 43.3887 113.362 43.6641C113.104 43.9336 112.847 44.1709 112.589 44.376C112.331 44.5752 112.021 44.7598 111.657 44.9297C111.3 45.0938 110.951 45.1758 110.611 45.1758C109.387 45.1758 108.777 44.4756 108.783 43.0752C108.783 42.6768 108.812 42.2988 108.871 41.9414L109.574 37.4414C109.574 37.418 109.577 37.3887 109.583 37.3535C109.589 37.3125 109.592 37.2861 109.592 37.2744C109.592 37.0225 109.507 36.8965 109.337 36.8965C109.167 36.8965 108.974 37.0166 108.757 37.2568C108.546 37.4971 108.373 37.7373 108.238 37.9775L108.045 38.3379L107.755 38.1621C107.778 38.1035 107.811 38.0215 107.852 37.916C107.893 37.8047 107.989 37.6143 108.142 37.3447C108.3 37.0693 108.464 36.832 108.634 36.6328C108.804 36.4277 109.018 36.2432 109.275 36.0791C109.533 35.9092 109.8 35.8242 110.075 35.8242C110.673 35.8242 110.972 36.2021 110.972 36.958C110.972 37.1631 110.96 37.3242 110.937 37.4414ZM113.301 34.4707C112.627 34.4707 112.103 34.3008 111.728 33.9609C111.358 33.6152 111.174 33.1787 111.174 32.6514C111.174 32.5576 111.203 32.3232 111.262 31.9482H112.633L112.396 33.4775C112.636 33.7178 112.973 33.8379 113.406 33.8379C113.934 33.8379 114.367 33.6826 114.707 33.3721C115.053 33.0615 115.267 32.748 115.349 32.4316L115.472 31.9482H116.122C116.017 32.6807 115.7 33.2842 115.173 33.7588C114.646 34.2334 114.021 34.4707 113.301 34.4707ZM118.205 41.4756C118.205 39.8818 118.7 38.543 119.69 37.459C120.681 36.3691 121.87 35.8242 123.259 35.8242C123.716 35.8242 124.123 35.8916 124.48 36.0264C124.844 36.1553 125.093 36.29 125.228 36.4307L125.403 36.6328L124.735 38.3379H124.41L124.067 36.8086C123.874 36.627 123.511 36.5361 122.978 36.5361C122.116 36.5361 121.354 36.9668 120.692 37.8281C120.03 38.6836 119.699 39.7969 119.699 41.168C119.699 42.0293 119.907 42.7178 120.323 43.2334C120.745 43.749 121.293 44.0068 121.967 44.0068C122.4 44.0068 122.811 43.9395 123.197 43.8047C123.59 43.6641 123.868 43.5293 124.032 43.4004L124.287 43.1982L124.472 43.4707C124.437 43.5176 124.387 43.582 124.322 43.6641C124.264 43.7402 124.126 43.875 123.909 44.0684C123.692 44.2559 123.47 44.4258 123.241 44.5781C123.013 44.7246 122.717 44.8623 122.354 44.9912C121.996 45.1143 121.639 45.1758 121.281 45.1758C120.355 45.1758 119.611 44.8389 119.049 44.165C118.486 43.4854 118.205 42.5889 118.205 41.4756ZM126.414 45L127.627 37.4414C127.627 37.418 127.63 37.3887 127.636 37.3535C127.642 37.3125 127.645 37.2861 127.645 37.2744C127.645 37.0225 127.56 36.8965 127.39 36.8965C127.22 36.8965 127.026 37.0166 126.81 37.2568C126.599 37.4971 126.426 37.7373 126.291 37.9775L126.098 38.3379L125.808 38.1621C125.831 38.1035 125.863 38.0215 125.904 37.916C125.945 37.8047 126.042 37.6143 126.194 37.3447C126.353 37.0693 126.517 36.832 126.687 36.6328C126.856 36.4277 127.07 36.2432 127.328 36.0791C127.586 35.9092 127.853 35.8242 128.128 35.8242C128.726 35.8242 129.024 36.2021 129.024 36.958C129.024 37.1631 129.013 37.3242 128.989 37.4414L128.576 40.0518H129.314C129.672 40.0518 129.991 39.9082 130.272 39.6211C130.56 39.3281 130.809 38.9766 131.02 38.5664C131.23 38.1504 131.447 37.7344 131.67 37.3184C131.898 36.8965 132.186 36.542 132.531 36.2549C132.883 35.9678 133.281 35.8242 133.727 35.8242C133.873 35.8242 134.014 35.8389 134.148 35.8682C134.289 35.8975 134.395 35.9297 134.465 35.9648L134.57 36L133.867 37.9775H133.542L133.164 36.6328C132.865 36.75 132.572 37.0723 132.285 37.5996C131.998 38.127 131.699 38.6602 131.389 39.1992C131.084 39.7324 130.765 40.0752 130.431 40.2275L130.413 40.3242C131.087 40.4062 131.55 40.585 131.802 40.8604C132.054 41.1357 132.221 41.5547 132.303 42.1172L132.54 43.7432C132.587 43.9834 132.675 44.1035 132.804 44.1035C132.974 44.1035 133.167 43.9834 133.384 43.7432C133.601 43.5029 133.768 43.2627 133.885 43.0225L134.087 42.6621L134.395 42.8379C134.371 42.8965 134.336 42.9814 134.289 43.0928C134.248 43.1982 134.148 43.3887 133.99 43.6641C133.838 43.9336 133.677 44.1709 133.507 44.376C133.343 44.5752 133.132 44.7598 132.874 44.9297C132.616 45.0938 132.35 45.1758 132.074 45.1758C131.582 45.1758 131.28 44.8477 131.169 44.1914L130.914 42.75C130.779 42.0176 130.589 41.5049 130.343 41.2119C130.103 40.9189 129.725 40.7725 129.209 40.7725H128.471L127.803 45H126.414ZM143.412 39.5244C143.412 41.1182 142.917 42.46 141.927 43.5498C140.937 44.6338 139.744 45.1758 138.35 45.1758C137.389 45.1758 136.618 44.8389 136.038 44.165C135.458 43.4854 135.168 42.5889 135.168 41.4756C135.168 39.8818 135.663 38.543 136.653 37.459C137.644 36.3691 138.833 35.8242 140.222 35.8242C141.183 35.8242 141.953 36.1641 142.533 36.8438C143.119 37.5176 143.412 38.4111 143.412 39.5244ZM136.627 41.4756C136.627 42.4248 136.814 43.1602 137.189 43.6816C137.57 44.2031 138.071 44.4639 138.692 44.4639C139.583 44.4639 140.348 44.0156 140.986 43.1191C141.631 42.2227 141.953 41.0244 141.953 39.5244C141.953 38.5752 141.763 37.8398 141.382 37.3184C141.007 36.7969 140.506 36.5361 139.879 36.5361C138.988 36.5361 138.224 36.9844 137.585 37.8809C136.946 38.7773 136.627 39.9756 136.627 41.4756ZM147.552 37.4414L146.849 41.9414C146.79 42.2988 146.761 42.5801 146.761 42.7852C146.761 43.541 147.092 43.9189 147.754 43.9189C148.188 43.9189 148.668 43.7402 149.195 43.3828C149.723 43.0195 150.142 42.6592 150.452 42.3018L150.918 41.7568L151.841 36L153.238 35.8242L152.017 43.5586C152.005 43.6289 151.999 43.6787 151.999 43.708C151.999 43.9717 152.09 44.1035 152.271 44.1035C152.441 44.1035 152.629 43.9834 152.834 43.7432C153.045 43.5029 153.218 43.2627 153.353 43.0225L153.528 42.6621L153.836 42.8379C153.812 42.8965 153.78 42.9814 153.739 43.0928C153.698 43.1982 153.599 43.3887 153.44 43.6641C153.282 43.9336 153.118 44.1709 152.948 44.376C152.784 44.5752 152.573 44.7598 152.315 44.9297C152.058 45.0938 151.791 45.1758 151.516 45.1758C150.906 45.1758 150.599 44.7861 150.593 44.0068C150.593 43.9248 150.607 43.7754 150.637 43.5586L150.742 42.8379H150.672C150.625 42.8965 150.561 42.9814 150.479 43.0928C150.402 43.1982 150.235 43.3887 149.978 43.6641C149.72 43.9336 149.462 44.1709 149.204 44.376C148.946 44.5752 148.636 44.7598 148.272 44.9297C147.915 45.0938 147.566 45.1758 147.227 45.1758C146.002 45.1758 145.393 44.4756 145.398 43.0752C145.398 42.6768 145.428 42.2988 145.486 41.9414L146.189 37.4414C146.189 37.418 146.192 37.3887 146.198 37.3535C146.204 37.3125 146.207 37.2861 146.207 37.2744C146.207 37.0225 146.122 36.8965 145.952 36.8965C145.782 36.8965 145.589 37.0166 145.372 37.2568C145.161 37.4971 144.988 37.7373 144.854 37.9775L144.66 38.3379L144.37 38.1621C144.394 38.1035 144.426 38.0215 144.467 37.916C144.508 37.8047 144.604 37.6143 144.757 37.3447C144.915 37.0693 145.079 36.832 145.249 36.6328C145.419 36.4277 145.633 36.2432 145.891 36.0791C146.148 35.9092 146.415 35.8242 146.69 35.8242C147.288 35.8242 147.587 36.2021 147.587 36.958C147.587 37.1631 147.575 37.3242 147.552 37.4414ZM149.916 34.4707C149.242 34.4707 148.718 34.3008 148.343 33.9609C147.974 33.6152 147.789 33.1787 147.789 32.6514C147.789 32.5576 147.818 32.3232 147.877 31.9482H149.248L149.011 33.4775C149.251 33.7178 149.588 33.8379 150.021 33.8379C150.549 33.8379 150.982 33.6826 151.322 33.3721C151.668 33.0615 151.882 32.748 151.964 32.4316L152.087 31.9482H152.737C152.632 32.6807 152.315 33.2842 151.788 33.7588C151.261 34.2334 150.637 34.4707 149.916 34.4707ZM164.972 44.1914L165.147 43.0225C163.419 42.917 162.112 42.457 161.228 41.6426C160.349 40.8223 159.909 39.7822 159.909 38.5225C159.909 36.7939 160.504 35.3643 161.693 34.2334C162.883 33.0967 164.6 32.4551 166.844 32.3086C166.855 32.2266 166.861 32.1064 166.861 31.9482C166.861 31.6025 166.776 31.3682 166.606 31.2451C166.442 31.1162 166.132 31.0518 165.675 31.0518L165.763 30.5068H169.973L169.902 30.9639L168.461 31.3242L168.303 32.3086C170.031 32.4141 171.335 32.877 172.214 33.6973C173.099 34.5117 173.541 35.5488 173.541 36.8086C173.541 38.5371 172.946 39.9697 171.757 41.1064C170.567 42.2373 168.851 42.876 166.606 43.0225C166.595 43.1279 166.589 43.2773 166.589 43.4707C166.589 43.8691 166.671 44.1357 166.835 44.2705C166.999 44.3994 167.307 44.4639 167.758 44.4639L167.688 45H163.478L163.548 44.5518L164.972 44.1914ZM168.171 33.1172L166.738 42.2139C168.262 42.1201 169.489 41.5869 170.421 40.6143C171.358 39.6357 171.827 38.4229 171.827 36.9756C171.827 35.874 171.505 34.9775 170.86 34.2861C170.222 33.5889 169.325 33.1992 168.171 33.1172ZM165.279 42.2139L166.721 33.1172C165.209 33.2109 163.984 33.7441 163.047 34.7168C162.109 35.6895 161.641 36.9023 161.641 38.3555C161.641 39.457 161.957 40.3564 162.59 41.0537C163.229 41.7451 164.125 42.1318 165.279 42.2139ZM176.09 40.5L176.055 40.7725C176.16 40.7725 176.307 40.7637 176.494 40.7461C176.682 40.7285 177.01 40.667 177.479 40.5615C177.947 40.4502 178.36 40.3008 178.718 40.1133C179.075 39.9258 179.4 39.6357 179.693 39.2432C179.992 38.8447 180.142 38.3818 180.142 37.8545C180.142 37.4561 180.042 37.1367 179.843 36.8965C179.644 36.6562 179.389 36.5361 179.078 36.5361C178.457 36.5361 177.845 36.8906 177.241 37.5996C176.644 38.3086 176.26 39.2754 176.09 40.5ZM176.02 41.4932C176.02 41.5635 176.025 41.6602 176.037 41.7832C176.049 41.9004 176.096 42.1143 176.178 42.4248C176.266 42.7354 176.38 43.0107 176.521 43.251C176.667 43.4912 176.901 43.708 177.224 43.9014C177.546 44.0947 177.924 44.1914 178.357 44.1914C178.633 44.1914 178.899 44.1592 179.157 44.0947C179.415 44.0244 179.632 43.9424 179.808 43.8486C179.983 43.7549 180.139 43.6582 180.273 43.5586C180.414 43.4531 180.514 43.3682 180.572 43.3037L180.678 43.1982L180.897 43.4707C180.862 43.5176 180.81 43.582 180.739 43.6641C180.675 43.7402 180.531 43.875 180.309 44.0684C180.086 44.2559 179.854 44.4258 179.614 44.5781C179.374 44.7246 179.072 44.8623 178.709 44.9912C178.346 45.1143 177.982 45.1758 177.619 45.1758C176.693 45.1758 175.946 44.8389 175.378 44.165C174.81 43.4854 174.525 42.5889 174.525 41.4756C174.525 39.8936 175.012 38.5576 175.984 37.4678C176.957 36.3721 178.079 35.8242 179.351 35.8242C180.024 35.8242 180.543 36.0059 180.906 36.3691C181.27 36.7324 181.451 37.21 181.451 37.8018C181.451 38.4756 181.264 39.0615 180.889 39.5596C180.52 40.0518 180.068 40.415 179.535 40.6494C179.002 40.8838 178.469 41.0742 177.936 41.2207C177.402 41.3613 176.948 41.4463 176.573 41.4756L176.02 41.4932ZM189.256 37.2568C189.35 36.6826 189.396 36.1084 189.396 35.5342C189.396 34.4443 189.191 33.6357 188.781 33.1084C188.377 32.5752 187.826 32.3086 187.129 32.3086C186.842 32.3086 186.528 32.3789 186.188 32.5195C185.854 32.6543 185.591 32.7891 185.397 32.9238L185.134 33.1172L184.826 32.5811C184.908 32.5107 185.031 32.4229 185.195 32.3174C185.359 32.2061 185.664 32.0566 186.109 31.8691C186.561 31.6816 186.991 31.5879 187.401 31.5879C188.362 31.5879 189.145 32.0479 189.748 32.9678C190.352 33.8877 190.653 35.2354 190.653 37.0107C190.653 38.3291 190.51 39.5244 190.223 40.5967C189.936 41.6631 189.552 42.5244 189.071 43.1807C188.591 43.8311 188.058 44.3262 187.472 44.666C186.886 45.0059 186.279 45.1758 185.652 45.1758C184.703 45.1758 183.959 44.8682 183.42 44.2529C182.881 43.6377 182.611 42.7881 182.611 41.7041C182.611 40.1338 183.057 38.8359 183.947 37.8105C184.844 36.7852 185.91 36.2725 187.146 36.2725C187.398 36.2725 187.642 36.3047 187.876 36.3691C188.11 36.4336 188.301 36.5156 188.447 36.6152C188.6 36.709 188.731 36.8086 188.843 36.9141C188.96 37.0137 189.042 37.0928 189.089 37.1514L189.159 37.2568H189.256ZM185.854 44.4639C186.517 44.4639 187.117 44.1211 187.656 43.4355C188.195 42.75 188.57 41.7129 188.781 40.3242L189.036 38.6982C189.024 38.6514 189.004 38.5898 188.975 38.5137C188.945 38.4316 188.869 38.2969 188.746 38.1094C188.629 37.916 188.497 37.7461 188.351 37.5996C188.21 37.4473 188.014 37.3096 187.762 37.1865C187.51 37.0576 187.24 36.9932 186.953 36.9932C186.197 36.9932 185.529 37.4033 184.949 38.2236C184.375 39.0439 184.088 40.1689 184.088 41.5986C184.088 42.501 184.255 43.2041 184.589 43.708C184.929 44.2119 185.351 44.4639 185.854 44.4639ZM193.264 40.5L193.229 40.7725C193.334 40.7725 193.48 40.7637 193.668 40.7461C193.855 40.7285 194.184 40.667 194.652 40.5615C195.121 40.4502 195.534 40.3008 195.892 40.1133C196.249 39.9258 196.574 39.6357 196.867 39.2432C197.166 38.8447 197.315 38.3818 197.315 37.8545C197.315 37.4561 197.216 37.1367 197.017 36.8965C196.817 36.6562 196.562 36.5361 196.252 36.5361C195.631 36.5361 195.019 36.8906 194.415 37.5996C193.817 38.3086 193.434 39.2754 193.264 40.5ZM193.193 41.4932C193.193 41.5635 193.199 41.6602 193.211 41.7832C193.223 41.9004 193.27 42.1143 193.352 42.4248C193.439 42.7354 193.554 43.0107 193.694 43.251C193.841 43.4912 194.075 43.708 194.397 43.9014C194.72 44.0947 195.098 44.1914 195.531 44.1914C195.807 44.1914 196.073 44.1592 196.331 44.0947C196.589 44.0244 196.806 43.9424 196.981 43.8486C197.157 43.7549 197.312 43.6582 197.447 43.5586C197.588 43.4531 197.688 43.3682 197.746 43.3037L197.852 43.1982L198.071 43.4707C198.036 43.5176 197.983 43.582 197.913 43.6641C197.849 43.7402 197.705 43.875 197.482 44.0684C197.26 44.2559 197.028 44.4258 196.788 44.5781C196.548 44.7246 196.246 44.8623 195.883 44.9912C195.52 45.1143 195.156 45.1758 194.793 45.1758C193.867 45.1758 193.12 44.8389 192.552 44.165C191.983 43.4854 191.699 42.5889 191.699 41.4756C191.699 39.8936 192.186 38.5576 193.158 37.4678C194.131 36.3721 195.253 35.8242 196.524 35.8242C197.198 35.8242 197.717 36.0059 198.08 36.3691C198.443 36.7324 198.625 37.21 198.625 37.8018C198.625 38.4756 198.438 39.0615 198.062 39.5596C197.693 40.0518 197.242 40.415 196.709 40.6494C196.176 40.8838 195.643 41.0742 195.109 41.2207C194.576 41.3613 194.122 41.4463 193.747 41.4756L193.193 41.4932ZM199.495 48.4189L201.244 37.4414C201.244 37.418 201.247 37.3887 201.253 37.3535C201.259 37.3125 201.262 37.2861 201.262 37.2744C201.262 37.0225 201.177 36.8965 201.007 36.8965C200.843 36.8965 200.652 37.0166 200.436 37.2568C200.219 37.4971 200.043 37.7373 199.908 37.9775L199.715 38.3379L199.425 38.1621C199.448 38.1035 199.48 38.0215 199.521 37.916C199.562 37.8047 199.659 37.6143 199.812 37.3447C199.964 37.0693 200.122 36.832 200.286 36.6328C200.456 36.4277 200.67 36.2432 200.928 36.0791C201.186 35.9092 201.452 35.8242 201.728 35.8242C202.337 35.8242 202.645 36.2139 202.65 36.9932C202.65 37.0752 202.639 37.2246 202.615 37.4414L202.501 38.1621H202.589C202.636 38.1035 202.697 38.0215 202.773 37.916C202.855 37.8047 203.025 37.6143 203.283 37.3447C203.541 37.0693 203.799 36.832 204.057 36.6328C204.314 36.4277 204.622 36.2432 204.979 36.0791C205.343 35.9092 205.694 35.8242 206.034 35.8242C206.673 35.8242 207.177 36.0762 207.546 36.5801C207.915 37.084 208.1 37.8135 208.1 38.7686C208.1 40.626 207.587 42.1582 206.562 43.3652C205.536 44.5723 204.326 45.1758 202.932 45.1758C202.645 45.1758 202.378 45.1406 202.132 45.0703C201.886 45 201.71 44.9297 201.604 44.8594L201.455 44.7275L201.042 47.3379C201.007 47.543 200.989 47.7188 200.989 47.8652C200.989 48.1875 201.098 48.4043 201.314 48.5156C201.531 48.6328 201.938 48.6914 202.536 48.6914L202.466 49.1396H198.256L198.326 48.6914L199.495 48.4189ZM203.046 44.4639C203.937 44.4639 204.754 43.96 205.498 42.9521C206.248 41.9385 206.623 40.6055 206.623 38.9531C206.623 37.7051 206.251 37.0811 205.507 37.0811C205.231 37.0811 204.936 37.1572 204.619 37.3096C204.303 37.4561 204.016 37.6348 203.758 37.8457C203.5 38.0566 203.26 38.2676 203.037 38.4785C202.814 38.6836 202.636 38.8652 202.501 39.0234L202.325 39.2432L201.622 43.7432C201.657 43.79 201.707 43.8574 201.771 43.9453C201.842 44.0273 202 44.1357 202.246 44.2705C202.492 44.3994 202.759 44.4639 203.046 44.4639ZM211.976 43.9189C212.362 43.9189 212.79 43.7402 213.259 43.3828C213.733 43.0195 214.108 42.6592 214.384 42.3018L214.814 41.7568L215.535 37.2568C215.512 37.21 215.477 37.1455 215.43 37.0635C215.383 36.9756 215.251 36.8672 215.034 36.7383C214.817 36.6035 214.565 36.5361 214.278 36.5361C213.464 36.5361 212.69 37.0459 211.958 38.0654C211.226 39.0791 210.859 40.4121 210.859 42.0645C210.859 42.7383 210.956 43.2158 211.149 43.4971C211.343 43.7783 211.618 43.9189 211.976 43.9189ZM211.448 45.1758C210.81 45.1758 210.306 44.9238 209.937 44.4199C209.567 43.916 209.383 43.1865 209.383 42.2314C209.383 40.3857 209.887 38.8564 210.895 37.6436C211.902 36.4307 213.065 35.8242 214.384 35.8242C214.718 35.8242 215.022 35.8535 215.298 35.9121C215.579 35.9707 215.767 36.0293 215.86 36.0879L216.019 36.1758L217.047 35.8242H217.135L215.913 43.5586C215.913 43.582 215.91 43.6143 215.904 43.6553C215.898 43.6904 215.896 43.7139 215.896 43.7256C215.896 43.9775 215.978 44.1035 216.142 44.1035C216.312 44.1035 216.502 43.9834 216.713 43.7432C216.924 43.5029 217.097 43.2627 217.231 43.0225L217.425 42.6621L217.732 42.8379C217.709 42.8965 217.677 42.9814 217.636 43.0928C217.595 43.1982 217.495 43.3887 217.337 43.6641C217.179 43.9336 217.015 44.1709 216.845 44.376C216.681 44.5752 216.47 44.7598 216.212 44.9297C215.954 45.0938 215.688 45.1758 215.412 45.1758C214.803 45.1758 214.495 44.7861 214.489 44.0068C214.489 43.9248 214.501 43.7754 214.524 43.5586L214.639 42.8379H214.568C214.533 42.8965 214.475 42.9814 214.393 43.0928C214.316 43.1982 214.164 43.3887 213.936 43.6641C213.707 43.9336 213.476 44.1709 213.241 44.376C213.007 44.5752 212.723 44.7598 212.389 44.9297C212.061 45.0938 211.747 45.1758 211.448 45.1758ZM225.484 45.1758C224.875 45.1758 224.567 44.7861 224.562 44.0068C224.562 43.9248 224.576 43.7754 224.605 43.5586L224.711 42.8379H224.641C224.594 42.8965 224.529 42.9814 224.447 43.0928C224.371 43.1982 224.204 43.3887 223.946 43.6641C223.688 43.9336 223.431 44.1709 223.173 44.376C222.915 44.5752 222.604 44.7598 222.241 44.9297C221.884 45.0938 221.535 45.1758 221.195 45.1758C219.971 45.1758 219.361 44.4756 219.367 43.0752C219.367 42.6768 219.396 42.2988 219.455 41.9414L220.158 37.4414C220.158 37.418 220.161 37.3887 220.167 37.3535C220.173 37.3125 220.176 37.2861 220.176 37.2744C220.176 37.0225 220.091 36.8965 219.921 36.8965C219.751 36.8965 219.558 37.0166 219.341 37.2568C219.13 37.4971 218.957 37.7373 218.822 37.9775L218.629 38.3379L218.339 38.1621C218.362 38.1035 218.395 38.0215 218.436 37.916C218.477 37.8047 218.573 37.6143 218.726 37.3447C218.884 37.0693 219.048 36.832 219.218 36.6328C219.388 36.4277 219.602 36.2432 219.859 36.0791C220.117 35.9092 220.384 35.8242 220.659 35.8242C221.257 35.8242 221.556 36.2021 221.556 36.958C221.556 37.1631 221.544 37.3242 221.521 37.4414L220.817 41.9414C220.771 42.2285 220.747 42.5039 220.747 42.7676C220.747 43.1895 220.829 43.4883 220.993 43.6641C221.157 43.834 221.4 43.9189 221.723 43.9189C222.156 43.9189 222.637 43.7402 223.164 43.3828C223.691 43.0195 224.11 42.6592 224.421 42.3018L224.887 41.7568L225.81 36L227.207 35.8242L225.985 43.5586C225.974 43.6289 225.968 43.6787 225.968 43.708C225.968 43.9717 226.059 44.1035 226.24 44.1035C226.41 44.1035 226.598 43.9834 226.803 43.7432C227.014 43.5029 227.187 43.2627 227.321 43.0225L227.497 42.6621L227.805 42.8379C227.459 43.8926 227.286 44.6982 227.286 45.2549C227.286 45.4248 227.301 45.6445 227.33 45.9141C227.359 46.1836 227.374 46.377 227.374 46.4941C227.374 46.8047 227.304 47.1006 227.163 47.3818C227.028 47.6631 226.861 47.8975 226.662 48.085C226.463 48.2725 226.264 48.4336 226.064 48.5684C225.871 48.709 225.701 48.8086 225.555 48.8672L225.361 48.9639L225.142 48.6914C225.177 48.668 225.221 48.6357 225.273 48.5947C225.332 48.5596 225.429 48.4775 225.563 48.3486C225.704 48.2256 225.827 48.0908 225.933 47.9443C226.044 47.8037 226.141 47.6162 226.223 47.3818C226.305 47.1475 226.346 46.9102 226.346 46.6699V46.1514C226.346 45.8525 226.39 45.5684 226.478 45.2988C226.571 45.0293 226.659 44.833 226.741 44.71L226.891 44.5342L226.829 44.4639C226.472 44.9385 226.023 45.1758 225.484 45.1758ZM231.698 37.4414L230.995 41.9414C230.937 42.2988 230.907 42.5801 230.907 42.7852C230.907 43.541 231.238 43.9189 231.9 43.9189C232.334 43.9189 232.814 43.7402 233.342 43.3828C233.869 43.0195 234.288 42.6592 234.599 42.3018L235.064 41.7568L235.987 36L237.385 35.8242L236.163 43.5586C236.151 43.6289 236.146 43.6787 236.146 43.708C236.146 43.9717 236.236 44.1035 236.418 44.1035C236.588 44.1035 236.775 43.9834 236.98 43.7432C237.191 43.5029 237.364 43.2627 237.499 43.0225L237.675 42.6621L237.982 42.8379C237.959 42.8965 237.927 42.9814 237.886 43.0928C237.845 43.1982 237.745 43.3887 237.587 43.6641C237.429 43.9336 237.265 44.1709 237.095 44.376C236.931 44.5752 236.72 44.7598 236.462 44.9297C236.204 45.0938 235.938 45.1758 235.662 45.1758C235.053 45.1758 234.745 44.7861 234.739 44.0068C234.739 43.9248 234.754 43.7754 234.783 43.5586L234.889 42.8379H234.818C234.771 42.8965 234.707 42.9814 234.625 43.0928C234.549 43.1982 234.382 43.3887 234.124 43.6641C233.866 43.9336 233.608 44.1709 233.351 44.376C233.093 44.5752 232.782 44.7598 232.419 44.9297C232.062 45.0938 231.713 45.1758 231.373 45.1758C230.148 45.1758 229.539 44.4756 229.545 43.0752C229.545 42.6768 229.574 42.2988 229.633 41.9414L230.336 37.4414C230.336 37.418 230.339 37.3887 230.345 37.3535C230.351 37.3125 230.354 37.2861 230.354 37.2744C230.354 37.0225 230.269 36.8965 230.099 36.8965C229.929 36.8965 229.735 37.0166 229.519 37.2568C229.308 37.4971 229.135 37.7373 229 37.9775L228.807 38.3379L228.517 38.1621C228.54 38.1035 228.572 38.0215 228.613 37.916C228.654 37.8047 228.751 37.6143 228.903 37.3447C229.062 37.0693 229.226 36.832 229.396 36.6328C229.565 36.4277 229.779 36.2432 230.037 36.0791C230.295 35.9092 230.562 35.8242 230.837 35.8242C231.435 35.8242 231.733 36.2021 231.733 36.958C231.733 37.1631 231.722 37.3242 231.698 37.4414ZM241.771 37.4414L241.067 41.9414C241.009 42.2988 240.979 42.5801 240.979 42.7852C240.979 43.541 241.311 43.9189 241.973 43.9189C242.406 43.9189 242.887 43.7402 243.414 43.3828C243.941 43.0195 244.36 42.6592 244.671 42.3018L245.137 41.7568L246.06 36L247.457 35.8242L246.235 43.5586C246.224 43.6289 246.218 43.6787 246.218 43.708C246.218 43.9717 246.309 44.1035 246.49 44.1035C246.66 44.1035 246.848 43.9834 247.053 43.7432C247.264 43.5029 247.437 43.2627 247.571 43.0225L247.747 42.6621L248.055 42.8379C248.031 42.8965 247.999 42.9814 247.958 43.0928C247.917 43.1982 247.817 43.3887 247.659 43.6641C247.501 43.9336 247.337 44.1709 247.167 44.376C247.003 44.5752 246.792 44.7598 246.534 44.9297C246.276 45.0938 246.01 45.1758 245.734 45.1758C245.125 45.1758 244.817 44.7861 244.812 44.0068C244.812 43.9248 244.826 43.7754 244.855 43.5586L244.961 42.8379H244.891C244.844 42.8965 244.779 42.9814 244.697 43.0928C244.621 43.1982 244.454 43.3887 244.196 43.6641C243.938 43.9336 243.681 44.1709 243.423 44.376C243.165 44.5752 242.854 44.7598 242.491 44.9297C242.134 45.0938 241.785 45.1758 241.445 45.1758C240.221 45.1758 239.611 44.4756 239.617 43.0752C239.617 42.6768 239.646 42.2988 239.705 41.9414L240.408 37.4414C240.408 37.418 240.411 37.3887 240.417 37.3535C240.423 37.3125 240.426 37.2861 240.426 37.2744C240.426 37.0225 240.341 36.8965 240.171 36.8965C240.001 36.8965 239.808 37.0166 239.591 37.2568C239.38 37.4971 239.207 37.7373 239.072 37.9775L238.879 38.3379L238.589 38.1621C238.612 38.1035 238.645 38.0215 238.686 37.916C238.727 37.8047 238.823 37.6143 238.976 37.3447C239.134 37.0693 239.298 36.832 239.468 36.6328C239.638 36.4277 239.852 36.2432 240.109 36.0791C240.367 35.9092 240.634 35.8242 240.909 35.8242C241.507 35.8242 241.806 36.2021 241.806 36.958C241.806 37.1631 241.794 37.3242 241.771 37.4414Z" fill="white"/>
<path d="M23.2576 31.8256C23.4177 31.8256 23.5741 31.8744 23.7072 31.9659C23.8403 32.0575 23.944 32.1875 24.0053 32.3397C24.0666 32.4919 24.0826 32.6594 24.0514 32.8209C24.0201 32.9825 23.943 33.1309 23.8299 33.2473C23.7167 33.3638 23.5725 33.4431 23.4155 33.4753C23.2585 33.5074 23.0958 33.4909 22.9479 33.4279C22.8 33.3648 22.6736 33.2581 22.5847 33.1211C22.4957 32.9842 22.4483 32.8232 22.4483 32.6584C22.4489 32.4377 22.5343 32.2263 22.686 32.0702C22.8376 31.9142 23.0431 31.8262 23.2576 31.8256ZM27.3952 31.5856C27.3805 31.4842 27.3388 31.389 27.2745 31.3106C27.2103 31.2323 27.1261 31.1739 27.0314 31.142C26.9368 31.1101 26.8353 31.106 26.7385 31.1301C26.6417 31.1541 26.5533 31.2055 26.4832 31.2784L25.2797 32.5144C25.2098 32.5869 25.1606 32.6778 25.1377 32.7772C25.1148 32.8766 25.119 32.9806 25.1499 33.0777C25.1808 33.1747 25.2371 33.2612 25.3127 33.3274C25.3883 33.3936 25.4802 33.437 25.5783 33.4529L26.3013 33.5705L26.25 33.2369L27.3602 33.4169L27.1852 32.2768L27.5071 32.3296L27.3952 31.5856ZM19.1084 26.7853C19.1194 26.8886 19.1584 26.9867 19.221 27.0682C19.2836 27.1498 19.3672 27.2116 19.4623 27.2467C19.5573 27.2817 19.6601 27.2885 19.7587 27.2664C19.8574 27.2442 19.948 27.194 20.0203 27.1214L21.2238 25.8733C21.2939 25.8011 21.3432 25.7103 21.3662 25.611C21.3893 25.5117 21.3851 25.4078 21.3541 25.3108C21.3232 25.2138 21.2667 25.1276 21.191 25.0616C21.1153 24.9957 21.0233 24.9526 20.9252 24.9372L20.2022 24.8196L20.2512 25.1533L19.1433 24.9732L19.3183 26.1133L18.9941 26.0605L19.1084 26.7853ZM26.4529 30.9087L24.1695 29.3511C24.9969 28.5876 25.9052 27.9226 26.8774 27.3686C26.3958 27.2509 25.9683 26.9661 25.6669 26.5621C25.6669 26.5621 24.3724 28.2422 23.4465 28.7942C24.7386 27.4046 25.3264 26.2477 25.5666 26.0053C25.8861 25.6813 26.5508 26.0629 26.6045 26.4157C26.2243 26.3005 26.089 26.5093 26.3083 26.7277C26.6208 27.0446 27.1596 27.2534 27.4021 27.0085C27.6447 26.7637 27.4651 26.0125 26.896 25.4389C26.3269 24.8652 25.6296 24.6348 25.338 24.9276C25.0465 25.2205 24.4844 26.5837 23.0383 28.1606L21.8232 26.2741L20.0576 27.4718L22.2477 28.967C21.2652 29.7941 20.1687 30.4663 18.9941 30.9615C19.3324 31.1398 19.6575 31.3435 19.9667 31.5712C20.9753 30.9048 21.9449 30.1779 22.8704 29.3943C22.1707 30.4455 20.5381 31.6408 19.8804 32.1472C19.5795 32.3704 19.6471 32.8816 20.0156 33.2609C20.3841 33.6401 20.8063 33.6737 21.0698 33.4097C21.3894 33.0881 21.9771 31.708 23.4022 30.1359L24.671 32.1016L26.4529 30.9087ZM14.6932 16.0976C15.4116 15.4376 16.4518 15.4376 17.0536 15.644C16.6191 15.1986 16.0824 14.8733 15.4932 14.6983C15.2635 14.8516 15.0715 15.0579 14.9327 15.3008C14.7938 15.5436 14.7118 15.8165 14.6932 16.0976ZM17.7603 36.6762C17.5737 36.5922 17.2938 36.4146 17.1072 35.7882C16.7984 35.7393 16.5065 35.6114 16.2582 35.4162C15.7918 34.9361 16.025 34.3841 16.1463 33.9761C15.6402 33.3545 15.7475 32.8048 16.0833 32.4592C16.3362 32.2438 16.6278 32.0818 16.9416 31.9825C17.2554 31.8833 17.5851 31.8487 17.9119 31.8808V30.6975C16.804 30.3423 15.7125 30.4407 14.8588 31.3312C13.9026 32.3272 13.6717 33.1361 12.4612 33.6233C12.9277 34.4417 13.751 34.4897 14.4507 34.4681C14.3036 35.0375 13.955 35.5297 13.4734 35.8482C13.9399 36.3282 14.7865 36.5034 15.5329 36.3042C15.5127 36.7718 15.4017 37.2304 15.2064 37.6531C15.6777 37.7799 16.1755 37.7542 16.6321 37.5794C17.0886 37.4046 17.4818 37.0892 17.7579 36.6762H17.7603ZM13.1306 31.2472C13.8093 30.4647 14.2967 28.9814 14.5696 27.2534C15.5725 27.2534 17.1352 27.7718 17.9095 28.9838V24.6804C16.9753 24.9209 16.0062 24.9835 15.0501 24.8652C13.4618 24.6252 12.5708 23.4252 12.5708 21.9851C12.5744 21.5886 12.6579 21.1973 12.816 20.8358C12.9742 20.4743 13.2036 20.1505 13.4898 19.885C13.5202 19.863 13.5443 19.833 13.5596 19.7982C13.5749 19.7634 13.5808 19.7249 13.5768 19.6869C13.5727 19.6489 13.5588 19.6127 13.5365 19.5821C13.5143 19.5515 13.4844 19.5277 13.4501 19.513C13.3708 19.4722 13.3288 19.4314 13.2495 19.3906C8.28864 16.1792 3.80822 8.68603 3.32776 7.86999C3.3208 7.86055 3.31181 7.85288 3.30149 7.84761C3.29117 7.84233 3.27981 7.83959 3.26828 7.83959C3.25676 7.83959 3.2454 7.84233 3.23508 7.84761C3.22476 7.85288 3.21577 7.86055 3.20881 7.86999C1.68813 9.22846 1.52719 11.9502 3.12951 14.0455C4.16973 15.4448 6.40878 16.9688 8.6898 18.2865C8.65015 18.5265 8.65015 18.7809 8.60817 19.0282C3.96449 18.0009 0.967433 14.6551 0.486971 14.1199C0.480011 14.1105 0.471019 14.1028 0.460701 14.0975C0.450383 14.0922 0.439018 14.0895 0.427497 14.0895C0.415975 14.0895 0.40461 14.0922 0.394292 14.0975C0.383974 14.1028 0.374982 14.1105 0.368022 14.1199C-0.511269 15.8504 0.249073 18.2001 1.96801 19.1842C3.44904 20.0482 5.80937 20.5426 8.73178 20.9146C8.77143 21.1187 8.81108 21.3251 8.85073 21.5723C6.01148 21.9567 3.12457 21.4996 0.528953 20.2546C0.486971 20.2138 0.447321 20.2546 0.407672 20.2954C0.207091 22.1483 1.32895 23.6316 3.28811 24.0012C5.2496 24.2892 9.41049 23.2596 9.41049 23.2596C9.48632 23.46 9.58002 23.6529 9.69038 23.8356C6.96854 25.4413 3.08753 25.2757 2.52777 25.2373C2.50727 25.2389 2.48802 25.248 2.47348 25.263C2.45894 25.278 2.45007 25.2978 2.44847 25.3189C2.48812 27.2534 4.32833 27.7886 5.96796 27.5822C7.36737 27.3782 9.32886 26.4301 10.6886 25.3597C10.8255 25.5209 10.9727 25.6725 11.1294 25.8133C9.80933 28.0358 6.72831 28.9334 5.68808 29.0247C5.64843 29.0247 5.60878 29.0655 5.64843 29.1063C6.32948 30.3063 7.80818 30.6711 9.45014 29.8887C10.4087 29.3943 11.6099 28.1582 12.4495 26.7685L13.0489 27.0085C12.5288 29.6847 9.97026 31.2904 9.52944 31.5376C9.48979 31.5376 9.48979 31.6192 9.52944 31.6192C10.2898 32.4808 12.0507 32.524 13.1306 31.2472ZM17.2588 5.72189L16.4588 4.73544L15.6495 5.72189L16.4495 6.72034L17.2588 5.72189ZM8.13004 11.7342C8.56852 11.403 10.1289 10.4981 9.73003 12.2142C9.91921 12.1524 10.0856 12.0327 10.2069 11.871C10.3281 11.7093 10.3986 11.5134 10.4087 11.3094C10.4087 10.1981 8.93003 9.70368 8.93003 8.63323C8.93003 7.06835 11.3697 7.06835 11.2904 7.31557C10.8495 8.71484 11.6892 10.4861 14.0099 10.5677V10.2509C12.0507 10.2509 11.1691 8.11001 12.6898 6.62913C11.8501 3.989 10.6093 6.62913 9.56909 7.32757C8.96968 7.69958 7.33005 7.49317 7.20877 8.23481C7.05017 9.38687 8.96968 9.34607 8.13004 11.7342ZM29.4523 15.644C29.8513 15.5117 30.2761 15.4839 30.6883 15.5631C31.1004 15.6423 31.4868 15.826 31.8126 16.0976C31.7948 15.8171 31.7139 15.5447 31.5763 15.3019C31.4386 15.059 31.2481 14.8524 31.0196 14.6983C30.4279 14.8722 29.8887 15.1975 29.4523 15.644ZM31.647 31.3312C30.791 30.4407 29.7018 30.3423 28.5916 30.6975V31.8832C29.2523 31.8188 29.9108 32.0269 30.4225 32.4616C30.7561 32.8072 30.8633 33.3569 30.3596 33.9785C30.4738 34.3841 30.7047 34.9385 30.2453 35.4186C29.9974 35.6145 29.7053 35.7425 29.3963 35.7906C29.2097 36.417 28.9298 36.5946 28.7456 36.6786C29.0219 37.0921 29.4154 37.4077 29.8725 37.5825C30.3295 37.7574 30.8278 37.7828 31.2995 37.6555C31.1041 37.2328 30.9931 36.7742 30.973 36.3066C31.7193 36.5058 32.5683 36.3282 33.0324 35.8506C32.55 35.533 32.2012 35.0404 32.0552 34.4705C32.7549 34.4921 33.5852 34.4441 34.0446 33.6257C32.8342 33.1361 32.6009 32.3272 31.647 31.3312ZM45.9746 20.2546C43.3789 21.4993 40.492 21.9564 37.6528 21.5723C37.6924 21.3323 37.7344 21.1187 37.7741 20.9146C40.6941 20.5426 43.0545 20.0482 44.5378 19.1842C46.2568 18.1953 47.0171 15.8504 46.1378 14.1199C46.1306 14.1104 46.1214 14.1028 46.1109 14.0975C46.1004 14.0922 46.0889 14.0895 46.0772 14.0895C46.0655 14.0895 46.054 14.0922 46.0434 14.0975C46.0329 14.1028 46.0237 14.1104 46.0165 14.1199C45.5361 14.6551 42.5367 17.9913 37.8953 19.021C37.8557 18.7809 37.8557 18.5265 37.816 18.2793C40.0971 16.9616 42.3361 15.4376 43.3763 14.0383C44.9763 11.9382 44.8177 9.22126 43.297 7.86279C43.2898 7.85331 43.2806 7.84565 43.2701 7.84038C43.2596 7.8351 43.2481 7.83237 43.2364 7.83237C43.2247 7.83237 43.2132 7.8351 43.2027 7.84038C43.1921 7.84565 43.1829 7.85331 43.1757 7.86279C42.6976 8.68603 38.2149 16.1792 33.254 19.3834C33.1747 19.4242 33.135 19.465 33.0557 19.5058C33.0214 19.5205 32.9916 19.5443 32.9693 19.5749C32.947 19.6055 32.9331 19.6417 32.9291 19.6797C32.925 19.7177 32.931 19.7562 32.9463 19.791C32.9616 19.8258 32.9857 19.8558 33.0161 19.8778C33.3022 20.1433 33.5316 20.4671 33.6898 20.8286C33.848 21.1901 33.9315 21.5814 33.935 21.9779C33.935 23.418 33.0441 24.618 31.4557 24.858C30.4988 24.9763 29.529 24.9137 28.594 24.6732V28.9766C29.38 27.7646 30.9263 27.2462 31.9339 27.2462C32.2161 28.9742 32.6942 30.4575 33.3753 31.24C34.4551 32.5168 36.216 32.4736 36.9764 31.6096C37.016 31.6096 37.016 31.528 36.9764 31.528C36.5356 31.288 33.9747 29.6751 33.4546 26.9989L34.0563 26.7589C34.896 28.1582 36.0948 29.3991 37.0557 29.8791C38.6883 30.6615 40.1764 30.2895 40.8551 29.0967C40.8971 29.0559 40.8551 29.015 40.8154 29.015C39.7752 28.931 36.6965 28.0262 35.3764 25.8037C35.5324 25.6629 35.6789 25.5113 35.8149 25.3501C37.1746 26.4205 39.1361 27.3686 40.5355 27.5726C42.1682 27.779 44.0177 27.2438 44.0574 25.3093C44.0557 25.2878 44.0465 25.2677 44.0315 25.2527C44.0165 25.2376 43.9967 25.2288 43.9757 25.2277C43.416 25.2685 39.5443 25.4317 36.8155 23.826C36.9258 23.6433 37.0195 23.4504 37.0953 23.25C37.0953 23.25 41.2562 24.2796 43.2177 23.9916C45.1769 23.622 46.2964 22.1387 46.0958 20.2858C46.0539 20.2546 46.0142 20.2138 45.9746 20.2546ZM30.8517 5.72189L30.0517 4.73544L29.2517 5.72189L30.0517 6.72034L30.8517 5.72189ZM35.2178 7.32757C35.1385 7.08755 37.5781 7.08755 37.5781 8.64523C37.5781 9.71569 36.0971 10.2101 36.0971 11.3214C36.1074 11.5257 36.1782 11.7218 36.2999 11.8835C36.4217 12.0453 36.5885 12.1648 36.7781 12.2262C36.377 10.4981 37.9443 11.403 38.3781 11.7462C37.5385 9.34607 39.458 9.39887 39.2994 8.24681C39.1781 7.50518 37.5385 7.71159 36.9391 7.33957C35.8989 6.64113 34.6581 4.0058 33.8184 6.64113C35.3368 8.12201 34.4575 10.2629 32.4983 10.2629V10.5917C34.812 10.4981 35.654 8.72684 35.2178 7.32757ZM14.9708 10.6637H17.9702C20.4914 10.6637 21.611 9.05805 21.9701 7.69958H24.5357C24.8972 9.05805 26.0167 10.6637 28.5357 10.6637H31.5327C31.7914 10.2997 32.0192 9.91342 32.2138 9.50927C32.6802 8.23481 32.0925 7.61558 31.2132 7.61558L30.047 8.68603L28.8482 7.65638C27.9666 7.65638 27.3672 8.23481 27.8476 9.55008C27.9269 9.71569 28.0809 9.9629 28.2068 10.1693C27.1269 10.0037 25.7672 9.26206 25.4873 7.65638C25.8581 7.07577 26.1923 6.47131 26.4879 5.84669C27.2062 3.9938 26.2873 3.20656 24.9672 3.20656L23.2506 5.28026L21.5317 3.22096C20.2115 3.22096 19.2903 4.0034 20.011 5.86109C20.3066 6.48571 20.6408 7.09018 21.0115 7.67078C20.7317 9.27646 19.3789 10.0181 18.2897 10.1837C18.411 9.9773 18.5696 9.73009 18.6512 9.56448C19.1317 8.24921 18.5299 7.67078 17.6506 7.67078L16.4495 8.70043L15.2833 7.62998C14.404 7.62998 13.8023 8.24921 14.2827 9.52368C14.4802 9.92312 14.7104 10.3045 14.9708 10.6637ZM24.3724 1.39927L23.2506 0L22.1311 1.39927L23.2506 2.88014L24.3724 1.39927ZM32.5729 14.1607C32.8197 14.1815 33.0558 14.2736 33.2539 14.4265C33.452 14.5794 33.604 14.7868 33.6925 15.0247C33.9723 14.7847 34.2522 13.9543 34.1333 13.3783C33.6528 10.7381 27.731 12.471 24.7316 11.3598C24.6523 12.1014 25.6506 13.3351 26.5718 13.7887C24.9719 15.2288 23.5398 18.1089 23.2506 21.6107C22.9707 18.1113 21.5317 15.2288 19.9317 13.7887C20.8506 13.3351 21.8512 12.1086 21.7719 11.3598C18.7702 12.4806 12.8507 10.7453 12.3609 13.3807C12.2396 13.9567 12.5195 14.7799 12.8017 15.0272C12.8902 14.7892 13.0422 14.5818 13.2403 14.4289C13.4384 14.276 13.6744 14.1839 13.9212 14.1631C16.9533 13.6831 19.6588 17.0745 19.6588 19.9858C19.6756 20.7422 19.5262 21.4927 19.2217 22.1814C18.9172 22.87 18.4654 23.479 17.9002 23.9628L23.2413 22.6163L28.5823 23.9628C28.0175 23.4787 27.5662 22.8697 27.2621 22.181C26.958 21.4924 26.809 20.742 26.8261 19.9858C26.8354 17.0745 29.5386 13.6807 32.5729 14.1607ZM24.5707 38.5339C25.0908 37.0507 25.7509 35.5218 26.875 35.5218C27.4255 35.5218 27.9153 36.0642 28.2744 36.1242C28.3495 36.1413 28.4279 36.1341 28.4989 36.1036C28.5699 36.0731 28.63 36.0208 28.6709 35.9538C28.7982 35.7339 28.8778 35.4883 28.9042 35.2338C29.1809 35.2108 29.4533 35.1486 29.7135 35.049C29.7849 35.0229 29.845 34.9718 29.8834 34.9047C29.9218 34.8375 29.936 34.7586 29.9234 34.6817C29.8805 34.3917 29.789 34.1115 29.6529 33.8537C29.8278 33.7004 29.9714 33.5127 30.075 33.3017C30.108 33.2311 30.1167 33.1512 30.0997 33.0749C30.0828 32.9986 30.0412 32.9304 29.9817 32.8816C29.5883 32.5937 29.1071 32.4616 28.6266 32.5096H28.6056V33.3617C28.6171 33.5557 28.5891 33.7501 28.5233 33.9324C28.4576 34.1147 28.3556 34.2809 28.2239 34.4203C28.0921 34.5597 27.9336 34.6692 27.7584 34.7419C27.5831 34.8146 27.3951 34.8489 27.2062 34.8425H25.6389C25.1704 34.8315 24.7067 34.9422 24.2909 35.1646C23.875 35.3869 23.5204 35.7137 23.2599 36.1146C22.9999 35.7137 22.6458 35.3869 22.2303 35.1646C21.8148 34.9422 21.3515 34.8314 20.8833 34.8425H19.3066C19.1179 34.8485 18.93 34.814 18.7549 34.7412C18.5798 34.6683 18.4214 34.5588 18.2898 34.4195C18.1581 34.2801 18.0561 34.1141 17.9902 33.932C17.9244 33.7499 17.8961 33.5557 17.9072 33.3617V32.5192H17.8885C17.4093 32.4693 16.9284 32.5979 16.5335 32.8816C16.4744 32.9308 16.4332 32.999 16.4167 33.0753C16.4002 33.1516 16.4093 33.2314 16.4425 33.3017C16.5454 33.5132 16.689 33.701 16.8646 33.8537C16.7285 34.1115 16.637 34.3917 16.5941 34.6817C16.5815 34.7586 16.5957 34.8375 16.6341 34.9047C16.6725 34.9718 16.7326 35.0229 16.804 35.049C17.0642 35.1488 17.3365 35.211 17.6133 35.2338C17.6397 35.4883 17.7193 35.7339 17.8466 35.9538C17.8875 36.0208 17.9476 36.0731 18.0186 36.1036C18.0896 36.1341 18.168 36.1413 18.2431 36.1242C18.5999 36.0642 19.0874 35.5218 19.6425 35.5218C20.7666 35.5218 21.4244 37.0507 21.9445 38.5339C19.3789 39.1508 16.1836 40.922 15.5445 42.8541C15.3113 43.5958 16.1043 44.5822 17.1049 44.7886C17.1445 44.7886 17.1842 44.7886 17.1842 44.7478C17.7043 41.9061 20.706 39.7652 22.2663 39.3956C22.3456 39.602 22.306 39.5612 22.3853 39.7652C20.706 40.5908 19.064 42.3189 18.5836 44.3782C18.3853 45.3239 19.3859 46.1879 20.2162 46.3943C20.2559 46.3943 20.2955 46.3943 20.2955 46.3535C20.4564 43.759 21.576 41.5365 22.5765 40.5068C22.6162 40.7132 22.6162 40.9196 22.6558 41.0829C22.6558 41.0829 21.6156 44.047 21.6156 46.1879C21.6156 47.1768 23.057 47.868 23.2483 48C23.4488 47.8776 24.8809 47.1768 24.8809 46.1879C24.8809 44.047 23.8407 41.0829 23.8407 41.0829C23.8803 40.9196 23.8803 40.7132 23.92 40.5068C24.9205 41.5365 26.0401 43.759 26.201 46.3535C26.201 46.3943 26.2406 46.3943 26.2803 46.3943C27.1199 46.1879 28.1205 45.3239 27.9129 44.3782C27.4325 42.3189 25.7928 40.5908 24.1136 39.7652C24.1929 39.5612 24.1532 39.602 24.2325 39.3956C25.7928 39.7652 28.7946 41.9061 29.3147 44.7478C29.3147 44.7886 29.3543 44.7886 29.394 44.7886C30.3945 44.5822 31.1945 43.5886 30.9543 42.8541C30.3316 40.922 27.1316 39.1508 24.5707 38.5339Z" fill="white"/>
</svg>
