<?xml version="1.0" encoding="utf-8"?>
<!-- Generator: Adobe Illustrator 23.0.1, SVG Export Plug-In . SVG Version: 6.00 Build 0)  -->
<svg version="1.1" id="Layer_1" xmlns="http://www.w3.org/2000/svg" xmlns:xlink="http://www.w3.org/1999/xlink" x="0px" y="0px"
	 viewBox="0 0 235 66" style="enable-background:new 0 0 235 66;" xml:space="preserve">
<style type="text/css">
	.st0{fill:#FFFFFF;}
</style>
<g>
	<path class="st0" d="M72.9,24.5h-1.2v-7.6H73l2.6,3.4l2.5-3.4h1.2v7.6H78v-5.8l-2.2,2.9h-0.7l-2.2-2.9V24.5z"/>
	<path class="st0" d="M82.3,24.5h-1.1v-7.6h1.2v5.6l4.3-5.6h1.1v7.6h-1.2v-5.6L82.3,24.5z"/>
	<path class="st0" d="M91,24.5h-1.2v-7.6H91v3h4.1v-3h1.2v7.6h-1.2V21H91V24.5z"/>
	<path class="st0" d="M99.3,24.5h-1v-7.6h1.2v5.6l4.3-5.6h1.1v7.6h-1.2v-5.6L99.3,24.5z"/>
	<path class="st0" d="M110.6,24.6c-1.2,0-2.2-0.4-3-1.1s-1.2-1.7-1.2-2.8c0-1.2,0.4-2.1,1.2-2.8c0.8-0.8,1.8-1.1,3-1.1
		c0.8,0,1.5,0.2,2.1,0.5v1.2c-0.6-0.4-1.3-0.6-2.1-0.6c-0.8,0-1.5,0.3-2.1,0.8c-0.5,0.5-0.8,1.2-0.8,2c0,0.8,0.3,1.5,0.8,2
		c0.5,0.5,1.3,0.8,2.1,0.8c0.9,0,1.7-0.2,2.2-0.7V24C112.3,24.4,111.5,24.6,110.6,24.6z"/>
	<path class="st0" d="M113.9,18v-1.1h6.5V18h-2.6v6.5h-1.2V18H113.9z"/>
	<path class="st0" d="M127.4,24.5h-5.7v-7.6h5.6V18h-4.4v1.9h3.5V21h-3.5v2.4h4.5V24.5z"/>
	<path class="st0" d="M130,24.5h-1.2v-7.6h3.4c0.8,0,1.5,0.2,1.9,0.6c0.5,0.4,0.7,0.9,0.7,1.6c0,0.7-0.3,1.2-0.7,1.6
		c-0.5,0.4-1.1,0.6-1.9,0.6H130V24.5z M130,18v2.2h2.1c0.5,0,0.8-0.1,1.1-0.3c0.3-0.2,0.4-0.5,0.4-0.8c0-0.4-0.1-0.7-0.4-0.8
		c-0.3-0.2-0.6-0.3-1.1-0.3H130z"/>
	<path class="st0" d="M140,24.6c-1.2,0-2.2-0.4-3-1.1c-0.8-0.8-1.2-1.7-1.2-2.8c0-1.2,0.4-2.1,1.2-2.8c0.8-0.8,1.8-1.1,3-1.1
		c0.8,0,1.5,0.2,2.1,0.5v1.2c-0.6-0.4-1.3-0.6-2.1-0.6c-0.8,0-1.5,0.3-2.1,0.8c-0.5,0.5-0.8,1.2-0.8,2c0,0.8,0.3,1.5,0.8,2
		c0.5,0.5,1.3,0.8,2.1,0.8c0.9,0,1.7-0.2,2.2-0.7V24C141.7,24.4,140.9,24.6,140,24.6z"/>
	<path class="st0" d="M143.4,18v-1.1h6.5V18h-2.6v6.5H146V18H143.4z"/>
	<path class="st0" d="M154.9,24.5h-3.9v-7.6h3.6c0.7,0,1.3,0.2,1.7,0.5s0.6,0.8,0.6,1.4c0,0.4-0.1,0.7-0.3,1
		c-0.2,0.3-0.4,0.5-0.8,0.6c0.5,0.1,0.9,0.3,1.2,0.7c0.3,0.4,0.5,0.8,0.5,1.4c0,0.7-0.3,1.2-0.7,1.6
		C156.4,24.3,155.8,24.5,154.9,24.5z M152.3,18v2h2.1c0.4,0,0.7-0.1,1-0.3c0.2-0.2,0.4-0.4,0.4-0.7c0-0.3-0.1-0.6-0.4-0.7
		c-0.2-0.2-0.5-0.3-1-0.3H152.3z M152.3,21v2.4h2.4c0.5,0,0.9-0.1,1.1-0.3c0.3-0.2,0.4-0.5,0.4-0.9c0-0.4-0.1-0.7-0.4-0.9
		c-0.3-0.2-0.6-0.3-1.1-0.3H152.3z"/>
	<path class="st0" d="M165.7,23.5c-0.8,0.8-1.7,1.1-2.9,1.1s-2.1-0.4-2.9-1.1c-0.8-0.8-1.1-1.7-1.1-2.8s0.4-2.1,1.1-2.8
		c0.8-0.8,1.7-1.2,2.9-1.2s2.1,0.4,2.9,1.2c0.8,0.8,1.2,1.7,1.2,2.8C166.8,21.8,166.4,22.7,165.7,23.5z M160.9,22.7
		c0.5,0.5,1.2,0.8,1.9,0.8c0.8,0,1.4-0.3,1.9-0.8c0.5-0.5,0.8-1.2,0.8-2s-0.3-1.5-0.8-2c-0.5-0.5-1.2-0.8-1.9-0.8
		c-0.8,0-1.4,0.3-1.9,0.8c-0.5,0.5-0.8,1.2-0.8,2C160.1,21.5,160.3,22.2,160.9,22.7z"/>
	<path class="st0" d="M172.7,24.5h-1.2v-7.6h1.2v3h4.1v-3h1.2v7.6h-1.2V21h-4.1V24.5z"/>
	<path class="st0" d="M180.6,24.5h-1.3l3.4-7.6h1.2l3.4,7.6H186l-0.9-1.9h-3.7L180.6,24.5z M183.3,18.4l-1.4,3.2h2.9L183.3,18.4z"/>
	<path class="st0" d="M189.6,24.6c-0.5,0-0.9-0.1-1.1-0.2v-1.1c0.3,0.1,0.6,0.2,0.9,0.2c0.3,0,0.6-0.1,0.8-0.3
		c0.2-0.1,0.4-0.5,0.7-1l-3.1-5.4h1.4l2.3,4.1l1.9-4.1h1.3l-2.9,6C191.3,24,190.6,24.6,189.6,24.6z"/>
	<path class="st0" d="M197.3,24.5H196v-7.6h1.2V20l3.2-3.1h1.6l-3.6,3.5l4.2,4.1H201l-3.7-3.7V24.5z"/>
	<path class="st0" d="M204.9,24.5h-1v-7.6h1.2v5.6l4.3-5.6h1.1v7.6h-1.2v-5.6L204.9,24.5z"/>
	<path class="st0" d="M72.7,37.6h-1V30h1.2v5.6l4.3-5.6h1.1v7.6h-1.2V32L72.7,37.6z"/>
	<path class="st0" d="M87.1,37.6h-3.9V30h3.6c0.7,0,1.3,0.2,1.7,0.5c0.4,0.3,0.6,0.8,0.6,1.4c0,0.4-0.1,0.7-0.3,1
		c-0.2,0.3-0.4,0.5-0.8,0.6c0.5,0.1,0.9,0.3,1.2,0.7c0.3,0.4,0.5,0.8,0.5,1.4c0,0.7-0.3,1.2-0.7,1.6C88.5,37.4,87.9,37.6,87.1,37.6z
		 M84.5,31.1v2h2.1c0.4,0,0.7-0.1,1-0.3c0.2-0.2,0.4-0.4,0.4-0.7c0-0.3-0.1-0.6-0.4-0.7c-0.2-0.2-0.5-0.3-1-0.3H84.5z M84.5,34.1
		v2.4h2.4c0.5,0,0.9-0.1,1.1-0.3c0.3-0.2,0.4-0.5,0.4-0.9c0-0.4-0.1-0.7-0.4-0.9c-0.3-0.2-0.6-0.3-1.1-0.3H84.5z"/>
	<path class="st0" d="M94.2,37.6h-3V30h1.2v2.6h1.8c0.9,0,1.6,0.2,2.2,0.7c0.5,0.5,0.8,1,0.8,1.8c0,0.7-0.3,1.3-0.8,1.8
		C95.9,37.4,95.1,37.6,94.2,37.6z M92.5,33.7v2.8h1.7c0.5,0,1-0.1,1.3-0.4c0.3-0.3,0.5-0.6,0.5-1c0-0.4-0.1-0.8-0.5-1
		c-0.3-0.3-0.8-0.4-1.3-0.4H92.5z M99.5,37.6h-1.2V30h1.2V37.6z"/>
	<path class="st0" d="M105.2,37.7c-1.2,0-2.2-0.4-3-1.1c-0.8-0.8-1.2-1.7-1.2-2.8c0-1.2,0.4-2.1,1.2-2.8c0.8-0.8,1.8-1.1,3-1.1
		c0.8,0,1.5,0.2,2.1,0.5v1.2c-0.7-0.4-1.3-0.6-2.1-0.6c-0.8,0-1.5,0.3-2.1,0.8c-0.5,0.5-0.8,1.2-0.8,2c0,0.8,0.3,1.5,0.8,2
		c0.5,0.5,1.3,0.8,2.1,0.8c0.9,0,1.7-0.2,2.2-0.7v1.2C106.8,37.5,106.1,37.7,105.2,37.7z"/>
	<path class="st0" d="M118.6,37.6H109V30h1.2v6.5h2.9V30h1.2v6.5h2.9V30h1.2L118.6,37.6L118.6,37.6z"/>
	<path class="st0" d="M126.2,37.6h-5.7V30h5.6v1.1h-4.4V33h3.5v1.1h-3.5v2.4h4.5V37.6z"/>
	<path class="st0" d="M128.8,37.6h-1.2V30h5.5v1.1h-4.3V37.6z"/>
	<path class="st0" d="M140.7,36.6c-0.8,0.8-1.7,1.1-2.9,1.1c-1.2,0-2.1-0.4-2.9-1.1c-0.8-0.8-1.1-1.7-1.1-2.8s0.4-2.1,1.1-2.8
		c0.8-0.8,1.7-1.2,2.9-1.2c1.2,0,2.1,0.4,2.9,1.2c0.8,0.8,1.2,1.7,1.2,2.8C141.9,34.9,141.5,35.9,140.7,36.6z M135.9,35.8
		c0.5,0.5,1.2,0.8,1.9,0.8c0.8,0,1.4-0.3,1.9-0.8c0.5-0.5,0.8-1.2,0.8-2s-0.3-1.5-0.8-2c-0.5-0.5-1.2-0.8-1.9-0.8
		c-0.8,0-1.4,0.3-1.9,0.8c-0.5,0.5-0.8,1.2-0.8,2S135.3,35.3,135.9,35.8z"/>
	<path class="st0" d="M153.1,36.6c-0.8,0.8-1.7,1.1-2.9,1.1s-2.1-0.4-2.9-1.1c-0.8-0.8-1.1-1.7-1.1-2.8s0.4-2.1,1.1-2.8
		c0.8-0.8,1.7-1.2,2.9-1.2s2.1,0.4,2.9,1.2c0.8,0.8,1.2,1.7,1.2,2.8C154.2,34.9,153.8,35.9,153.1,36.6z M148.2,35.8
		c0.5,0.5,1.2,0.8,1.9,0.8s1.4-0.3,1.9-0.8c0.5-0.5,0.8-1.2,0.8-2s-0.3-1.5-0.8-2c-0.5-0.5-1.2-0.8-1.9-0.8s-1.4,0.3-1.9,0.8
		c-0.5,0.5-0.8,1.2-0.8,2S147.7,35.3,148.2,35.8z"/>
	<path class="st0" d="M159.1,37.6h-3.3V30h5.6v1.1H157v1.6h2.1c0.9,0,1.6,0.2,2.1,0.7c0.5,0.4,0.8,1,0.8,1.8s-0.3,1.3-0.8,1.8
		C160.7,37.4,160,37.6,159.1,37.6z M157,33.8v2.7h2c0.5,0,1-0.1,1.3-0.4c0.3-0.3,0.5-0.6,0.5-1c0-0.4-0.1-0.8-0.5-1
		c-0.3-0.3-0.7-0.4-1.3-0.4H157z"/>
	<path class="st0" d="M164.6,37.6h-1.2V30h3.4c0.8,0,1.5,0.2,1.9,0.6c0.5,0.4,0.7,0.9,0.7,1.6s-0.3,1.2-0.7,1.6
		c-0.5,0.4-1.1,0.6-1.9,0.6h-2.2V37.6z M164.6,31.1v2.3h2.1c0.5,0,0.8-0.1,1.1-0.3s0.4-0.5,0.4-0.8c0-0.4-0.1-0.7-0.4-0.8
		c-0.3-0.2-0.6-0.3-1.1-0.3L164.6,31.1L164.6,31.1z"/>
	<path class="st0" d="M170.6,37.6h-1.3l3.4-7.6h1.2l3.4,7.6h-1.3l-0.9-1.9h-3.7L170.6,37.6z M173.3,31.4l-1.4,3.2h2.9L173.3,31.4z"
		/>
	<path class="st0" d="M181.1,37.7c-1.1,0-2-0.2-2.7-0.7v-1.2c0.4,0.2,0.8,0.4,1.2,0.5c0.5,0.1,0.9,0.2,1.4,0.2
		c0.6,0,1.2-0.1,1.6-0.4c0.4-0.3,0.6-0.6,0.6-1c0-0.4-0.2-0.7-0.5-0.9c-0.4-0.2-0.8-0.3-1.4-0.3h-1V33h1.1c0.5,0,0.9-0.1,1.1-0.3
		c0.3-0.2,0.4-0.4,0.4-0.8c0-0.3-0.1-0.6-0.5-0.8c-0.3-0.2-0.7-0.3-1.2-0.3c-0.8,0-1.7,0.2-2.4,0.5v-1.1c0.8-0.4,1.6-0.6,2.5-0.6
		c0.9,0,1.6,0.2,2.1,0.6c0.5,0.4,0.8,0.9,0.8,1.5c0,0.4-0.1,0.8-0.4,1c-0.3,0.3-0.5,0.5-0.8,0.5c0.4,0.1,0.8,0.3,1.1,0.7
		c0.3,0.3,0.5,0.7,0.5,1.2c0,0.7-0.3,1.2-0.9,1.7C182.8,37.5,182,37.7,181.1,37.7z"/>
	<path class="st0" d="M192.4,36.6c-0.8,0.8-1.7,1.1-2.9,1.1c-1.2,0-2.1-0.4-2.9-1.1c-0.8-0.8-1.1-1.7-1.1-2.8s0.4-2.1,1.1-2.8
		c0.8-0.8,1.7-1.2,2.9-1.2c1.2,0,2.1,0.4,2.9,1.2c0.8,0.8,1.2,1.7,1.2,2.8C193.5,34.9,193.1,35.9,192.4,36.6z M187.6,35.8
		c0.5,0.5,1.2,0.8,1.9,0.8s1.4-0.3,1.9-0.8c0.5-0.5,0.8-1.2,0.8-2s-0.3-1.5-0.8-2c-0.5-0.5-1.2-0.8-1.9-0.8s-1.4,0.3-1.9,0.8
		c-0.5,0.5-0.8,1.2-0.8,2S187,35.3,187.6,35.8z"/>
	<path class="st0" d="M199,37.6h-3.9V30h3.6c0.7,0,1.3,0.2,1.7,0.5s0.6,0.8,0.6,1.4c0,0.4-0.1,0.7-0.3,1c-0.2,0.3-0.4,0.5-0.8,0.6
		c0.5,0.1,0.9,0.3,1.2,0.7c0.3,0.4,0.5,0.8,0.5,1.4c0,0.7-0.3,1.2-0.7,1.6C200.4,37.4,199.7,37.6,199,37.6z M196.3,31.1v2h2.1
		c0.4,0,0.7-0.1,1-0.3c0.2-0.2,0.4-0.4,0.4-0.7c0-0.3-0.1-0.6-0.4-0.7c-0.2-0.2-0.5-0.3-1-0.3H196.3z M196.3,34.1v2.4h2.4
		c0.5,0,0.9-0.1,1.1-0.3c0.3-0.2,0.4-0.5,0.4-0.9c0-0.4-0.1-0.7-0.4-0.9c-0.3-0.2-0.6-0.3-1.1-0.3H196.3z"/>
	<path class="st0" d="M203.6,37.6h-1.3l3.4-7.6h1.2l3.4,7.6h-1.3l-0.9-1.9h-3.7L203.6,37.6z M206.4,31.4l-1.4,3.2h2.9L206.4,31.4z"
		/>
	<path class="st0" d="M212.8,37.6h-1.2V30h1.2v3h4.1v-3h1.2v7.6H217v-3.5h-4.1V37.6z"/>
	<path class="st0" d="M221.2,37.6h-1V30h1.2v5.6l4.3-5.6h1.1v7.6h-1.2V32L221.2,37.6z"/>
	<path class="st0" d="M229.6,37.6H228l2.5-3.3c-0.5-0.1-1-0.4-1.3-0.8c-0.3-0.4-0.5-0.8-0.5-1.3c0-0.7,0.2-1.2,0.7-1.6
		c0.5-0.4,1.1-0.6,1.9-0.6h3.6v7.6h-1.2v-3.2h-1.8L229.6,37.6z M231.5,33.3h2.3v-2.2h-2.3c-0.4,0-0.8,0.1-1,0.3
		c-0.3,0.2-0.4,0.5-0.4,0.8c0,0.4,0.1,0.6,0.4,0.8C230.7,33.2,231,33.3,231.5,33.3z"/>
	<path class="st0" d="M72.9,50.7h-1.2v-7.6h3.4c0.8,0,1.5,0.2,1.9,0.6c0.5,0.4,0.7,0.9,0.7,1.6S77.5,46.5,77,47
		c-0.5,0.4-1.1,0.6-1.9,0.6h-2.2V50.7z M72.9,44.2v2.3H75c0.5,0,0.8-0.1,1.1-0.3c0.3-0.2,0.4-0.5,0.4-0.8c0-0.4-0.1-0.7-0.4-0.8
		c-0.3-0.2-0.6-0.3-1.1-0.3L72.9,44.2L72.9,44.2z"/>
	<path class="st0" d="M85.7,49.7c-0.8,0.8-1.7,1.1-2.9,1.1c-1.2,0-2.1-0.4-2.9-1.1c-0.8-0.8-1.1-1.7-1.1-2.8s0.4-2.1,1.1-2.8
		c0.8-0.8,1.7-1.2,2.9-1.2c1.2,0,2.1,0.4,2.9,1.2c0.8,0.8,1.2,1.7,1.2,2.8C86.9,48,86.5,48.9,85.7,49.7z M80.9,48.9
		c0.5,0.5,1.2,0.8,1.9,0.8c0.8,0,1.4-0.3,1.9-0.8c0.5-0.5,0.8-1.2,0.8-2s-0.3-1.5-0.8-2c-0.5-0.5-1.2-0.8-1.9-0.8
		c-0.8,0-1.4,0.3-1.9,0.8c-0.5,0.5-0.8,1.2-0.8,2S80.4,48.4,80.9,48.9z"/>
	<path class="st0" d="M92.3,50.9c-1.2,0-2.2-0.4-3-1.1c-0.8-0.8-1.2-1.7-1.2-2.8c0-1.2,0.4-2.1,1.2-2.8c0.8-0.8,1.8-1.1,3-1.1
		c0.8,0,1.5,0.2,2.1,0.5v1.2c-0.6-0.4-1.3-0.6-2.1-0.6c-0.8,0-1.5,0.3-2.1,0.8c-0.5,0.5-0.8,1.2-0.8,2s0.3,1.5,0.8,2
		c0.5,0.5,1.3,0.8,2.1,0.8c0.9,0,1.7-0.2,2.2-0.7v1.2C94,50.6,93.2,50.9,92.3,50.9z"/>
	<path class="st0" d="M99.8,50.9c-1.2,0-2.2-0.4-3-1.1c-0.8-0.8-1.2-1.7-1.2-2.8c0-1.2,0.4-2.1,1.2-2.8c0.8-0.8,1.8-1.1,3-1.1
		c0.8,0,1.5,0.2,2.1,0.5v1.2c-0.7-0.4-1.3-0.6-2.1-0.6c-0.8,0-1.5,0.3-2.1,0.8c-0.5,0.5-0.8,1.2-0.8,2s0.3,1.5,0.8,2
		c0.5,0.5,1.3,0.8,2.1,0.8c0.9,0,1.7-0.2,2.2-0.7v1.2C101.4,50.6,100.7,50.9,99.8,50.9z"/>
	<path class="st0" d="M104.6,50.7h-1v-7.6h1.2v5.6l4.3-5.6h1.1v7.6H109v-5.6L104.6,50.7z"/>
	<path class="st0" d="M113.2,50.7h-1v-7.6h1.2v5.6l4.3-5.6h1.1v7.6h-1.2v-5.6L113.2,50.7z M115.5,42.7c-0.6,0-1.1-0.2-1.4-0.5
		c-0.4-0.3-0.5-0.8-0.6-1.3h1c0,0.3,0.1,0.5,0.3,0.7c0.2,0.2,0.4,0.3,0.7,0.3c0.3,0,0.5-0.1,0.7-0.3c0.2-0.2,0.3-0.4,0.3-0.7h1
		c0,0.5-0.2,1-0.6,1.3C116.5,42.5,116,42.7,115.5,42.7z"/>
	<path class="st0" d="M124.5,50.9c-1.2,0-2.2-0.4-3-1.1c-0.8-0.8-1.2-1.7-1.2-2.8c0-1.2,0.4-2.1,1.2-2.8c0.8-0.8,1.8-1.1,3-1.1
		c0.8,0,1.5,0.2,2.1,0.5v1.2c-0.6-0.4-1.3-0.6-2.1-0.6c-0.8,0-1.5,0.3-2.1,0.8c-0.5,0.5-0.8,1.2-0.8,2s0.3,1.5,0.8,2
		c0.5,0.5,1.3,0.8,2.1,0.8c0.9,0,1.7-0.2,2.2-0.7v1.2C126.1,50.6,125.4,50.9,124.5,50.9z"/>
	<path class="st0" d="M129.5,50.7h-1.2v-7.6h1.2v3.1l3.2-3.1h1.6l-3.6,3.5l4.2,4.1h-1.7l-3.7-3.7V50.7z"/>
	<path class="st0" d="M141.9,49.7c-0.8,0.8-1.7,1.1-2.9,1.1c-1.2,0-2.1-0.4-2.9-1.1c-0.8-0.8-1.1-1.7-1.1-2.8s0.4-2.1,1.1-2.8
		c0.8-0.8,1.7-1.2,2.9-1.2c1.2,0,2.1,0.4,2.9,1.2c0.8,0.8,1.2,1.7,1.2,2.8C143,48,142.6,48.9,141.9,49.7z M137,48.9
		c0.5,0.5,1.2,0.8,1.9,0.8c0.8,0,1.4-0.3,1.9-0.8c0.5-0.5,0.8-1.2,0.8-2s-0.3-1.5-0.8-2c-0.5-0.5-1.2-0.8-1.9-0.8
		c-0.8,0-1.4,0.3-1.9,0.8c-0.5,0.5-0.8,1.2-0.8,2S136.5,48.4,137,48.9z"/>
	<path class="st0" d="M145.6,50.7h-1v-7.6h1.2v5.6l4.3-5.6h1.1v7.6H150v-5.6L145.6,50.7z M147.9,42.7c-0.6,0-1.1-0.2-1.4-0.5
		c-0.4-0.3-0.5-0.8-0.6-1.3h1c0,0.3,0.1,0.5,0.3,0.7c0.2,0.2,0.4,0.3,0.7,0.3c0.3,0,0.5-0.1,0.7-0.3c0.2-0.2,0.3-0.4,0.3-0.7h1
		c0,0.5-0.2,1-0.6,1.3C148.9,42.5,148.4,42.7,147.9,42.7z"/>
	<path class="st0" d="M160.9,51h-1.2v-0.8c-1.2,0-2.2-0.4-2.9-1c-0.6-0.6-1-1.4-1-2.3c0-0.4,0.1-0.8,0.3-1.2c0.1-0.4,0.4-0.7,0.7-1
		c0.3-0.3,0.7-0.5,1.2-0.8c0.5-0.2,1.1-0.3,1.7-0.3v-0.7h1.2v0.7c0.7,0,1.2,0.1,1.7,0.3c0.5,0.2,0.9,0.4,1.2,0.8
		c0.3,0.3,0.5,0.7,0.7,1c0.1,0.4,0.3,0.8,0.3,1.2c0,0.4-0.1,0.8-0.3,1.2c-0.2,0.4-0.4,0.7-0.7,1c-0.3,0.3-0.7,0.5-1.2,0.8
		c-0.5,0.2-1.1,0.3-1.7,0.3L160.9,51L160.9,51z M159.7,49.1v-4.4c-0.8,0-1.5,0.2-1.9,0.7c-0.4,0.4-0.6,0.9-0.6,1.6
		c0,0.6,0.2,1.2,0.6,1.6C158.1,48.8,158.8,49,159.7,49.1z M160.9,44.6V49c0.9,0,1.5-0.2,1.9-0.7s0.6-0.9,0.6-1.6
		c0-0.6-0.2-1.2-0.6-1.6C162.4,44.9,161.7,44.6,160.9,44.6z"/>
	<path class="st0" d="M171.9,50.7h-5.7v-7.6h5.6v1.1h-4.4v1.9h3.5v1.1h-3.5v2.4h4.5V50.7z"/>
	<path class="st0" d="M174.1,52.3h-1.2v-2.7h0.8c0.4-0.6,0.7-1.3,0.9-2.1c0.2-0.8,0.3-2,0.3-3.3v-1h5.2v6.5h1.1v2.7H180v-1.6h-6
		V52.3z M175,49.6h3.8v-5.4H176c0,1.3-0.1,2.3-0.3,3.2C175.6,48.3,175.4,49,175,49.6z"/>
	<path class="st0" d="M188.2,50.7h-5.7v-7.6h5.6v1.1h-4.4v1.9h3.5v1.1h-3.5v2.4h4.5V50.7z"/>
	<path class="st0" d="M190.8,50.7h-1.2v-7.6h3.4c0.8,0,1.5,0.2,1.9,0.6c0.5,0.4,0.7,0.9,0.7,1.6s-0.3,1.2-0.7,1.6s-1.1,0.6-1.9,0.6
		h-2.2V50.7z M190.8,44.2v2.3h2.1c0.5,0,0.8-0.1,1.1-0.3c0.3-0.2,0.4-0.5,0.4-0.8c0-0.4-0.1-0.7-0.4-0.8c-0.3-0.2-0.6-0.3-1.1-0.3
		L190.8,44.2L190.8,44.2z"/>
	<path class="st0" d="M196.8,50.7h-1.3l3.4-7.6h1.2l3.4,7.6h-1.3l-0.9-1.9h-3.7L196.8,50.7z M199.5,44.6l-1.4,3.2h2.9L199.5,44.6z"
		/>
	<path class="st0" d="M212.3,52.3h-1.2v-1.6h-6.3v-7.6h1.2v6.5h3.9v-6.5h1.2v6.5h1.1L212.3,52.3L212.3,52.3z"/>
	<path class="st0" d="M214.6,50.7h-1v-7.6h1.2v5.6l4.3-5.6h1.1v7.6H219v-5.6L214.6,50.7z"/>
	<path class="st0" d="M223.2,50.7h-1v-7.6h1.2v5.6l4.3-5.6h1.1v7.6h-1.2v-5.6L223.2,50.7z"/>
	<g>
		<path class="st0" d="M46.3,49.2c-0.2,0-0.4,0.2-0.4,0.4c0,0.2,0.2,0.4,0.4,0.4c0.2,0,0.4-0.2,0.4-0.4
			C46.7,49.3,46.5,49.2,46.3,49.2z"/>
		<path class="st0" d="M47.5,52.5L47.5,52.5c0,0.2,0.2,0.4,0.4,0.4s0.4-0.2,0.4-0.4c0-0.2-0.2-0.4-0.4-0.4
			C47.7,52.2,47.5,52.3,47.5,52.5z"/>
		<path class="st0" d="M46.3,52.2L46.3,52.2c-0.2,0-0.4,0.2-0.4,0.4c0,0.2,0.2,0.4,0.4,0.4c0.2,0,0.4-0.2,0.4-0.4
			C46.7,52.3,46.5,52.2,46.3,52.2z"/>
		<path class="st0" d="M49,52.5L49,52.5c0,0.2,0.2,0.4,0.4,0.4c0.2,0,0.4-0.2,0.4-0.4c0-0.2-0.2-0.4-0.4-0.4
			C49.2,52.2,49,52.3,49,52.5z"/>
		<polygon class="st0" points="45.8,45.8 45.9,46.7 45.2,46.6 45.2,47.6 45.9,47.5 45.8,48.4 46.8,48.4 46.8,47.5 47.5,47.6 
			47.5,46.6 46.8,46.7 46.8,45.8 		"/>
		<path class="st0" d="M47,48.9V52h3C49.7,50.4,48.5,49.2,47,48.9z"/>
		<path class="st0" d="M46.3,50.7c-0.2,0-0.4,0.2-0.4,0.4c0,0.2,0.2,0.4,0.4,0.4c0.2,0,0.4-0.2,0.4-0.4
			C46.7,50.8,46.5,50.7,46.3,50.7z"/>
		<path class="st0" d="M47.6,54.6c-0.1,0-0.3,0.8-0.1,1.3c0.1,0.3,0.4,0.4,0.7,0.3c0.2-0.1,0.3-0.3,0.3-0.5
			C48.5,55.2,48,54.6,47.6,54.6z"/>
		<path class="st0" d="M45.1,54.6c-0.4,0-0.9,0.6-0.9,1.2c0,0.2,0.1,0.4,0.3,0.5c0.2,0.1,0.5,0,0.7-0.3
			C45.4,55.4,45.2,54.6,45.1,54.6z"/>
		<path class="st0" d="M46.3,54.2c-0.3,0-1.1,1.6-0.5,2.4c0.1,0.2,0.3,0.2,0.5,0.2c0.2,0,0.4-0.1,0.5-0.2
			C47.4,55.8,46.7,54.2,46.3,54.2z"/>
		<path class="st0" d="M42.7,52.5L42.7,52.5c0-0.3,0.1-0.6,0.1-0.6h3v-0.3l0-2.2l0,0v-0.6c-1.4,0.3-2.6,1.4-2.9,2.8
			c-0.1,0.1-0.4,0.2-0.5,0.2c-1.1-0.1-3.3-0.5-3.3-1c0-0.7,0.5-0.9,0.9-0.9c0.6,0,1.3,0.3,1.9-0.5c-2,0.1-0.5-2.8-2.1-3.4
			c0.1,0.7,0,2.1-0.3,2.8c0,0-0.6-0.6-1.3-0.9c0.1,0.5-0.1,1.7-0.3,2.2c0,0-0.7-0.7-1.4-0.9c0.7,1,0.7,2.4,0.5,3.2
			c-0.1,0.2,0.1,0.6,0.6,0.5c0.8,0,3.6,0.1,4.8,0.6c0.4,0.2,0.7,0.3,0.8,0.6c0.1,0.4,0.4,0.9,0.8,1.2c0.2-0.6,0.9-1.3,1.4-1.3
			c0.1,0,0.3,0.2,0.3,0.5c0-0.2,0.4-0.8,0.8-0.8c0.4,0,0.7,0.5,0.8,0.9c0-0.3,0.2-0.6,0.3-0.6c0.5,0,1.1,0.4,1.3,1.1
			c0.2-0.2,1-1.3,1.1-2h-7.2C42.7,53.2,42.7,52.9,42.7,52.5z"/>
		<path class="st0" d="M44.5,52.5L44.5,52.5c0,0.2,0.2,0.4,0.4,0.4s0.4-0.2,0.4-0.4c0-0.2-0.2-0.4-0.4-0.4
			C44.7,52.2,44.5,52.3,44.5,52.5z"/>
		<path class="st0" d="M43,52.5L43,52.5c0,0.2,0.2,0.4,0.4,0.4c0.2,0,0.4-0.2,0.4-0.4c0-0.2-0.2-0.4-0.4-0.4S43,52.3,43,52.5z"/>
		<path class="st0" d="M14.6,54c-0.1,0.1-0.4,0.9-0.3,1.4c0.1,0.2,0.2,0.3,0.4,0.3c0.2,0,0.3-0.1,0.3-0.3
			C15.1,54.9,14.7,54.1,14.6,54z"/>
		<path class="st0" d="M17.2,56.2L17.2,56.2c-0.2,0.2-0.3,0.3-0.4,0.4c0.1,0.1,0.3,0.2,0.5,0.2c0.1,0,0.3,0,0.4-0.1
			c0.2-0.4,0-0.8-0.1-0.9C17.5,55.8,17.3,56,17.2,56.2z"/>
		<path class="st0" d="M16.2,55.2L16.2,55.2c0.2-0.3,0.3-0.5,0.3-0.6c-0.1-0.2-0.7-0.8-1.4-1.6c0,0.1-0.1,0.3-0.1,0.4
			c0.5,0.7,0.7,1.4,0.5,2c0.1,0,0.1,0.1,0.1,0.1C15.8,55.6,16.1,55.4,16.2,55.2z"/>
		<path class="st0" d="M17.2,55.3L17.2,55.3c0-0.1,0-0.2-0.1-0.3c0,0,0,0,0,0c0,0-0.1,0.1-0.2,0.2c-0.1,0.1-0.2,0.2-0.3,0.3
			c-0.1,0.1-0.2,0.2-0.3,0.3C16.1,56,16,56.1,16,56.1c0,0,0,0,0,0c0,0,0.1,0.1,0.2,0.1c0.1,0,0.3-0.1,0.6-0.4
			C17.1,55.6,17.1,55.4,17.2,55.3z"/>
		<path class="st0" d="M12.6,51.7L12.6,51.7c0,0-0.1,0.1-0.2,0.2c0.2,0,0.3,0,0.5,0.1c0-0.1,0-0.3,0-0.5
			C12.8,51.5,12.7,51.6,12.6,51.7z"/>
		<path class="st0" d="M14.5,51.9L14.5,51.9c0,0,1.4,1.3,1.9,1.7c0.1,0.1,0.3,0.1,0.4,0.1c0.1,0,0.2-0.1,0.3-0.2
			c1.4-0.5,3.8-0.6,4.6-0.5c0.5,0,0.7-0.3,0.6-0.5c-0.2-0.8-0.2-2.3,0.5-3.2c-0.7,0.2-1.4,0.9-1.4,0.9c-0.2-0.5-0.3-1.6-0.3-2.2
			c-0.7,0.2-1.3,0.9-1.3,0.9c-0.3-0.7-0.3-2-0.3-2.8c-1.7,0.6-0.1,3.5-2.1,3.4c0.6,0.8,1.3,0.5,1.9,0.5c0.4,0,1,0.3,0.9,0.9
			c-0.1,0.5-2.8,1.1-3.9,1.1c-0.8,0-1.3-0.2-1.7-0.8c-0.2-0.3-0.4-0.4-0.6-0.3c-0.3,0-0.6,0.3-0.6,0.9c0,0.4,0.2,1.4,0.7,1.4
			C14.6,53.1,14.6,52.4,14.5,51.9z"/>
		<path class="st0" d="M11.8,51.4L11.8,51.4c0.1,0,0.1,0,0.2,0c-0.2,0.3-0.2,0.5-0.1,0.6c0.1,0.1,0.2-0.1,0.6-0.5
			c0.3-0.4,0.6-0.5,0.4-0.6c-0.1-0.1-0.3-0.1-0.5,0.1c0-0.1,0-0.1,0-0.2c-0.1-0.3-0.6-0.8-0.9-0.8c0,0-0.1,0-0.1,0
			c0.1-0.2,0.1-0.4,0-0.4c-0.1-0.1-0.1,0-0.3,0.1c0-0.1,0-0.2-0.1-0.3c-0.4-0.7-2.8-2.9-3.3-3.1c-0.3-0.1-0.4,0.1-0.4,0.1
			s-0.2,0.1,0,0.4c0.2,0.5,2.5,2.8,3.1,3.3c0.1,0.1,0.2,0.1,0.3,0.1c-0.1,0.1-0.2,0.2-0.1,0.3c0.1,0.1,0.2,0.1,0.4,0
			c0,0,0,0.1,0,0.1C11,50.8,11.4,51.3,11.8,51.4z"/>
		<path class="st0" d="M13.4,53.1c0-0.2-0.4-0.6-1-0.6c-0.8,0-1.1,0.5-1.1,0.7c0,0.5,0.5,0.5,0.6,0.5C12.5,53.8,13.3,53.2,13.4,53.1
			z"/>
		<path class="st0" d="M12.7,54.2L12.7,54.2c-0.2,0.3-0.3,0.5-0.2,0.8c0.1,0.3,0.4,0.4,0.6,0.4c0.3,0,0.5-0.1,0.7-0.3
			c0.3-0.5,0.3-1.5,0.2-1.6C13.7,53.5,13.1,53.8,12.7,54.2z"/>
		<path class="st0" d="M6,43.5L6,43.5c-0.2-0.2-0.7,0.1-0.9,0c0.1-0.7,0.6,0,1-0.4c0.2-0.2,0.1-0.5,0-0.6c-0.2,0.2-0.5,0.1-0.5,0
			c0.5-1.2-0.5-2.6-1.4-2.4c0.2,0.3,0.2,1.1,0.2,1.4c0.4,0.3,0.1,0.9-0.3,0.7c-0.3-0.1-0.7-0.8-0.2-1.3c0-0.2-0.3-0.2-0.6,0.2
			c0.2-0.8-1.2-0.5-1.5-0.3C1.5,41,1.3,42.5,2,42.3c-0.4,0.3-0.3,0.7-0.2,0.7c0.4-0.6,1.1-0.1,1.2,0.2c0.2,0.4-0.4,0.7-0.7,0.3
			c-0.2,0.1-1.1,0.1-1.3-0.1c-0.1,1,1.2,2,2.4,1.4c0.1,0,0.2,0.3,0,0.5c0.1,0.1,0.4,0.2,0.6,0c0.5-0.5-0.2-0.9,0.4-1.1
			c0.2,0.3-0.1,0.7,0.1,1c0.3,0.3,0.8-0.3,1.2-0.4C5.7,44.3,6.3,43.9,6,43.5z M2.4,42L2.4,42c0,0-0.2-0.2,0-0.5
			c0.3-0.3,0.4-0.1,0.4-0.1s0.3,0.6,0.3,0.8C2.9,42.2,2.4,42,2.4,42z M4.6,43.7L4.6,43.7c-0.1,0-0.5,0.3-0.6,0.1l-0.8-0.8l0.4-0.4
			L4,42.3L4.7,43C4.9,43.2,4.6,43.6,4.6,43.7z"/>
		<path class="st0" d="M6.2,44.9L6.2,44.9c-0.1,0-0.2,0-0.2,0.1c-0.1,0.1-0.1,0.2-0.1,0.3c0,0.2,0.1,0.3,0.2,0.4
			C6.3,45.9,6.5,46,6.6,46c0.1,0,0.2,0,0.2-0.1c0.2-0.2,0.1-0.5-0.2-0.8C6.5,45,6.3,44.9,6.2,44.9z"/>
		<path class="st0" d="M4,42.7l-0.2,0.2h0l-0.2,0.2c0,0,0.4,0.6,0.8,0.3C4.5,43.1,4,42.7,4,42.7z"/>
		<path class="st0" d="M44.1,40.6c0,0.1-0.6,0.4-1-0.4c-0.4-0.1-0.8-0.2-1.1-0.3c0.5,1,0.9,1.8,1.6,2.2c1,0.7,2.6,0.5,3.1-0.2
			c-0.9-0.5-1.9-1.7-2.5-2.9c-0.1,0.3-0.3,0.8-0.5,1.1C43.8,40.2,43.9,40.4,44.1,40.6z"/>
		<polygon class="st0" points="44.2,39 44.2,39 44.2,39 		"/>
		<path class="st0" d="M53.7,25.6L53.7,25.6c1.1-0.5,2.7-1.6,3.4-2.3c0.1,0.1,0.4,0.8-0.5,1.4c-0.6,0.5-1.8,1.1-2.8,1.4
			c-0.4,0.6-1.2,1.3-2.3,2.1c2.2-0.3,4.8-1.2,6.1-2.5c2.4-2.4,1.1-5.3,0.8-5.9c-1.6,2-4.6,4.1-7.4,5.2C52,25.1,53,25.3,53.7,25.6z"
			/>
		<path class="st0" d="M51.9,21.1c1.4-1.2,3-3.5,3.2-4.4c0.3,0.2,0.5,0.9,0,1.7c-0.8,1.3-2.1,2.5-3.3,3.4c0,0.9-0.4,1.8-0.8,2.6
			c1.7-1.1,3.7-2.9,4.6-4.1c1.2-1.5,1.6-3,1.4-4.5c0.1-1.7-1.2-3.4-1.7-3.8c-0.3,1.9-2.2,5-3.9,6.8C51.7,19.5,51.8,20.4,51.9,21.1z"
			/>
		<path class="st0" d="M50.8,32L50.8,32c0.3,0.4,0.7,0.9,0.9,1.3c1.3,0.3,2.9,0.2,2.9,0.2s-0.1,0.7-1,0.7c-0.4,0-1.6-0.2-2.1-0.3
			c-0.2,0.1-1.2,0.3-2.1,0.4c1.4,0.5,3.4,1,4.6,1c0.1,0,0.2,0,0.3,0c2-0.2,3-2,3.1-3.1c-0.6,0.1-1.6,0.2-2.7,0.2
			C53.8,32.5,52.1,32.4,50.8,32z"/>
		<path class="st0" d="M59.1,26.8c-1.8,0.9-5,1.9-7.5,1.9c0.6,0.4,1.2,0.8,1.6,1.2c1.1-0.1,2.5-0.4,3.3-0.7c0,0.1,0,0.8-0.9,1.1
			c-0.7,0.2-1.7,0.2-2.4,0.2c-0.6,0.4-1.5,0.8-2.3,1c0.7,0.1,1.6,0.2,2.4,0.2c1.3,0,2.5-0.1,3.3-0.4C57.2,31.1,59.5,30.1,59.1,26.8z
			"/>
		<path class="st0" d="M49.4,36.3L49.4,36.3c0.8,0.4,1.6,0.6,2.2,0.7c0,0-0.1,0.7-1.2,0.5c-0.6-0.1-1.3-0.5-1.5-0.6
			c-0.5,0.1-1.4,0-1.8,0c1.2,0.8,3,1.8,4.5,1.9c0.1,0,0.2,0,0.2,0c1.6,0,2.8-1.6,3.1-2.4c-1.6,0-4.3-0.7-6-1.6
			C49.2,35.2,49.3,35.7,49.4,36.3z"/>
		<path class="st0" d="M46.7,38.4c0.4,0.5,1.1,0.8,1.1,0.8s-0.2,0.3-0.6,0.3c-0.1,0-0.3,0-0.4-0.1c-0.3-0.2-0.7-0.6-0.7-0.6
			c-0.5-0.1-1-0.2-1.5-0.3c0.8,1.1,2.2,2.3,3.7,2.7c0.2,0.1,0.4,0.1,0.7,0.1c1.3,0,2.4-1,2.7-1.6c-1.5-0.2-3.7-1.3-4.8-2.5
			C46.8,37.6,46.8,38,46.7,38.4z"/>
		<path class="st0" d="M36.9,55.2L36.9,55.2c0.7,0,1.3-0.3,1.6-1c-1,0.5-2.1,0.2-4.2-0.4c0,0-0.8,0.3-1.2,0.4c1.2,0.4,3,0.9,3.3,1.6
			c0.1,0.6-0.2,0.7-0.2,0.7c-0.7-0.8-1.5-1.3-3.3-1.8c0,0.3-0.1,0.5-0.1,0.5s-0.4,0.1-1.2,0c0.7,0.6,2.4,2,2.6,3.5
			c0.1,1-0.6,1.1-0.6,1.1c-0.1-1.6-0.8-2.5-2.2-4.1c0,0-0.2,0.4-0.6,0.6c0,0-0.5-0.1-1-0.4c0.2,2,0.3,7,0.2,7.8
			c-0.1,0.6-0.4,0.8-0.4,0.8l0,0l0,0c0,0-0.3-0.2-0.4-0.8c-0.1-0.8,0-5.7,0.2-7.8c-0.4,0.3-1,0.4-1,0.4c-0.3-0.2-0.6-0.6-0.6-0.6
			c-1.5,1.6-2.1,2.6-2.2,4.1c0,0-0.7,0-0.6-1.1c0.2-1.5,1.9-3,2.6-3.5c-0.8,0.1-1.2,0-1.2,0s-0.1-0.2-0.1-0.5
			c-1.8,0.5-2.6,1-3.3,1.8c0,0-0.3-0.1-0.2-0.7c0.3-0.7,2.1-1.3,3.3-1.6c-0.4,0-1.2-0.4-1.2-0.4c-2,0.6-3.2,0.9-4.2,0.4
			c0.3,0.7,0.8,1,1.6,1l0,0c-0.9,0.4-1.9,1.3-2.1,2.3c0.7,2.5,2.9,3.3,2.9,3.3c-0.5-1.2-0.3-3.6,3-5.3c-2,2-2.8,3.8-2.3,5.6
			c0.5,1.6,2.1,2.2,3.3,2.3c-0.9-2.6-0.5-5,1.3-6.9c-0.8,2.1-1.8,8.4,1.3,9.5c0,0,0,0,0,0c0,0,0,0,0,0c3.1-1.1,2-7.4,1.3-9.5
			c1.8,1.9,2.2,4.3,1.3,6.9c1.2,0,2.8-0.7,3.3-2.3c0.5-1.7-0.2-3.5-2.3-5.6c3.3,1.7,3.5,4.1,3,5.3c0,0,2.2-0.8,2.9-3.3
			C38.7,56.5,37.8,55.6,36.9,55.2z"/>
		<path class="st0" d="M15.6,42.1c0.7-0.4,1.1-1.2,1.6-2.2c-0.3,0.1-0.7,0.2-1.1,0.3c-0.4,0.8-1,0.5-1,0.4c0.1-0.1,0.3-0.3,0.4-0.5
			c-0.2-0.3-0.4-0.8-0.5-1.1c-0.6,1.2-1.6,2.4-2.5,2.9C13,42.6,14.6,42.7,15.6,42.1z"/>
		<polygon class="st0" points="14.9,39 14.9,39 14.9,39 		"/>
		<path class="st0" d="M7.6,28.2c-1.1-0.8-1.9-1.5-2.3-2.1c-0.9-0.4-2.2-0.9-2.8-1.4C1.7,24,1.9,23.4,2,23.3
			c0.7,0.7,2.3,1.8,3.4,2.3l0,0c0.7-0.3,1.7-0.5,2.6-0.6c-2.8-1.1-5.8-3.2-7.4-5.2c-0.3,0.6-1.6,3.5,0.8,5.9
			C2.8,27,5.4,27.9,7.6,28.2z"/>
		<path class="st0" d="M8.1,24.5c-0.4-0.7-0.8-1.7-0.8-2.6C6.1,21,4.8,19.8,4,18.5c-0.4-0.8-0.3-1.4,0-1.7c0.2,0.8,1.8,3.2,3.2,4.4
			c0-0.8,0.1-1.6,0.3-2.3c-1.6-1.8-3.6-5-3.9-6.8c-0.5,0.4-1.7,2.1-1.7,3.8c-0.2,1.5,0.3,3,1.4,4.5C4.4,21.6,6.4,23.3,8.1,24.5z"/>
		<path class="st0" d="M7.4,33.3C7.7,32.9,8,32.4,8.4,32h0c-1.3,0.4-3,0.4-3.9,0.4c-1.1,0-2.1-0.1-2.7-0.2c0.1,1.1,1.1,2.9,3.1,3.1
			c0.1,0,0.2,0,0.3,0c1.3,0,3.2-0.5,4.6-1c-1-0.1-1.9-0.4-2.1-0.4c-0.5,0.1-1.7,0.4-2.1,0.3c-0.9,0-1-0.7-1-0.7S6.1,33.6,7.4,33.3z"
			/>
		<path class="st0" d="M2.6,31.4c0.7,0.2,1.9,0.4,3.3,0.4c0.8,0,1.7-0.1,2.4-0.2c-0.8-0.3-1.7-0.6-2.3-1c-0.8,0-1.8,0-2.4-0.2
			c-1-0.3-1-1-0.9-1.1c0.8,0.3,2.3,0.7,3.3,0.7c0.4-0.4,1-0.8,1.6-1.2c-2.5,0-5.7-1-7.5-1.9C-0.4,30.1,1.9,31.1,2.6,31.4z"/>
		<path class="st0" d="M7.2,38.7c0.1,0,0.2,0,0.2,0c1.5-0.1,3.3-1.1,4.5-1.9c-0.4,0.1-1.4,0.1-1.8,0c-0.2,0.1-0.9,0.6-1.5,0.6
			c-1.1,0.1-1.2-0.5-1.2-0.5c0.7-0.1,1.5-0.3,2.2-0.7v0c0.1-0.6,0.2-1.1,0.3-1.5c-1.7,0.9-4.4,1.6-6,1.6C4.4,37.1,5.6,38.7,7.2,38.7
			z"/>
		<path class="st0" d="M10.1,41.2c0.2,0,0.4,0,0.7-0.1c1.5-0.4,2.9-1.6,3.7-2.7c-0.5,0.2-1,0.2-1.5,0.3c0,0-0.4,0.4-0.7,0.6
			c-0.1,0.1-0.3,0.1-0.4,0.1c-0.4,0-0.6-0.3-0.6-0.3s0.7-0.3,1.1-0.8c-0.1-0.3-0.1-0.8-0.1-1.3c-1.2,1.2-3.3,2.3-4.8,2.5
			C7.7,40.2,8.8,41.2,10.1,41.2z"/>
		<path class="st0" d="M29,3.6L29,3.6c0,0.3,0.3,0.6,0.6,0.6c0.3,0,0.6-0.3,0.6-0.6c0-0.3-0.3-0.6-0.6-0.6C29.3,3,29,3.3,29,3.6z"/>
		<polygon class="st0" points="29.2,2.4 29.2,2.4 29.9,2.4 29.9,1.5 30.7,1.6 30.7,0.8 29.9,0.9 29.9,0 29.2,0 29.3,0.9 28.4,0.8 
			28.4,1.6 29.3,1.5 		"/>
		<path class="st0" d="M26.5,11.5L26.5,11.5c0.1,0,0.2,0,0.3,0h5.5c0.1,0,0.2,0,0.3,0c0.2-0.1,0.3-0.2,0.3-0.4h-6.7
			C26.3,11.3,26.4,11.4,26.5,11.5z"/>
		<path class="st0" d="M32.6,10.7C32.6,10.7,32.7,10.6,32.6,10.7l0.1-0.5c0-0.1,0-0.1-0.1-0.1h-6c-0.1,0-0.1,0-0.1,0.1v0.4
			c0,0.1,0,0.1,0.1,0.1H32.6z"/>
		<path class="st0" d="M33.2,9.6c0.2-0.2,0.9-1.7,0.9-3.2c0-1.4-1.7-2.1-2.7-2.1c-0.1,1.9-0.9,5-1.8,5c-0.9,0-1.7-3-1.8-5
			c-1,0-2.7,0.8-2.7,2.1c0,1.5,0.8,3,0.9,3.2H33.2z"/>
		<path class="st0" d="M29.6,8.3c0.5,0,1.1-1.5,1.2-2.9c0-0.3-0.5-0.7-1.2-0.7c-0.7,0-1.2,0.4-1.2,0.7C28.5,6.7,29.1,8.3,29.6,8.3z"
			/>
		<polygon class="st0" points="40.9,14.6 40.9,14.6 40.9,14.6 		"/>
		<path class="st0" d="M38.3,30.9c0-0.2-0.2-0.3-0.3-0.3H21.2c-0.2,0-0.3,0.2-0.3,0.3v11.4v0l0,0.1c0,0,0,0,0,0c0,0,0,0.6,0.3,1.3
			c0.4,0.8,1.8,2.2,3.6,3.2c2.6,1.3,4.1,2.4,4.8,3c0.7-0.6,2.2-1.6,4.8-3c1.8-0.9,3.2-2.3,3.6-3.2c0.3-0.7,0.3-1.3,0.3-1.3
			L38.3,30.9z M32.6,35L32.6,35c0.3,0.9,0.4,1.8,0.5,2.6c0.7,0.5,1.3,1.1,1.8,1.7c1-1.2,1.6-2.3,1.6-3.1c0,0,0,0,0,0
			c-0.5,0-0.9-0.4-0.9-0.9c0-0.2,0.1-0.3,0.2-0.5c-0.5-0.2-1-0.3-1.5-0.3c-0.4,0-0.8,0-1.3,0.1c0,0,0,0-0.1,0l-0.1,0l0-0.1
			c0-0.1,0.1-0.2,0.1-0.3l0,0l0,0c1.4-0.2,2.4-0.1,3.1,0.3c0.1-0.1,0.3-0.1,0.4-0.1c0.5,0,0.9,0.4,0.9,0.9c0,0.3-0.2,0.6-0.5,0.8
			c0,1-0.6,2.2-1.7,3.5c0.1,0.1,0.1,0.1,0.2,0.2c0,0,0.1,0.1,0.1,0.1l0,0l0,0c-0.1,0.1-0.1,0.1-0.2,0.2l0,0l0,0c0,0,0,0,0,0l0,0
			c0,0-0.1-0.1-0.1-0.1c0-0.1-0.1-0.1-0.1-0.2c-0.1,0.1-0.3,0.3-0.4,0.4l-0.1,0.1c-0.2,0.1-0.4,0.2-0.6,0.1l-0.1,0l0.1-0.1
			c0.3-0.3,0.6-0.6,0.9-0.9c-0.4-0.5-1-1-1.5-1.4c0,0.5,0.1,1,0.1,1.4c0,0.4,0,0.9-0.1,1.4l0,0l0,0c-0.1,0-0.2,0.1-0.3,0.2l-0.1,0
			l0-0.1c0-0.6,0.1-1.1,0.1-1.6c0-0.2,0-0.3,0-0.5l0-0.1l0,0c0-0.3-0.1-1.3-0.2-1.9c0,0,0,0,0,0l0,0l0,0c-0.1-0.6-0.2-1.1-0.3-1.6
			l0,0l0,0c0,0,0,0,0,0l0,0C32.5,35.3,32.5,35.2,32.6,35L32.6,35z M27,33.8c0.7-1.6,1.6-2.5,2.6-2.5c1,0,1.9,0.9,2.6,2.5l0,0l0,0
			c0,0-0.1,0.1-0.3,0.1l0,0l0,0c-0.6-1.5-1.4-2.3-2.3-2.3c-0.8,0-1.6,0.8-2.3,2.3l0,0l0,0C27.1,33.9,27,33.8,27,33.8L27,33.8
			L27,33.8z M26.7,34.2c0.2,0.1,0.9,0.4,1.5,0.3c0.6-0.2,1.3-0.2,1.3-0.2s0.7,0,1.3,0.2c0.7,0.2,1.3-0.1,1.5-0.3c0,0,0.1,0,0.1,0.1
			c-0.1,0.3-0.3,1-1.3,1.2c-1,0.2-1.4,1.3-1.6,1.8c0,0.1-0.1,0.1-0.1,0c-0.1-0.5-0.6-1.6-1.6-1.8C26.9,35.2,26.7,34.5,26.7,34.2
			C26.6,34.2,26.7,34.2,26.7,34.2z M28.4,37c0.2,0,0.3-0.1,0.5-0.1c0.1,0.2,0.2,0.3,0.2,0.5c-0.2,0.1-0.4,0.2-0.7,0.2
			c-0.7,0-1.3-0.6-1.3-1.3c0-0.2,0-0.3,0.1-0.5c0.1,0.1,0.3,0.1,0.5,0.2c0,0.1-0.1,0.2-0.1,0.3C27.6,36.6,27.9,37,28.4,37z M28,36.1
			c0-0.1,0-0.1,0-0.1c0.2,0.1,0.4,0.3,0.6,0.4c-0.1,0-0.1,0.1-0.2,0.1C28.2,36.5,28,36.3,28,36.1z M28.4,37.9c0.3,0,0.6-0.1,0.9-0.3
			c0.1,0.1,0.2,0.3,0.3,0.3c0.1,0,0.2-0.3,0.3-0.3c0.3,0.2,0.6,0.3,0.9,0.3c0.5,0,0.9-0.2,1.2-0.5c0,0,0,0,0,0
			c0.2,0.5,0.2,1.2,0.2,1.5c0,0.3-0.1,0.6-0.2,0.8c-0.1,0.3-0.2,0.6-0.2,0.6c0,0,0,0.1-0.1,0.2c-0.1,0.3-0.3,0.7-0.5,1.2
			c-0.5-0.3-1.1-0.5-1.8-0.5c-0.6,0-1.1,0.2-1.6,0.4c-0.2-0.5-0.4-0.9-0.5-1.1c-0.1-0.1-0.1-0.2-0.1-0.2c0,0-0.1-0.3-0.2-0.7
			c-0.1-0.2-0.1-0.5-0.2-0.7c0-0.2,0-0.9,0.1-1.5c0-0.1,0.1-0.2,0.1-0.2C27.4,37.6,27.8,37.9,28.4,37.9z M30.8,37
			c0.5,0,0.8-0.4,0.8-0.8c0-0.1,0-0.2-0.1-0.3c0.2-0.1,0.3-0.1,0.5-0.2c0.1,0.2,0.1,0.3,0.1,0.5c0,0.7-0.6,1.3-1.3,1.3
			c-0.2,0-0.5-0.1-0.7-0.2c0-0.1,0.1-0.3,0.2-0.5C30.4,36.9,30.6,37,30.8,37z M30.6,36.4c0.2-0.2,0.3-0.3,0.6-0.4c0,0,0,0.1,0,0.1
			c0,0.2-0.2,0.4-0.4,0.4C30.7,36.5,30.6,36.5,30.6,36.4z M22.6,34.5c0.2,0,0.3,0.1,0.5,0.2c0.4-0.3,1-0.4,1.8-0.4
			c0.4,0,0.8,0,1.3,0.1l0.1,0l0,0c0,0.1,0.1,0.2,0.1,0.3l0,0.1l-0.2,0c0,0-0.1,0-0.1,0c-0.4-0.1-0.9-0.1-1.2-0.1
			c-0.5,0-1.1,0.1-1.5,0.3c0.1,0.1,0.1,0.3,0.1,0.5c0,0.5-0.4,0.9-0.9,0.9c0,0.8,0.6,1.9,1.6,3.1c0.5-0.6,1.1-1.1,1.8-1.7
			c0.1-0.9,0.3-1.7,0.5-2.5l0-0.1l0.1,0.1c0.1,0.1,0.1,0.1,0.2,0.2c0,0,0,0,0,0l0,0v0c-0.1,0.5-0.2,1.1-0.3,1.6l0,0l0,0
			c-0.1,0.4-0.1,1-0.1,1.5c0,0.4,0,0.7,0,1c0,0.4,0,0.8,0.1,1.3l0,0.1l-0.1,0C26.2,41,26.1,41,26,41l0,0l0,0c0-0.4-0.1-0.8-0.1-1.3
			c0-0.5,0-1,0.1-1.4c-0.6,0.5-1.1,0.9-1.5,1.4c0.4,0.4,0.8,0.8,1.3,1.3l0.1,0.1l-0.1,0c-0.2,0-0.3,0-0.5,0l0,0
			c-0.4-0.4-0.8-0.7-1.1-1c-0.1,0.1-0.1,0.1-0.2,0.2l-0.1,0.1l0,0c-0.1,0-0.2,0.1-0.2,0.1l0,0l0,0c0,0,0,0-0.1-0.1c0,0,0,0-0.1,0
			l0,0l0,0c0.1-0.2,0.3-0.3,0.4-0.5c-1.1-1.3-1.7-2.5-1.7-3.5c-0.3-0.1-0.5-0.4-0.5-0.8C21.7,34.9,22.1,34.5,22.6,34.5z M32.4,45.1
			c-0.5,1.4-1.2,2.3-1.9,2.7c-0.1,0.4-0.4,0.7-0.9,0.7c-0.4,0-0.8-0.3-0.9-0.7c-0.7-0.4-1.4-1.3-1.9-2.7l0-0.1l0.4-0.1l0,0
			c0.4,1.2,1,2,1.6,2.4c0.1-0.3,0.4-0.6,0.8-0.6c0.4,0,0.7,0.2,0.8,0.6c0.6-0.4,1.1-1.2,1.6-2.4l0,0l0,0
			C32.1,45,32.2,45.1,32.4,45.1L32.4,45.1L32.4,45.1z M28.8,45.1c0-0.3,0.1-1,0.2-1.3c0.2-0.1,0.3-0.2,0.5-0.2
			c0.2,0,0.4,0.1,0.6,0.2c0.1,0.3,0.2,1,0.2,1.2c0,0.3-0.7,0.5-0.8,0.5C29.5,45.6,28.8,45.4,28.8,45.1z M37.7,42.3
			c0,0.1-0.1,0.1-0.2,0.1c0,0,0,0,0,0c-0.1,0-0.2,0-0.3,0.1l-0.1,0c-0.1,0-0.3,0-0.4-0.1c0,0-0.1,0-0.1-0.1c0,0,0,0,0,0c0,0,0,0,0,0
			c-0.2,0-0.7,0.2-0.8,0.2c0.1,0,0.7,0.1,1.1,0.4c0.2,0.1,0.6,0.2,0.7,0.2c0,0.1-0.7,0.6-2,0.3l-0.3-0.1c-0.6-0.2-1.2-0.2-1.8-0.2
			c0.1,0,0.1,0,0.2,0.1c0.2,0.1,0.3,0.1,0.5,0.2c0,0,0,0,0,0c0,0,0.1,0,0.1,0c0.1,0,0.1,0,0.2,0c0.1,0,0.1,0.1,0.2,0.1
			c0.1,0.1,0.2,0.1,0.2,0.2c0,0,0.1,0.1,0.1,0.1c0,0,0,0,0,0c0,0.1,0,0.2-0.1,0.3c-0.2,0.3-0.5,0.3-0.8,0c0,0,0,0-0.1-0.1
			c0,0-0.1-0.1-0.2-0.3c0,0,0-0.1,0-0.1c0,0,0,0,0,0c-0.1-0.1-0.2-0.2-0.3-0.2c-0.2-0.1-0.5-0.2-0.7-0.2c-0.1,0-0.1,0-0.2,0
			c0.2,0.1,0.4,0.3,0.5,0.4c0,0,0,0,0,0c0.1,0.2,0.1,0.4,0.2,0.6c0.2,0.4,0.3,0.5,0.5,0.6c-0.2,0.1-1.2,0-1.7-0.7c0,0,0-0.1-0.1-0.1
			c-0.1-0.3-0.2-0.6-0.3-0.7c-0.1-0.2,0-0.4-0.1-0.5c-0.1-0.1-0.2,0-0.2,0c0,0,0,0,0,0c0,0,0,0,0,0c0,0,0,0,0,0c0,0,0,0,0,0l0,0
			c0,0,0,0,0,0l0,0c-0.1,0-0.1,0.1-0.1,0.1l0,0c0,0,0,0.1,0,0.1c0,0,0,0,0,0c0,0,0,0,0,0c0,0,0,0,0,0c0,0-0.1,0-0.1,0c0,0,0,0,0,0
			c0,0,0,0-0.1,0c-0.1,0-0.1,0-0.2,0c-0.1,0-0.1,0-0.1-0.1c0,0,0-0.1,0-0.1l0,0c0,0-0.1,0-0.1,0c-0.1,0-0.1,0-0.1-0.1
			c0,0,0-0.1,0-0.2c0,0,0,0,0,0c0,0-0.1,0.1-0.1,0.1c0,0-0.1,0-0.1,0c0,0-0.1-0.1-0.1-0.1l0-0.1c0,0,0,0,0,0c0,0,0,0,0,0
			c0,0,0,0,0,0c0,0,0,0,0,0l0,0c0,0,0,0,0,0c-0.1,0-0.2-0.1-0.3-0.1c0,0,0,0,0,0c0,0,0,0,0,0c-0.1,0-0.2,0.1-0.3,0.1c0,0,0,0,0,0
			l0,0c0,0,0,0-0.1,0c0,0,0,0,0,0l0,0c0,0,0,0,0,0c0,0,0,0,0,0c0,0,0-0.1,0-0.1c0,0,0,0,0,0c0,0,0,0,0,0c0,0-0.1,0-0.1,0
			c0,0,0,0.1,0,0.1c0,0,0,0,0,0c0,0,0,0.1,0,0.1l0,0c0,0,0,0,0,0l0,0c0,0.1,0,0.1,0,0.1c0,0-0.1,0.1-0.1,0c0,0,0,0-0.1,0
			c0,0,0,0-0.1,0c0,0,0,0,0,0c0,0,0,0,0,0c0,0,0,0,0,0c0,0,0,0,0,0c0,0,0,0,0,0c0,0,0,0,0,0c0,0,0,0,0,0c0,0,0,0,0,0l0,0
			c0,0,0,0,0,0c0,0,0,0,0,0.1c0,0,0,0.1,0,0.1c0,0.1-0.1,0.1-0.2,0.1c0,0,0,0-0.1,0c0,0,0,0-0.1,0c0,0,0,0.1,0,0.1
			c0,0.1-0.1,0.1-0.1,0.1c-0.1,0-0.1,0-0.1,0c0,0,0,0,0,0c0,0,0,0-0.1,0c0,0,0,0-0.1-0.1c0,0-0.1,0-0.1,0c0,0,0,0,0,0
			c0,0-0.1-0.1-0.1-0.1l0,0c0,0,0,0,0,0c0,0,0,0,0,0c0,0,0,0,0,0l0,0c-0.2-0.1-0.4,0.3-0.4,0.4c-0.7,1.3-2.1,1.6-2.1,1.5
			c0,0,0.3-0.2,0.4-0.6c0.1-0.3,0.1-0.4,0.2-0.6c0,0,0-0.1,0.1-0.1c0.1-0.1,0.2-0.2,0.4-0.3c0,0,0,0,0,0c-0.1,0-0.1,0-0.2,0
			c-0.2,0-0.4,0.1-0.7,0.2c-0.1,0-0.2,0.1-0.3,0.2c0,0,0,0,0,0c0,0,0,0.1,0,0.1c0,0.1-0.1,0.2-0.1,0.2c0,0,0,0-0.1,0.1c0,0,0,0,0,0
			c-0.3,0.3-0.5,0.3-0.7,0c0,0,0-0.1-0.1-0.1c0-0.1,0-0.2,0-0.3c0-0.1,0.1-0.1,0.1-0.2c0.1-0.1,0.1-0.1,0.2-0.1
			c0.1,0,0.2-0.1,0.2-0.1c0.1,0,0.1,0,0.2,0c0,0,0.1,0,0.1,0c0,0,0,0,0.1,0c0.1,0,0.1-0.1,0.2-0.1c0.1,0,0.1-0.1,0.2-0.1
			c0,0,0.1,0,0.1,0c-0.6,0-1.1,0-1.7,0.2c-0.1,0-0.2,0.1-0.3,0.1c-0.7,0.2-2-0.2-2-0.3c0-0.1,0.3-0.1,0.7-0.3
			c0.2-0.1,0.4-0.3,0.6-0.3c0.2,0,0.5-0.1,0.6-0.1c-0.1-0.1-0.7-0.2-1-0.2c0,0,0,0,0,0c0,0,0,0,0,0c0,0,0,0,0,0c0,0-0.1,0-0.1,0.1
			c-0.1,0.1-0.3,0.1-0.4,0.1c-0.1,0-0.2,0-0.3-0.1c0,0,0,0,0,0c-0.1,0-0.2-0.1-0.2-0.1c0-0.1-0.1-0.2-0.1-0.3
			c0.1-0.3,0.3-0.4,0.7-0.3c0.2,0.1,0.3,0.1,0.4,0.2c0,0,0,0,0.1,0.1c0,0,0,0,0,0c0.2,0,0.5,0.1,0.7,0.2c0.3,0.1,0.5,0.2,0.6,0.2
			c-0.1,0-0.1-0.1-0.2-0.1c0,0-0.1-0.1-0.2-0.1c-0.1,0-0.2-0.1-0.2-0.1c-0.4-0.2-0.8-0.4-1.1-0.7c-0.2-0.3-0.3-0.4-0.3-0.7
			c-0.1-0.6-0.4-0.9-0.3-0.9c0-0.1,1,0.4,1.3,0.8c0.2,0.3,0.3,0.5,0.3,0.7l0,0c0.1,0.2,0.3,0.4,0.6,0.6c0,0,0.1,0.1,0.1,0.1
			c-0.1-0.1-0.1-0.2-0.2-0.3c0,0,0,0,0-0.1c0,0-0.1,0-0.1-0.1c0,0-0.1-0.1-0.1-0.1c0-0.1-0.1-0.1-0.1-0.2c-0.1-0.2-0.1-0.4,0-0.5
			c0-0.1,0.1-0.2,0.3-0.2c0.3-0.1,0.5,0.1,0.6,0.5c0,0.1,0,0.2,0,0.2c0,0.1,0,0.1,0,0.2c0,0,0,0,0,0.1c0,0,0,0,0,0
			c0.1,0.4,0.5,0.8,0.9,1c-0.5-0.4-0.7-1.4-0.7-1.4c0.1,0,0.5,0.2,0.9,0.4c0.2,0.1,0.4,0.2,0.6,0.3c0.1,0.1,0.2,0.2,0.4,0.3
			c0.1,0.1,0.2,0.2,0.3,0.3l0,0c0.1,0.1,0.1,0.1,0.2,0.2c0,0,0.1,0.1,0.2,0.1c0.1,0.1,0.3,0,0.3,0c0,0,0.1,0,0.2,0c0,0,0,0,0,0
			c0,0,0,0,0,0c0.1-0.1,0.1-0.1,0.2-0.1c0,0,0,0,0-0.1c0-0.1,0.1-0.2,0.2-0.3c0,0,0.1,0,0.1,0c0,0,0,0,0.1,0c0,0,0,0,0.1,0
			c0,0,0.1,0,0.1,0c0-0.1,0.1-0.1,0.1-0.1c0,0,0,0,0,0c0.2-0.1,0.3,0,0.5,0.1c0.1,0.1,0.1,0.1,0.1,0.2c0,0,0,0,0,0.1
			c0,0,0,0.1,0,0.1c0,0,0,0.1,0,0.1c0,0,0,0,0,0c0.1,0,0.2,0,0.3,0c0,0,0,0,0,0c0,0,0,0,0,0c0,0,0,0,0,0c0,0,0.1,0,0.1,0
			c0.1,0,0.1,0,0.2,0c0,0,0,0,0,0c0.1,0,0.1,0,0.2,0c0,0,0.1,0,0.1,0c0,0,0,0,0,0c0,0,0,0,0,0c0,0,0,0,0,0c0,0,0.1,0,0.1,0
			c0-0.1,0-0.1,0-0.2c0-0.1,0-0.1,0-0.2c0,0,0-0.1,0.1-0.1c0,0,0,0,0,0c0,0,0,0,0.1-0.1c0.1-0.1,0.3-0.1,0.4,0c0,0,0,0,0,0
			c0.1,0,0.1,0.1,0.1,0.1c0,0,0.1,0,0.1,0c0,0,0.1,0,0.1,0c0,0,0,0,0.1,0c0,0,0,0,0,0c0.1,0.1,0.2,0.2,0.2,0.3c0,0,0,0,0,0
			c0,0,0,0,0,0c0,0,0,0,0,0c0,0,0.1,0,0.1,0c0,0,0,0,0,0c0,0,0,0,0,0c0,0,0.3,0,0.4,0l0.3,0c0,0,0.1-0.1,0.1-0.1
			c0.1-0.1,0.2-0.2,0.3-0.3c0.1-0.1,0.2-0.2,0.4-0.3c0.2-0.1,0.5-0.2,0.7-0.3c0.7-0.3,0.8-0.7,0.8-0.7c0.1,0-0.2,1.2-0.6,1.6
			c0.4-0.2,0.7-0.6,0.9-1c0,0,0,0,0,0c0,0,0,0,0-0.1c0-0.1,0-0.1,0-0.2c0-0.1,0-0.1,0-0.2c0.1-0.4,0.3-0.5,0.6-0.5
			c0.2,0,0.2,0.1,0.3,0.2c0.1,0.1,0.1,0.3,0,0.5c0,0.1-0.1,0.2-0.1,0.2c0,0.1-0.1,0.1-0.1,0.1c0,0-0.1,0-0.1,0.1c0,0,0,0,0,0.1
			c-0.1,0.1-0.1,0.2-0.2,0.4c0,0,0.1-0.1,0.1-0.1c0.3-0.3,0.5-0.5,0.6-0.7c0.1-0.2,0.1-0.4,0.3-0.7c0.3-0.4,0.4-0.5,0.8-0.7
			c0.1,0,0.5-0.2,0.6-0.1c0,0.1-0.4,0.2-0.5,0.9c-0.1,0.2-0.1,0.5-0.3,0.8c-0.3,0.3-0.5,0.4-0.9,0.6l-0.1,0c-0.1,0-0.2,0.1-0.2,0.1
			c-0.1,0.1-0.2,0.1-0.3,0.2c0.2,0,0.4-0.1,0.7-0.2c0.2-0.1,0.5-0.2,0.7-0.2c0,0,0,0,0,0c0,0,0-0.1,0.1-0.1c0.1-0.1,0.2-0.2,0.4-0.2
			c0.4-0.1,0.6,0,0.7,0.3C37.7,42.1,37.7,42.2,37.7,42.3z"/>
		<polygon class="st0" points="30.3,42.2 30.3,42.2 30.3,42.2 		"/>
		<path class="st0" d="M49.6,28.5c1-0.5,2.8-1.6,3.4-2.4c-1-0.3-2.9-0.5-4-0.6c2.3-1.6,2.4-4.9,1.7-7.3c-0.5,2-1.9,3.5-2.8,4.5
			c0.1,0.9-0.2,2.6-0.7,3.6c0.7,0.3,1.6,0.7,2.2,1.2c-0.4,0.5-1.3,1.3-1.9,1.8c0.5,0.5,1.3,1.4,1.6,1.9c-0.5,0.4-1.7,0.8-2.2,1
			c0.3,0.6,0.7,1.7,0.8,2.4c-0.7,0.1-1.6,0.2-2.5,0.2c0,0.7-0.1,1.8-0.2,2.5c-0.9-0.1-1.9-0.4-2.4-0.7c-0.2,1-0.9,1.9-0.9,2
			c-0.9-0.9-1.7-1.3-2.4-1.3v-0.6c0.8,0,1.6,0.3,2.2,0.9c0.3-0.5,0.6-1.4,0.7-1.9c0.6,0.3,1.4,0.6,2.2,0.7c0.1-0.7,0.1-1.6,0-2.3
			c0.7,0.1,1.6,0.1,2.5-0.1c-0.1-0.6-0.7-1.6-1-2.2c0.8-0.2,1.7-0.6,2.2-0.9c-0.4-0.5-1.1-1.3-1.6-1.8c0.6-0.4,1.4-1.1,1.8-1.5
			c-0.6-0.4-1.5-0.8-2.1-1.1c0.9-1.3,1.2-4,1-5.2l0,0c-0.9,2.8-3.3,4.9-4.8,5.8c-0.1,0.1-0.1,0.1-0.2,0.2l0,0c0,0,0,0,0,0
			c0,0,0,0,0,0c-0.1,0.1-0.4,0.4-0.2,0.8c0,0.1,0,0.2,0.1,0.3c0.1,0.5,0.1,1.4-0.7,2.1c-0.7,0.6-1.5,0.7-2,0.6l0-1.5
			c0-0.2-0.2-0.4-0.4-0.4h-1l-0.4-0.5c0,0,0.5,0,1,0c0.5,0,1.2-0.3,1.2-0.3s-0.6,0-0.9-0.1c-0.3-0.1-1.1-0.4-1.7-1.1
			c-0.2-0.3-0.4-0.6-0.5-0.8c-0.6-0.5-1.1-1.1-1.5-2c-0.3-0.6-0.4-1.5-0.5-2.1c-0.2,0.2-0.4,0.4-0.7,0.8c-0.5,0.6-0.7,1.5-0.7,1.5
			L33,25.5l-0.4-0.6c0,0-0.5-0.8-0.6-1.8c0-0.4,0-0.9,0-1.2c-0.2,0.1-0.3,0.2-0.5,0.3c-0.8,0.6-1.3,1.3-1.3,1.3
			c-0.4,0.6-0.7,1-0.8,1.3c-0.1-0.3-0.3-0.7-0.8-1.3c0,0-0.4-0.7-1.3-1.3c-0.2-0.1-0.4-0.3-0.5-0.3c0,0.3,0.1,0.8,0,1.2
			c-0.1,1-0.5,1.8-0.6,1.8l-0.4,0.6l-0.2-0.7c0,0-0.3-0.9-0.7-1.5c-0.3-0.3-0.5-0.6-0.7-0.8c-0.1,0.6-0.2,1.5-0.5,2.1
			c-0.4,0.9-1,1.6-1.5,2c-0.1,0.3-0.3,0.6-0.5,0.8c-0.6,0.7-1.4,1-1.7,1.1c-0.3,0.1-0.9,0.1-0.9,0.1s0.6,0.3,1.2,0.3c0.5,0,1,0,1,0
			l-0.4,0.5h-1c-0.2,0-0.4,0.2-0.4,0.4l0,1.5c-0.5,0-1.3,0-2-0.6c-0.8-0.8-0.8-1.6-0.7-2.1c0-0.1,0.1-0.2,0.1-0.3
			c0.1-0.4-0.2-0.8-0.2-0.8c0,0,0,0,0,0c0,0,0,0,0,0l0,0c-0.1-0.1-0.1-0.1-0.2-0.2c-1.5-0.9-3.9-3-4.8-5.8l0,0c-0.2,1.2,0,3.9,1,5.2
			c-0.7,0.3-1.5,0.7-2.1,1.1c0.4,0.4,1.2,1.1,1.8,1.5c-0.5,0.4-1.2,1.2-1.6,1.8c0.5,0.3,1.4,0.7,2.2,0.9c-0.3,0.6-0.9,1.6-1,2.2
			c0.8,0.2,1.7,0.2,2.5,0.1c-0.1,0.7,0,1.6,0,2.3c0.8-0.1,1.6-0.4,2.2-0.7c0.1,0.5,0.4,1.4,0.7,1.9c0.6-0.6,1.4-0.9,2.2-0.9v0.6
			c-0.7,0-1.6,0.4-2.4,1.3c0-0.1-0.6-1-0.9-2c-0.5,0.2-1.5,0.6-2.4,0.7c-0.1-0.7-0.2-1.8-0.2-2.5c-1,0-1.9-0.1-2.5-0.2
			c0.1-0.7,0.5-1.8,0.8-2.4c-0.6-0.2-1.7-0.7-2.2-1c0.4-0.5,1.2-1.4,1.6-1.9c-0.6-0.4-1.5-1.2-1.9-1.8c0.6-0.5,1.5-0.9,2.2-1.2
			c-0.5-1-0.8-2.7-0.7-3.6c-0.9-1-2.3-2.5-2.8-4.5C7.7,20.6,7.8,24,10,25.5c-1.1,0-3,0.2-4,0.6c0.7,0.8,2.4,2,3.4,2.4
			c-0.8,0.3-2.3,1.1-2.9,1.7c0.8,0.5,2.5,1,3.3,1.2c-0.5,0.4-1.4,1.5-1.8,2.1c0.7,0.2,2.1,0.4,2.9,0.4c-0.3,0.6-0.6,1.6-0.7,2.3
			c0.4,0,1.9,0,2.6-0.2c-0.1,0.6,0,1.7,0.1,2.1c0.7-0.1,1.7-0.4,2.2-0.6c0.1,0.5,0.6,1.7,0.8,1.9c0.3-0.1,0.7-0.2,1-0.3
			c0.9-0.3,2,0.1,2.4,1c0.7,1.6,0.4,3.5-0.9,3.1C17,43.5,18,45.4,17.2,46c1.2,0.8,1.5-1.1,3-0.8c-0.2,0.7-0.1,2,0,2.5
			c0.5-0.4,1.1-0.7,1.6-0.7c-0.1,0.4-0.2,1.4,0,2c0.3-0.2,2.2-0.7,2.2-0.7s-0.8,1.5-0.3,3c0.3,0.2,2-0.7,2-1.2
			c0.1,0.6-0.7,2-1.8,2.3c1.2,1.2,2.3,1.2,2.5,1.2c0.2,0,0.3,0,0.5-0.1c-0.1,0.4-0.1,0.8-0.1,1.1c0.1,0,0.1,0,0.2,0
			c0.3,0,0.6,0,0.8-0.2c0,0.3,0.2,0.7,0.4,1c0,0.1,0.1,0.1,0.2,0.1c0.3,0,1-0.3,1.1-0.5v0c0,0,0,0,0,0c0,0,0,0,0,0v0
			c0.1,0.2,0.8,0.5,1.1,0.5c0.1,0,0.1-0.1,0.2-0.1c0.2-0.3,0.4-0.7,0.4-1c0.2,0.1,0.5,0.2,0.8,0.2c0.1,0,0.1,0,0.2,0
			c0.1-0.3,0-0.7-0.1-1.1c0.2,0.1,0.3,0.1,0.5,0.1c0.2,0,1.3,0,2.5-1.2c-1.1-0.3-1.9-1.6-1.8-2.3c0,0.5,1.8,1.4,2,1.2
			c0.5-1.5-0.3-3-0.3-3s1.9,0.5,2.2,0.7c0.2-0.6,0.1-1.6,0-2c0.4,0,1.1,0.3,1.6,0.7c0.1-0.5,0.1-1.8,0-2.5c1.5-0.3,1.8,1.6,3,0.8
			c-0.9-0.6,0.2-2.5-1.3-2.8c-1.3,0.4-1.6-1.5-0.9-3.1c0.4-0.9,1.5-1.3,2.4-1c0.3,0.1,0.7,0.2,1,0.3c0.2-0.3,0.7-1.4,0.8-1.9
			c0.5,0.2,1.5,0.5,2.2,0.6c0.1-0.5,0.1-1.5,0.1-2.1c0.7,0.2,2.2,0.2,2.6,0.2c-0.1-0.7-0.4-1.7-0.7-2.3c0.9-0.1,2.3-0.2,2.9-0.4
			c-0.4-0.6-1.3-1.7-1.8-2.1c0.8-0.2,2.5-0.7,3.3-1.2C51.9,29.6,50.4,28.8,49.6,28.5z M38.5,44c0,0.1-0.1,0.2-0.2,0.3
			c0,0,0,0.1-0.1,0.1c-0.1,0.1-0.1,0.2-0.2,0.3c0,0-0.1,0.1-0.1,0.1c-0.1,0.1-0.2,0.2-0.3,0.3c-0.1,0.1-0.1,0.1-0.2,0.2
			c-0.1,0.1-0.1,0.1-0.2,0.2c-0.1,0.1-0.2,0.2-0.3,0.2c0,0-0.1,0.1-0.2,0.1c-0.2,0.2-0.5,0.4-0.7,0.6c0,0,0,0,0,0
			c-0.3,0.2-0.7,0.5-1.1,0.7h0c-0.1,0.1-0.3,0.2-0.4,0.2c-3.1,1.6-4.6,2.8-5.1,3.2c0,0,0,0,0,0c-0.5-0.4-2-1.6-5.1-3.2
			c-0.1-0.1-0.3-0.1-0.4-0.2h0c-0.4-0.2-0.7-0.4-1.1-0.7c0,0,0,0,0,0c-0.3-0.2-0.5-0.4-0.7-0.6c-0.1,0-0.1-0.1-0.2-0.1
			c-0.1-0.1-0.2-0.2-0.3-0.2c-0.1-0.1-0.1-0.1-0.2-0.2c-0.1-0.1-0.1-0.1-0.2-0.2c-0.1-0.1-0.2-0.2-0.3-0.3c0,0-0.1-0.1-0.1-0.1
			c-0.1-0.1-0.1-0.2-0.2-0.3c0,0-0.1-0.1-0.1-0.1c-0.1-0.1-0.1-0.2-0.2-0.3c-0.4-0.9-0.3-1.6-0.3-1.6l0,0l0-12
			c0-0.2,0.2-0.4,0.4-0.4h1.1h7.9h0h0h0h7.9h1.1c0.2,0,0.4,0.2,0.4,0.4l0,12l0,0C38.9,42.3,38.9,43.1,38.5,44z"/>
		<polygon class="st0" points="37.8,9.3 37.8,9.3 37.8,9.3 		"/>
		<path class="st0" d="M38.1,11c0.2,0,0.4-0.2,0.4-0.5c0-0.2-0.2-0.5-0.4-0.5c-0.2,0-0.4,0.2-0.4,0.5C37.7,10.8,37.9,11,38.1,11z"/>
		<path class="st0" d="M38.1,13.5c0.3,0,0.5-1.2,0.5-1.7c0-0.3-0.2-0.5-0.5-0.5c-0.3,0-0.5,0.2-0.5,0.5
			C37.6,12.4,37.8,13.5,38.1,13.5z"/>
		<polygon class="st0" points="37.8,9.3 38.4,9.3 38.4,8.6 39.1,8.7 39.1,8.1 38.4,8.1 38.4,7.4 37.8,7.4 37.9,8.1 37.2,8.1 
			37.2,8.7 37.9,8.6 		"/>
		<path class="st0" d="M35.5,14.9c0.2,0,0.4,0.1,0.6,0.1c0,0,0,0,0.1,0l0,0l0,0l0,0l0,0l0,0h0l0,0l0,0l0,0c0,0,0,0,0,0l0,0l0.1,0
			l0,0c0,0,0.1,0,0.1,0l0.1,0c0.1,0,0.1,0,0.2,0c0,0,0.1,0,0.1,0c0.1,0,0.1,0,0.2,0c0.5,0,1.1-0.2,1.6-0.3c0.5-0.1,1.1-0.3,1.7-0.3
			l0.1,0c0,0,0.1,0,0.1,0l0,0h0h0c0,0,0,0,0,0h0h0l0,0l0,0h0.1h0l0,0l0,0h0l0,0c0,0,0,0,0.1,0c0.2-0.6,0.3-1.3,0.3-1.7
			c0-0.8-0.5-1.7-2.1-2c0,1-0.5,3.4-1.1,3.4h-0.1c-0.6,0-1.1-2.4-1.1-3.4c-1.6,0.3-2,1.2-2,2c0,0.4,0.2,1.4,0.4,2
			C35.4,14.8,35.4,14.9,35.5,14.9z"/>
		<path class="st0" d="M43.7,10.6L43.7,10.6c0,0-0.4-1.1,0.3-1.4c0.7-0.3-0.3-0.1,0.3-1.6v0c0.6-1.8,2-1.4,2-1.4
			c-1-0.8-1.7-0.7-2.2-0.3c-0.3,0.3-0.8,0.8-1.2,1.9C42.5,9.1,43,10.4,43.7,10.6z"/>
		<path class="st0" d="M47.3,7.9c0.1,2.3,3.9,3.2,3.9,3.2s-2.2-1.6-1.8-2.7c0,0,1.4,0.6,3.1,0.4C49,8,50.1,6.9,49.3,6
			c-0.9-0.9-2.3-1-2.6-1.1c-0.9-0.1-0.9,0-2,0.2C47,5.1,47.2,6.4,47.3,7.9z"/>
		<path class="st0" d="M46.7,12.2c0.5-1.8-0.4-2.6-0.4-2.6c-0.3-0.3-1.7-0.3-2.2,0.1c0,0,1.4,0,1.2,2c-0.2,2-3,2.4-3.7,2.5l-0.1,0.2
			C42.8,14.4,46.2,14,46.7,12.2z"/>
		<path class="st0" d="M32.4,12.1H31c0.7,1.9,2.6,2.5,4,2.7l-0.1-0.2C33.6,14.1,32.9,13.5,32.4,12.1z"/>
		<path class="st0" d="M21,11c0.2,0,0.4-0.2,0.4-0.5c0-0.2-0.2-0.5-0.4-0.5c-0.2,0-0.4,0.2-0.4,0.5C20.6,10.8,20.8,11,21,11z"/>
		<path class="st0" d="M21,13.5c0.3,0,0.5-1.2,0.5-1.7c0-0.3-0.2-0.5-0.5-0.5c-0.3,0-0.5,0.2-0.5,0.5C20.4,12.4,20.7,13.5,21,13.5z"
			/>
		<polygon class="st0" points="20.7,9.3 21.3,9.3 21.2,8.6 21.9,8.7 21.9,8.1 21.2,8.1 21.3,7.4 20.7,7.4 20.8,8.1 20,8.1 20,8.7 
			20.8,8.6 		"/>
		<polygon class="st0" points="21.3,9.3 21.3,9.3 21.3,9.3 		"/>
		<path class="st0" d="M18.2,14.5L18.2,14.5L18.2,14.5L18.2,14.5L18.2,14.5L18.2,14.5l0.1,0l0,0l0,0h0h0c0,0,0,0,0,0h0h0l0,0
			c0,0,0.1,0,0.1,0l0.1,0c0.6,0,1.2,0.2,1.7,0.3c0.5,0.1,1.1,0.2,1.6,0.3c0.1,0,0.1,0,0.2,0c0,0,0.1,0,0.1,0c0.1,0,0.1,0,0.2,0
			l0.1,0c0,0,0.1,0,0.1,0l0,0l0.1,0l0,0c0,0,0,0,0,0l0,0l0,0l0,0h0l0,0l0,0l0,0l0,0l0,0c0,0,0,0,0.1,0c0.2,0,0.4-0.1,0.6-0.1
			c0,0,0-0.1,0-0.1c0.2-0.6,0.4-1.5,0.4-2c0-0.8-0.4-1.7-2-2c0,1-0.5,3.4-1.1,3.4H21c-0.6,0-1.1-2.4-1.1-3.4c-1.6,0.3-2.1,1.2-2.1,2
			C17.8,13.2,18,13.9,18.2,14.5C18.2,14.5,18.2,14.5,18.2,14.5z"/>
		<path class="st0" d="M12.8,6.1c0,0,1.4-0.4,2,1.4v0c0.5,1.5-0.5,1.3,0.3,1.6c0.7,0.3,0.3,1.4,0.3,1.4l0,0c0.7-0.1,1.2-1.4,0.8-2.9
			c-0.3-1.1-0.8-1.6-1.2-1.9C14.5,5.4,13.8,5.3,12.8,6.1z"/>
		<path class="st0" d="M9.7,8.4C10.2,9.5,8,11.1,8,11.1s3.8-0.9,3.9-3.2c0-1.5,0.3-2.8,2.6-2.8c-1-0.2-1.1-0.2-2-0.2
			C12.1,4.9,10.7,5,9.9,6C9,6.9,10.2,8,6.6,8.7C8.3,9,9.7,8.4,9.7,8.4z"/>
		<path class="st0" d="M13.9,11.6c-0.2-2,1.2-2,1.2-2c-0.5-0.4-2-0.4-2.2-0.1c0,0-0.9,0.8-0.4,2.6c0.5,1.8,4,2.2,5.3,2.2l-0.1-0.2
			C16.8,14,14.1,13.6,13.9,11.6z"/>
		<path class="st0" d="M28.1,12.1h-1.4c-0.4,1.4-1.2,2-2.5,2.5l-0.1,0.2C25.5,14.7,27.4,14,28.1,12.1z"/>
		<path class="st0" d="M31.3,20.5c-0.4,0.6-0.8,1.3-1,2c0.2-0.2,0.5-0.5,0.9-0.8c0.6-0.4,1.1-0.7,1.2-0.7l0.5-0.2l-0.1,0.6
			c0,0-0.2,0.9-0.1,1.7c0,0.3,0.1,0.7,0.2,0.9c0.1-0.3,0.3-0.7,0.5-1c0.7-0.9,1.2-1.2,1.3-1.2l0.4-0.2l0,0.4c0,0,0.1,1.6,0.5,2.4
			c0.6,1.4,1.8,2.1,2.5,2.5c-0.1-0.1-0.2-0.2-0.3-0.4c-0.3-0.4-0.7-1-0.9-2.3c-0.2-1.1,0.3-2.2,0.4-2.6c0.1,0.3,0.2,0.5,0.3,0.6
			c0,0,0-0.3,0-0.5c0.1-0.8,1-1.9,2-2.6c0.2-0.2,0.4-0.3,0.6-0.4c0.2-0.1,0.3-0.2,0.5-0.3c-0.2,0-0.5,0.1-0.7,0.1l-0.1,0
			c-0.2,0-0.4,0-0.6,0c-0.5,0-1.2-0.1-1.7-0.5c-0.5-0.4-0.7-0.8-0.8-1.1c-0.2,0-0.5,0-0.9,0c-0.4,0-0.8-0.1-1-0.2
			c-0.5,0.3-1.1,0.5-1.8,0.5c-0.1,0-0.2,0-0.3,0c0.2,0.2,0.5,0.3,0.7,0.4c0,0,0,0,0,0l-0.2,0.1C33.7,17.8,32.8,18.3,31.3,20.5z"/>
		<path class="st0" d="M40.3,16.7c-0.2,0-0.5,0-0.8,0c0,0.2,0,0.3,0,0.4c0,0.2,0.1,0.4,0.3,0.5C40.1,17.4,40.2,17.1,40.3,16.7z"/>
		<path class="st0" d="M40.8,15.1L40.8,15.1L40.8,15.1C40.8,15.1,40.8,15.1,40.8,15.1L40.8,15.1L40.8,15.1L40.8,15.1L40.8,15.1
			L40.8,15.1c-0.1,0-0.1,0-0.1,0h0h0h0h0h0c0,0,0,0,0,0h0h0h0c0,0,0,0,0,0c0,0-0.1,0-0.1,0c-0.5,0-1.1,0.2-1.6,0.3
			c-0.6,0.1-1.2,0.3-1.7,0.3c-0.1,0-0.2,0-0.4,0c-0.1,0-0.1,0-0.2,0c0,0-0.1,0-0.1,0c0,0-0.1,0-0.1,0c0,0,0,0,0,0c0,0,0,0,0,0
			c0,0,0,0,0,0c0,0,0,0,0,0c0,0,0,0,0,0c0,0,0,0,0,0c0,0,0,0,0,0c0,0,0,0,0,0c-1.2-0.2-2.1-0.5-2.5-0.8c0.1,0.1,0.2,0.3,0.4,0.5
			c0.1,0.1,0.1,0.1,0.2,0.2c0.2,0.1,0.3,0.3,0.6,0.4c0.3,0.1,1.4,0.6,2.9,0.4c1.7-0.2,2-0.2,2.5-0.2l0.2,0c0.6,0,1.5,0.4,1.8,0.7
			c0.2-0.3,0.3-0.7,0.4-1.1c-0.1-0.1-0.2-0.2-0.4-0.3c-0.1,0-0.2-0.1-0.3-0.1c-0.2-0.1-0.4-0.1-0.6-0.1C41.1,15.1,41,15.1,40.8,15.1
			L40.8,15.1z"/>
		<path class="st0" d="M45.7,20.8L45.7,20.8C45.7,20.7,45.7,20.7,45.7,20.8c-0.1,0-0.7,0.3-2-0.5c-1.3-0.8-2.3-1.2-2.8-1.3
			c-0.1,0.1-0.2,0.1-0.4,0.2c-0.2,0.1-0.3,0.2-0.5,0.3c-0.1,0-0.1,0.1-0.2,0.1c0,0,0.1,0,0.1,0c1.2,0.1,2.2,0.8,2.3,1.1c0,0,0,0,0,0
			c0.1-0.4,0-0.7,0-0.7s0.6,0.4,1.7,1C45,21.7,45.5,21,45.7,20.8z"/>
		<path class="st0" d="M39.1,17.4c-0.1-0.1-0.2-0.2-0.2-0.3c-0.1-0.1-0.1-0.2-0.1-0.3c-0.3,0-0.6,0.1-1.1,0.1c-0.1,0-0.2,0-0.3,0
			c0.2,0.4,0.6,0.8,1.3,1c0,0,0.1,0,0.1,0c0,0,0.1,0,0.1,0c0.3,0,0.6,0.1,0.9,0.1c0.5,0,1-0.1,1.6-0.2c0.1-0.1,0.2-0.3,0.4-0.5
			c0,0-0.1,0-0.1-0.1c-0.1-0.1-0.5-0.3-0.7-0.4c-0.1,0.2-0.2,0.4-0.3,0.5c-0.2,0.1-0.5,0.2-0.7,0.2c-0.3,0-0.5-0.1-0.7-0.2
			C39.2,17.4,39.1,17.4,39.1,17.4z"/>
		<path class="st0" d="M42.8,16.4c-0.4,1.1-1.1,1.9-1.6,2.3c0,0,0,0,0,0c3.1-0.8,3.6,0.7,3.6,0.8c0,0.1,0,0.1,0.1,0
			c0.1-0.1,1.1-1.2,0.3-2.2C44.7,16.5,43.2,16.4,42.8,16.4z M42.8,17.2L42.8,17.2c0.1-0.2,0.2-0.4,0.2-0.4c0.2,0,0.6,0.1,0.6,0.4
			C43.4,17,43,17.1,42.8,17.2z"/>
		<path class="st0" d="M19.6,17.1c0-0.1,0-0.3,0-0.4c-0.3,0-0.5,0-0.8,0c0.1,0.4,0.3,0.7,0.5,0.9C19.4,17.5,19.5,17.3,19.6,17.1z"/>
		<path class="st0" d="M23.1,15.6C23.1,15.6,23.1,15.6,23.1,15.6C23,15.6,23,15.6,23.1,15.6C23,15.6,23,15.6,23.1,15.6
			c-0.1,0-0.1,0-0.1,0c0,0,0,0,0,0c0,0,0,0,0,0c0,0,0,0,0,0c0,0-0.1,0-0.1,0c0,0-0.1,0-0.1,0c-0.1,0-0.1,0-0.2,0c-0.1,0-0.2,0-0.4,0
			c-0.6,0-1.2-0.2-1.7-0.3c-0.5-0.1-1.1-0.2-1.6-0.3c-0.1,0-0.1,0-0.1,0c0,0,0,0,0,0h0h0h0c0,0,0,0,0,0h0h0h0h0h0c0,0,0,0,0,0h0h0h0
			h0h0c0,0,0,0,0,0h0h0h0c-0.1,0-0.2,0-0.4,0c-0.2,0-0.4,0.1-0.6,0.1c-0.1,0-0.2,0.1-0.3,0.1c-0.2,0.1-0.4,0.2-0.4,0.3
			c0.1,0.4,0.2,0.7,0.4,1.1c0.4-0.2,1.3-0.6,1.8-0.7l0.2,0c0.4,0,0.7-0.1,2.5,0.2c1.5,0.2,2.6-0.3,2.9-0.4c0.2-0.1,0.4-0.3,0.6-0.4
			c0.1-0.1,0.2-0.1,0.2-0.2c0.2-0.2,0.3-0.3,0.4-0.5C25.2,15.1,24.3,15.4,23.1,15.6C23.1,15.6,23.1,15.6,23.1,15.6z"/>
		<path class="st0" d="M13.5,20.8L13.5,20.8c0.2,0.2,0.7,1,1.8,0.3c1.1-0.6,1.7-1,1.7-1s-0.2,0.3,0,0.7c0,0,0,0,0,0
			c0.1-0.3,1.1-1,2.3-1.1c0.1,0,0.1,0,0.1,0c-0.1,0-0.1-0.1-0.2-0.1c-0.2-0.2-0.4-0.2-0.5-0.3c-0.1-0.1-0.2-0.1-0.4-0.2
			c-0.5,0.1-1.5,0.4-2.8,1.3C14.1,21.1,13.5,20.7,13.5,20.8C13.5,20.7,13.4,20.7,13.5,20.8z"/>
		<path class="st0" d="M18.1,16.9c-0.2,0.1-0.5,0.3-0.7,0.4c0,0-0.1,0-0.1,0.1c0.1,0.2,0.2,0.3,0.4,0.5c0.5,0.1,1.1,0.2,1.6,0.2
			c0.3,0,0.5,0,0.9-0.1c0,0,0.1,0,0.1,0c0,0,0.1,0,0.1,0c0.7-0.2,1.1-0.6,1.3-1c-0.1,0-0.2,0-0.3,0c-0.4-0.1-0.8-0.1-1.1-0.1
			c0,0.1-0.1,0.2-0.1,0.3c-0.1,0.1-0.1,0.2-0.2,0.3c0,0-0.1,0.1-0.1,0.1c-0.2,0.1-0.4,0.2-0.7,0.2c-0.3,0-0.5-0.1-0.7-0.2
			C18.3,17.3,18.2,17.1,18.1,16.9z"/>
		<path class="st0" d="M13.8,17.3c-0.7,1,0.3,2.1,0.3,2.2c0,0.1,0.1,0,0.1,0c0-0.1,0.5-1.6,3.6-0.8c0,0,0,0,0,0
			c-0.5-0.4-1.2-1.3-1.6-2.3C15.9,16.4,14.5,16.5,13.8,17.3z M16.3,17.2c-0.2-0.1-0.6-0.1-0.9-0.1c0-0.3,0.4-0.4,0.6-0.4
			C16.1,16.7,16.2,17,16.3,17.2L16.3,17.2z"/>
		<path class="st0" d="M26,17.3c-0.1,0-0.2,0-0.3,0c-0.7,0-1.3-0.2-1.8-0.5c-0.2,0.1-0.6,0.1-1,0.2c-0.4,0-0.7,0-0.9,0
			c-0.1,0.3-0.3,0.7-0.8,1.1c-0.5,0.4-1.1,0.5-1.7,0.5c-0.2,0-0.5,0-0.6,0l-0.1,0c-0.2,0-0.4-0.1-0.7-0.1c0.2,0.1,0.3,0.2,0.5,0.3
			c0.2,0.1,0.3,0.2,0.6,0.4c1.1,0.7,1.9,1.9,2,2.6c0.1,0.3,0,0.5,0,0.5c0.1-0.1,0.3-0.3,0.3-0.6c0.1,0.3,0.6,1.5,0.4,2.6
			c-0.2,1.3-0.6,1.9-0.9,2.3c-0.1,0.1-0.2,0.3-0.3,0.4c0.7-0.3,1.9-1.1,2.5-2.5C23.9,23.6,24,22,24,22l0-0.4l0.4,0.2
			c0,0,0.6,0.3,1.3,1.2c0.2,0.3,0.4,0.7,0.5,1c0.1-0.3,0.2-0.6,0.2-0.9c0.1-0.8-0.1-1.7-0.1-1.7l-0.1-0.6l0.5,0.2
			c0,0,0.5,0.2,1.2,0.7c0.4,0.3,0.7,0.6,0.9,0.8c-0.3-0.7-0.6-1.3-1-2c-1.4-2.2-2.4-2.7-2.4-2.7l-0.2-0.1c0,0,0,0,0,0
			C25.6,17.6,25.8,17.5,26,17.3z"/>
	</g>
</g>
</svg>
