<svg width="146" height="39" viewBox="0 0 146 39" fill="none" xmlns="http://www.w3.org/2000/svg">
<g clip-path="url(#clip0)">
<path d="M56.3998 15.8H54.7998V8H56.3998L58.6998 11.2L60.8998 8H62.4998V15.8H60.8998V10.4L59.0998 13H58.1998L56.3998 10.5V15.8Z" fill="#414042"/>
<path d="M65.6998 15.8H64.2998V8H65.8998V13.1L69.6998 8H71.0998V15.8H69.4998V10.7L65.6998 15.8Z" fill="#414042"/>
<path d="M74.6 15.8H73V8H74.6V10.9H78.1V8H79.7V15.8H78.1V12.4H74.6V15.8Z" fill="#414042"/>
<path d="M81.2002 11.8998C81.2002 10.6998 81.6002 9.7998 82.4002 8.9998C83.2002 8.1998 84.1002 7.7998 85.3002 7.7998C86.5002 7.7998 87.4002 8.1998 88.2002 8.9998C89.0002 9.7998 89.4002 10.7998 89.4002 11.8998C89.4002 12.9998 89.0002 13.9998 88.2002 14.7998C87.4002 15.5998 86.5002 15.9998 85.3002 15.9998C84.1002 15.9998 83.2002 15.5998 82.4002 14.7998C81.6002 13.9998 81.2002 12.9998 81.2002 11.8998ZM83.5002 13.6998C84.0002 14.1998 84.5002 14.3998 85.2002 14.3998C85.9002 14.3998 86.5002 14.1998 86.9002 13.6998C87.4002 13.1998 87.6002 12.5998 87.6002 11.8998C87.6002 11.1998 87.4002 10.4998 86.9002 10.0998C86.4002 9.5998 85.9002 9.3998 85.2002 9.3998C84.5002 9.3998 83.9002 9.5998 83.5002 10.0998C83.0002 10.5998 82.8002 11.1998 82.8002 11.8998C82.8002 12.5998 83.0002 13.1998 83.5002 13.6998Z" fill="#414042"/>
<path d="M94.1002 15.8H90.7002V8H96.4002V9.4H92.3002V10.7H94.1002C95.0002 10.7 95.7002 10.9 96.3002 11.4C96.8002 11.9 97.1002 12.5 97.1002 13.3C97.1002 14.1 96.8002 14.7 96.3002 15.2C95.8002 15.6 95.1002 15.8 94.1002 15.8ZM92.4002 12V14.4H94.0002C94.5002 14.4 94.8002 14.3 95.1002 14.1C95.4002 13.9 95.5002 13.6 95.5002 13.2C95.5002 12.8 95.4002 12.5 95.1002 12.3C94.8002 12.1 94.5002 12 94.0002 12H92.4002Z" fill="#414042"/>
<path d="M100.1 15.8H98.5V8H101.9C102.7 8 103.4 8.2 103.9 8.7C104.4 9.1 104.6 9.7 104.6 10.4C104.6 11.1 104.4 11.7 103.9 12.1C103.4 12.5 102.7 12.8 101.9 12.8H100.1V15.8ZM100.1 9.4V11.3H101.8C102.2 11.3 102.5 11.2 102.7 11C102.9 10.8 103 10.6 103 10.3C103 10 102.9 9.7 102.7 9.6C102.5 9.5 102.2 9.3 101.8 9.3H100.1V9.4Z" fill="#414042"/>
<path d="M107.499 15.8H105.899V8H107.499V10.9H110.999V8H112.599V15.8H110.999V12.4H107.499V15.8Z" fill="#414042"/>
<path d="M115.5 15.7999H113.8L117.2 7.8999H118.7L122.1 15.7999H120.4L119.6 13.9999H116.3L115.5 15.7999ZM117.9 9.8999L116.7 12.5999H119L117.9 9.8999Z" fill="#414042"/>
<path d="M124.4 16C123.9 16 123.5 15.9 123.2 15.8V14.4C123.5 14.5 123.8 14.6 124.1 14.6C124.4 14.6 124.7 14.5 124.9 14.4C125.1 14.3 125.3 14 125.5 13.5L122.5 8H124.3L126.3 11.9L128 8H129.7L126.8 14.1C126.3 15.3 125.4 16 124.4 16Z" fill="#414042"/>
<path d="M132.499 15.8H130.899V8H132.499V11.1L135.399 8H137.399L134.099 11.6L137.999 15.8H135.899L132.499 12.2V15.8Z" fill="#414042"/>
<path d="M140.3 15.8H139V8H140.6V13.1L144.4 8H145.8V15.8H144.2V10.7L140.3 15.8Z" fill="#414042"/>
<path d="M56.3998 28.3996H54.7998V20.5996H58.1998C58.9998 20.5996 59.6998 20.7996 60.1998 21.2996C60.6998 21.6996 60.8998 22.2996 60.8998 22.9996C60.8998 23.6996 60.6998 24.2996 60.1998 24.6996C59.6998 25.0996 58.9998 25.3996 58.1998 25.3996H56.3998V28.3996ZM56.3998 21.9996V23.8996H58.0998C58.4998 23.8996 58.7998 23.7996 58.9998 23.5996C59.1998 23.3996 59.2998 23.1996 59.2998 22.8996C59.2998 22.5996 59.1998 22.2996 58.9998 22.1996C58.7998 22.0996 58.4998 21.9996 58.0998 21.9996H56.3998Z" fill="#414042"/>
<path d="M62 24.4999C62 23.2999 62.4 22.3999 63.2 21.5999C64 20.7999 64.9 20.3999 66.1 20.3999C67.3 20.3999 68.2 20.7999 69 21.5999C69.8 22.3999 70.2 23.3999 70.2 24.4999C70.2 25.5999 69.8 26.5999 69 27.3999C68.2 28.1999 67.3 28.5999 66.1 28.5999C64.9 28.5999 64 28.1999 63.2 27.3999C62.4 26.5999 62 25.5999 62 24.4999ZM64.3 26.2999C64.8 26.7999 65.3 26.9999 66 26.9999C66.7 26.9999 67.3 26.7999 67.7 26.2999C68.2 25.7999 68.4 25.1999 68.4 24.4999C68.4 23.7999 68.2 23.0999 67.7 22.6999C67.2 22.1999 66.7 21.9999 66 21.9999C65.3 21.9999 64.7 22.1999 64.3 22.6999C63.8 23.1999 63.6 23.7999 63.6 24.4999C63.6 25.1999 63.9 25.7999 64.3 26.2999Z" fill="#414042"/>
<path d="M75.5994 28.5996C74.3994 28.5996 73.3994 28.1996 72.5994 27.4996C71.7994 26.6996 71.3994 25.6996 71.3994 24.5996C71.3994 23.3996 71.7994 22.3996 72.5994 21.6996C73.3994 20.8996 74.3994 20.5996 75.5994 20.5996C76.3994 20.5996 77.0994 20.7996 77.6994 21.0996V22.6996C77.0994 22.2996 76.3994 22.0996 75.5994 22.0996C74.8994 22.0996 74.1994 22.2996 73.6994 22.7996C73.1994 23.2996 72.9994 23.8996 72.9994 24.5996C72.9994 25.2996 73.2994 25.9996 73.7994 26.3996C74.2994 26.8996 74.8994 27.0996 75.6994 27.0996C76.5994 27.0996 77.2994 26.8996 77.8994 26.3996V27.9996C77.1994 28.3996 76.4994 28.5996 75.5994 28.5996Z" fill="#414042"/>
<path d="M83.0994 28.5996C81.8994 28.5996 80.8994 28.1996 80.0994 27.4996C79.2994 26.6996 78.8994 25.6996 78.8994 24.5996C78.8994 23.3996 79.2994 22.3996 80.0994 21.6996C80.8994 20.8996 81.8994 20.5996 83.0994 20.5996C83.8994 20.5996 84.5994 20.7996 85.1994 21.0996V22.6996C84.5994 22.2996 83.8994 22.0996 83.0994 22.0996C82.3994 22.0996 81.6994 22.2996 81.1994 22.7996C80.6994 23.2996 80.4994 23.8996 80.4994 24.5996C80.4994 25.2996 80.7994 25.9996 81.2994 26.3996C81.7994 26.8996 82.3994 27.0996 83.1994 27.0996C84.0994 27.0996 84.7994 26.8996 85.3994 26.3996V27.9996C84.6994 28.3996 83.9994 28.5996 83.0994 28.5996Z" fill="#414042"/>
<path d="M88.1998 28.3996H86.7998V20.5996H88.3998V25.6996L92.1998 20.5996H93.5998V28.3996H91.9998V23.2996L88.1998 28.3996Z" fill="#414042"/>
<path d="M96.7994 28.3996H95.3994V20.5996H96.9994V25.6996L100.799 20.5996H102.199V28.3996H100.599V23.2996L96.7994 28.3996Z" fill="#414042"/>
<path d="M27.0996 18.5998C27.0996 18.4998 27.1996 18.3998 27.2996 18.3998C27.3996 18.3998 27.3996 18.3998 27.4996 18.3998C28.6996 18.1998 29.8996 16.9998 29.9996 15.6998C29.9996 14.9998 29.7996 14.2998 29.3996 13.8998C29.2996 13.7998 29.2996 13.5998 29.4996 13.5998C29.5996 13.5998 29.5996 13.4998 29.5996 13.4998C33.4996 10.8998 36.4996 5.7998 36.7996 5.2998C36.7996 5.2998 36.7996 5.2998 36.8996 5.2998C37.9996 6.1998 38.1996 7.8998 37.1996 9.3998C36.4996 10.3998 34.8996 11.5998 33.0996 12.5998C33.0996 12.7998 33.0996 12.9998 33.0996 13.1998C36.6996 12.3998 38.6996 9.7998 38.9996 9.3998H39.0996C39.8996 10.6998 39.4996 12.4998 38.1996 13.2998C37.0996 13.9998 35.1996 14.3998 32.9996 14.6998C32.9996 14.8998 32.8996 15.0998 32.8996 15.2998C36.3996 15.7998 38.9996 14.3998 39.4996 14.1998H39.5996C39.8996 15.7998 39.0996 17.1998 37.4996 17.4998C35.8996 17.7998 32.4996 16.8998 32.4996 16.8998C32.3996 17.0998 32.3996 17.2998 32.2996 17.3998C34.5996 18.9998 37.7996 18.7998 38.2996 18.6998C38.2996 18.6998 38.3996 18.6998 38.3996 18.7998C38.4996 20.7998 36.8996 21.2998 35.4996 21.0998C34.2996 20.8998 32.5996 19.8998 31.4996 18.7998C31.3996 18.9998 31.1996 19.0998 31.0996 19.1998C32.1996 21.4998 34.8996 22.4998 35.7996 22.5998C35.7996 22.5998 35.8996 22.6998 35.7996 22.6998C35.1996 23.9998 33.8996 24.4998 32.3996 23.4998C31.4996 22.9998 30.4996 21.5998 29.8996 20.0998C29.6996 20.1998 29.5996 20.2998 29.3996 20.3998C29.6996 23.1998 31.8996 25.0998 32.2996 25.3998C32.2996 25.3998 32.2996 25.3998 32.2996 25.4998C32.2996 25.4998 32.2996 25.4998 32.2996 25.5998C31.5996 26.6998 29.8996 26.6998 28.9996 25.1998C28.4996 24.2998 28.0996 22.5998 27.9996 20.7998C27.7996 20.7998 27.5996 20.7998 27.3996 20.8998C27.2996 20.8998 27.1996 20.7998 27.1996 20.6998V18.5998H27.0996Z" fill="#3A579B"/>
<path d="M12.6002 18.5998C12.6002 18.4998 12.5002 18.3998 12.4002 18.3998C12.3002 18.3998 12.3002 18.3998 12.2002 18.3998C11.0002 18.0998 9.80023 16.9998 9.70023 15.6998C9.70023 14.9998 9.90023 14.2998 10.3002 13.8998C10.4002 13.7998 10.4002 13.5998 10.2002 13.5998C10.1002 13.5998 10.1002 13.4998 10.1002 13.4998C6.20023 10.8998 3.20023 5.7998 2.90023 5.2998C2.90023 5.2998 2.90023 5.2998 2.80023 5.2998C1.70023 6.0998 1.50023 7.8998 2.50023 9.3998C3.20023 10.3998 4.80023 11.5998 6.60023 12.5998C6.60023 12.7998 6.60023 12.9998 6.60023 13.1998C3.00023 12.3998 1.00023 9.7998 0.700232 9.3998H0.600232C-0.199768 10.6998 0.200232 12.4998 1.50023 13.2998C2.60023 13.9998 4.50023 14.3998 6.70023 14.6998C6.70023 14.8998 6.80023 15.0998 6.80023 15.2998C3.30023 15.7998 0.700232 14.3998 0.200232 14.1998H0.100232C-0.199768 15.7998 0.600232 17.1998 2.20023 17.4998C3.80023 17.7998 7.20023 16.8998 7.20023 16.8998C7.30023 17.0998 7.30023 17.2998 7.40023 17.3998C5.10023 18.9998 1.90023 18.7998 1.40023 18.6998C1.40023 18.6998 1.30023 18.6998 1.30023 18.7998C1.20023 20.7998 2.80023 21.2998 4.20023 21.0998C5.40023 20.8998 7.10023 19.8998 8.20023 18.7998C8.30023 18.9998 8.50023 19.0998 8.60023 19.1998C7.50023 21.4998 4.80023 22.4998 3.90023 22.5998C3.90023 22.5998 3.80023 22.6998 3.90023 22.6998C4.50023 23.9998 5.80023 24.4998 7.30023 23.4998C8.20023 22.9998 9.20023 21.5998 9.80023 20.0998C10.0002 20.1998 10.1002 20.2998 10.3002 20.3998C10.0002 23.1998 7.80023 25.0998 7.40023 25.3998C7.40023 25.3998 7.40023 25.3998 7.40023 25.4998C7.40023 25.4998 7.40023 25.4998 7.40023 25.5998C8.10023 26.6998 9.80023 26.6998 10.7002 25.1998C11.2002 24.2998 11.6002 22.5998 11.7002 20.7998C11.9002 20.7998 12.1002 20.7998 12.3002 20.8998C12.4002 20.8998 12.5002 20.7998 12.5002 20.6998V18.5998H12.6002Z" fill="#3A579B"/>
<path d="M12.4 6.4H15C17.2 6.4 18.3 5 18.6 3.8H20.9C21.2 5 22.2 6.4 24.5 6.4H27.2C27.2 6.4 27.7 5.8 27.8 5.5C28.2 4.4 27.7 3.8 26.9 3.8L25.9 4.7L24.9 3.8C24.1 3.8 23.6 4.3 24 5.5C24.1 5.6 24.2 5.9 24.3 6C23.4 5.9 22.1 5.2 21.9 3.8C21.9 3.8 22.6 2.7 22.8 2.2C23.3 0.7 22.5 0 21.3 0L19.8 1.8L18.2 0C17 0 16.2 0.7 16.8 2.3C17 2.8 17.7 3.9 17.7 3.9C17.4 5.3 16.2 5.9 15.3 6.1C15.4 5.9 15.6 5.7 15.6 5.6C16 4.5 15.5 3.9 14.7 3.9L13.7 4.8L12.7 3.9C11.9 3.9 11.4 4.4 11.8 5.6C11.9 5.8 12.4 6.4 12.4 6.4Z" fill="#3A579B"/>
<path d="M16.7002 13.9001H19.2002C19.3002 13.9001 19.4002 13.8001 19.4002 13.7001C18.9002 11.7001 17.9002 10.1001 16.8002 9.2001C17.6002 8.8001 18.5002 7.7001 18.5002 7.1001C15.8002 8.1001 10.6002 6.6001 10.1002 8.8001C10.0002 9.3001 10.2002 10.0001 10.5002 10.2001C10.5002 10.0001 10.8002 9.5001 11.5002 9.4001C13.9002 9.0001 16.1002 11.4001 16.5002 13.7001C16.6002 13.8001 16.6002 13.9001 16.7002 13.9001Z" fill="#3A579B"/>
<path d="M29.5002 8.8001C29.0002 6.5001 23.7002 8.0001 21.1002 7.1001C21.0002 7.8001 21.9002 8.8001 22.8002 9.2001C21.8002 10.1001 20.8002 11.7001 20.2002 13.7001C20.2002 13.8001 20.3002 13.9001 20.4002 13.9001H22.9002C23.0002 13.9001 23.1002 13.8001 23.1002 13.8001C23.5002 11.5001 25.7002 9.2001 28.1002 9.5001C28.8002 9.6001 29.1002 10.1001 29.1002 10.3001C29.3002 10.0001 29.5002 9.3001 29.5002 8.8001Z" fill="#3A579B"/>
<path d="M22.9 16.9998C21.5 16.5998 19.8 16.5998 19.8 16.5998C19.8 16.5998 18.1 16.5998 16.7 16.9998C15.2 17.4998 13.7 16.6998 13.2 16.3998C13.1 16.2998 13 16.3998 13 16.4998C13.1 17.1998 13.7 18.7998 16.1 19.3998C18.4 19.8998 19.4 22.4998 19.7 23.5998C19.7 23.6998 19.9 23.6998 20 23.5998C20.3 22.4998 21.4 19.9998 23.6 19.3998C26 18.7998 26.6 17.1998 26.7 16.4998C26.7 16.3998 26.6 16.2998 26.5 16.3998C25.9 16.7998 24.5 17.4998 22.9 16.9998Z" fill="#3A579B"/>
<path d="M22.0996 21.5996C22.1996 21.6996 22.3996 21.7996 22.5996 21.7996C23.0996 21.7996 23.4996 21.3996 23.4996 20.8996C23.4996 20.7996 23.4996 20.6996 23.3996 20.5996C22.8996 20.7996 22.3996 21.1996 22.0996 21.5996Z" fill="#3A579B"/>
<path d="M24.4 20.1998C24.5 20.3998 24.6 20.5998 24.6 20.8998C24.6 21.9998 23.7 22.8998 22.6 22.8998C22.2 22.8998 21.8 22.7998 21.5 22.4998C21.3 22.8998 21.1 23.2998 21 23.5998C21.5 23.8998 22 24.0998 22.6 24.0998C24.3 24.0998 25.7 22.6998 25.7 20.9998C25.7 20.5998 25.6 20.1998 25.4 19.7998C25.2 19.9998 24.8 20.0998 24.4 20.1998Z" fill="#3A579B"/>
<path d="M18.0998 22.5997C17.7998 22.7997 17.3998 22.8997 16.9998 22.8997C15.8998 22.8997 14.9998 21.9997 14.9998 20.8997C14.9998 20.6997 15.0998 20.3997 15.1998 20.1997C14.7998 20.0997 14.3998 19.8997 14.0998 19.6997C13.8998 20.0997 13.7998 20.4997 13.7998 20.8997C13.7998 22.5997 15.1998 23.9997 16.8998 23.9997C17.4998 23.9997 17.9998 23.7997 18.4998 23.4997C18.4998 23.2997 18.2998 22.9997 18.0998 22.5997Z" fill="#3A579B"/>
<path d="M16.1996 20.5996C16.1996 20.6996 16.0996 20.7996 16.0996 20.8996C16.0996 21.3996 16.4996 21.7996 16.9996 21.7996C17.1996 21.7996 17.3996 21.6996 17.4996 21.5996C17.1996 21.1996 16.7996 20.7996 16.1996 20.5996Z" fill="#3A579B"/>
<path fill-rule="evenodd" clip-rule="evenodd" d="M34.9004 2.9002C35.0004 2.9002 35.0004 2.9002 34.9004 2.9002C33.8004 2.3002 34.1004 1.6002 33.5004 1.0002C32.8004 0.400203 31.8004 0.400203 31.6004 0.300203C30.4004 0.200203 30.1004 0.400203 30.0004 0.500203C29.8004 0.700203 29.4004 1.1002 29.2004 1.9002C29.0004 2.7002 29.1004 3.0002 29.3004 3.1002H29.4004C29.5004 3.2002 30.0004 3.0002 30.0004 3.0002C30.3004 3.1002 30.8004 3.3002 30.7004 4.4002C30.6004 5.8002 28.6004 6.1002 28.0004 6.2002L27.9004 6.4002C28.8004 6.4002 31.4004 6.1002 31.7004 4.8002C32.1004 3.5002 31.5004 3.0002 31.5004 3.0002C31.3004 2.8002 30.6004 2.8002 30.2004 2.9002C30.2004 2.9002 29.9004 2.6002 30.2004 1.9002C30.6004 0.700203 30.8004 0.700203 31.7004 0.800203C31.8004 0.800203 31.9004 0.800203 32.0004 0.900203C32.6004 1.3002 32.5004 2.1002 32.7004 2.7002C33.1004 4.5002 34.1004 4.5002 34.8004 4.7002C34.9004 4.7002 34.9004 4.6002 34.9004 4.6002C34.4004 4.2002 33.8004 3.6002 33.9004 3.0002C33.9004 3.0002 34.0004 2.9002 34.0004 3.0002C34.0004 2.9002 34.4004 3.1002 34.9004 2.9002Z" fill="#3A579B"/>
<path fill-rule="evenodd" clip-rule="evenodd" d="M4.60039 2.89981C4.50039 2.89981 4.50039 2.89981 4.60039 2.89981C5.60039 2.29981 5.30039 1.69981 6.00039 1.09981C6.70039 0.499813 7.70039 0.499813 7.90039 0.399813C9.10039 0.299813 9.40039 0.499813 9.50039 0.599813C9.70039 0.799813 10.1004 1.19981 10.3004 1.99981C10.5004 2.79981 10.4004 3.09981 10.2004 3.19981H10.1004C10.0004 3.19981 9.50039 2.99981 9.50039 2.99981C9.20039 3.09981 8.70039 3.29981 8.80039 4.39981C9.00039 5.89981 11.0004 6.19981 11.5004 6.19981L11.6004 6.39981C10.7004 6.39981 8.10039 6.09981 7.80039 4.79981C7.40039 3.49981 8.00039 2.99981 8.00039 2.99981C8.20039 2.79981 8.90039 2.79981 9.30039 2.89981C9.30039 2.89981 9.60039 2.59981 9.30039 1.89981C9.00039 0.599813 8.80039 0.699813 7.90039 0.699813C7.80039 0.699813 7.70039 0.699813 7.60039 0.799813C7.00039 1.19981 7.10039 1.99981 7.00039 2.49981C6.60039 4.29981 5.60039 4.29981 4.90039 4.49981C4.80039 4.49981 4.80039 4.39981 4.80039 4.39981C5.30039 3.99981 5.90039 3.39981 5.80039 2.79981C5.80039 2.79981 5.70039 2.69981 5.70039 2.79981C5.60039 2.89981 5.10039 3.09981 4.60039 2.89981Z" fill="#3A579B"/>
<path d="M31.2004 29.7L30.0004 30.7L28.8004 29.8C28.3004 30 28.0004 30.5 27.9004 31C27.2004 31.1 25.3004 30.7 25.5004 30.4C27.6004 27.5 26.0004 25.7 24.1004 25.8C23.8004 26.2 23.1004 26.8 22.4004 27.2C20.8004 28 20.1004 28.6 19.8004 28.8C19.6004 28.6 18.8004 28 17.2004 27.2C16.4004 26.8 15.8004 26.3 15.5004 25.8C13.6004 25.8 12.1004 27.5 14.2004 30.4C14.4004 30.7 12.4004 31.1 11.5004 31C11.3004 30.7 10.9004 30.6 10.5004 30.6C10.3004 30.6 10.2004 30.6 10.0004 30.7L6.30039 27.2V27.1C6.50039 26.7 6.20039 26.3 6.00039 26.3C6.20039 26 6.20039 24.8 4.90039 24.5C4.90039 24.7 5.00039 25.3 5.00039 25.3C5.00039 25.3 4.00039 24.8 3.50039 25.2C3.10039 25.7 3.70039 26.7 3.70039 26.7C3.70039 26.7 3.20039 26.7 2.90039 26.7C3.30039 28 4.50039 27.9 4.80039 27.6C4.80039 27.8 5.20039 28.1 5.60039 27.9L5.80039 27.8L9.40039 31.2C9.20039 31.4 9.20039 31.7 9.20039 32.1C9.30039 32.6 9.70039 33 10.2004 33.1C10.6004 33.2 10.9004 33.1 11.2004 32.9L12.1004 33.8C12.2004 33.9 12.3004 33.9 12.4004 33.9C12.6004 33.9 12.8004 33.7 12.8004 33.5C12.8004 33.4 12.7004 33.3 12.7004 33.3L11.7004 32.4C12.5004 31.9 13.9004 31.5 15.1004 31.5C15.3004 31.5 15.4004 31.3 15.3004 31.1C14.8004 29.8 15.9004 28.8 17.1004 29.6C17.4004 29.8 17.6004 30 17.9004 30.6C16.8004 31.1 14.7004 33.2 14.6004 33.7C15.0004 35 16.1004 35.5 16.1004 35.5C15.8004 34.9 15.9004 33.6 17.7004 32.7C16.6004 33.8 16.2004 34.8 16.5004 35.7C16.8004 36.5 17.6004 36.9 18.3004 36.9C17.8004 35.5 18.0004 34.2 19.0004 33.2C18.6004 34.3 18.0004 37.7 19.7004 38.3C21.3004 37.7 20.8004 34.3 20.4004 33.2C21.3004 34.2 21.5004 35.5 21.1004 36.9C21.7004 36.9 22.6004 36.5 22.9004 35.7C23.2004 34.8 22.8004 33.8 21.7004 32.7C23.5004 33.6 23.6004 34.9 23.3004 35.5C23.3004 35.5 24.5004 35.1 24.8004 33.7C24.7004 33.2 22.7004 31.2 21.6004 30.7C21.9004 30.1 22.1004 29.9 22.4004 29.7C23.6004 28.9 24.8004 29.9 24.2004 31.2C24.1004 31.4 24.2004 31.6 24.4004 31.6C25.8004 31.6 27.4004 32.1 28.1004 32.8C28.5004 33.4 29.3004 33.8 30.2004 33.8C31.2004 33.7 32.0004 32.9 32.1004 32C32.3004 30.9 31.8004 30.1 31.2004 29.7Z" fill="#3A579B"/>
<path d="M30.8002 29.0001L30.0002 28.1001L29.2002 29.0001L30.0002 29.7001L30.8002 29.0001Z" fill="#3A579B"/>
</g>
<defs>
<clipPath id="clip0">
<rect width="145.8" height="38.1" fill="white"/>
</clipPath>
</defs>
</svg>
